SplineFontDB: 3.2
FontName: SourceCodeProShr-Regular
FullName: Source Code Pro Share Regular
FamilyName: Source Code Pro Share
Weight: Regular
Copyright: (c) 2023 Adobe (http://www.adobe.com/), with Reserved Font Name `Source'\n"Fair and Share" tax glyphs by Vector Hasting under Creative Commons 4.0 BY-SA
Version: 1.026;hotconv 1.1.0;makeotfexe 2.6.0
ItalicAngle: 0
UnderlinePosition: -76.8
UnderlineWidth: 51.2
Ascent: 819
Descent: 205
InvalidEm: 0
sfntRevision: 0x000106a8
LayerCount: 2
Layer: 0 1 "Back" 1
Layer: 1 1 "Fore" 0
XUID: [1021 508 542950195 17734]
BaseHoriz: 2 'ideo' 'romn'
BaseScript: 'DFLT' 1  -174 0
BaseScript: 'cyrl' 1  -174 0
BaseScript: 'grek' 1  -174 0
BaseScript: 'latn' 1  -174 0
StyleMap: 0x0040
FSType: 0
OS2Version: 4
OS2_WeightWidthSlopeOnly: 0
OS2_UseTypoMetrics: 1
CreationTime: 1680669365
ModificationTime: 1758698979
PfmFamily: 17
TTFWeight: 400
TTFWidth: 5
LineGap: 0
VLineGap: 0
Panose: 2 11 3 9 3 4 3 2 2 4
OS2TypoAscent: 1008
OS2TypoAOffset: 0
OS2TypoDescent: -280
OS2TypoDOffset: 0
OS2TypoLinegap: 0
OS2WinAscent: 1085
OS2WinAOffset: 0
OS2WinDescent: 465
OS2WinDOffset: 0
HheadAscent: 1008
HheadAOffset: 0
HheadDescent: -280
HheadDOffset: 0
OS2SubXSize: 666
OS2SubYSize: 614
OS2SubXOff: 0
OS2SubYOff: 77
OS2SupXSize: 666
OS2SupYSize: 614
OS2SupXOff: 0
OS2SupYOff: 358
OS2StrikeYSize: 51
OS2StrikeYPos: 298
OS2CapHeight: 676
OS2XHeight: 498
OS2Vendor: 'ADBO'
OS2CodePages: 6000019f.00000000
OS2UnicodeRanges: 200002f7.02003803.00000000.00000000
Lookup: 1 0 0 "'ss05' Style Set 5 lookup 0" { "'ss05' Style Set 5 lookup 0 subtable"  } ['cv06' ('DFLT' <'dflt' > 'cyrl' <'SRB ' 'dflt' > 'grek' <'dflt' > 'latn' <'NSM ' 'SKS ' 'dflt' > ) 'locl' ('latn' <'NSM ' 'SKS ' > ) 'salt' ('DFLT' <'dflt' > 'cyrl' <'SRB ' 'dflt' > 'grek' <'dflt' > 'latn' <'NSM ' 'SKS ' 'dflt' > ) 'ss05' ('DFLT' <'dflt' > 'cyrl' <'SRB ' 'dflt' > 'grek' <'dflt' > 'latn' <'NSM ' 'SKS ' 'dflt' > ) ]

StartChar: .notdef
Encoding: 1114112 -1 0
Width: 614
GlyphClass: 1
Flags: W
LayerCount: 2
Fore
SplineSet
63 0 m 1,0,-1
 63 676 l 1,1,-1
 551 676 l 1,2,-1
 551 0 l 1,3,-1
 63 0 l 1,0,-1
174 59 m 1,4,-1
 437 59 l 1,5,-1
 362 195 l 1,6,-1
 309 300 l 1,7,-1
 305 300 l 1,8,-1
 250 195 l 1,9,-1
 174 59 l 1,4,-1
130 113 m 1,10,-1
 261 348 l 1,11,-1
 130 586 l 1,12,-1
 130 113 l 1,10,-1
305 396 m 1,13,-1
 309 396 l 1,14,-1
 359 493 l 1,15,-1
 427 614 l 1,16,-1
 186 614 l 1,17,-1
 254 493 l 1,18,-1
 305 396 l 1,13,-1
353 348 m 1,19,-1
 483 113 l 1,20,-1
 483 586 l 1,21,-1
 353 348 l 1,19,-1
EndSplineSet
Validated: 1
EndChar

StartChar: A
Encoding: 65 65 2
Width: 614
GlyphClass: 2
Flags: W
AnchorPoint: "Anchor-6" 516 0 basechar 0
AnchorPoint: "Anchor-3" 307 -20 basechar 0
AnchorPoint: "Anchor-2" 532 0 basechar 0
AnchorPoint: "Anchor-0" 307 692 basechar 0
LayerCount: 2
Fore
SplineSet
33 0 m 5,0,-1
 259 672 l 5,1,-1
 355 672 l 5,2,-1
 582 0 l 5,3,-1
 492 0 l 5,4,-1
 428 205 l 5,5,-1
 184 205 l 5,6,-1
 120 0 l 5,7,-1
 33 0 l 5,0,-1
206 273 m 5,8,-1
 407 273 l 5,9,-1
 375 376 l 6,10,11
 358 432 358 432 341 488 c 132,-1,12
 324 544 324 544 308 602 c 5,13,-1
 304 602 l 5,14,15
 288 544 288 544 271.5 488 c 132,-1,16
 255 432 255 432 238 376 c 6,17,-1
 206 273 l 5,8,-1
EndSplineSet
Validated: 1
EndChar

StartChar: B
Encoding: 66 66 3
Width: 614
GlyphClass: 2
Flags: W
AnchorPoint: "Anchor-3" 314 -20 basechar 0
AnchorPoint: "Anchor-0" 308 692 basechar 0
LayerCount: 2
Fore
SplineSet
101 0 m 1,0,-1
 101 672 l 1,1,-1
 292 672 l 2,2,3
 361 672 361 672 412.5 655.5 c 128,-1,4
 464 639 464 639 493 603 c 128,-1,5
 522 567 522 567 522 508 c 0,6,7
 522 458 522 458 493.5 417.5 c 128,-1,8
 465 377 465 377 404 361 c 1,9,-1
 404 357 l 1,10,11
 478 346 478 346 519 306 c 128,-1,12
 560 266 560 266 560 197 c 0,13,14
 560 131 560 131 528.5 87 c 128,-1,15
 497 43 497 43 440 21.5 c 128,-1,16
 383 0 383 0 307 0 c 2,17,-1
 101 0 l 1,0,-1
186 389 m 1,18,-1
 278 389 l 2,19,20
 364 389 364 389 401 416.5 c 128,-1,21
 438 444 438 444 438 501 c 0,22,23
 438 555 438 555 398.5 577.5 c 128,-1,24
 359 600 359 600 282 600 c 2,25,-1
 186 600 l 1,26,-1
 186 389 l 1,18,-1
186 72 m 1,27,-1
 295 72 l 2,28,29
 381 72 381 72 428.5 102 c 128,-1,30
 476 132 476 132 476 201 c 0,31,32
 476 263 476 263 429.5 290 c 128,-1,33
 383 317 383 317 295 317 c 2,34,-1
 186 317 l 1,35,-1
 186 72 l 1,27,-1
EndSplineSet
Validated: 1
EndChar

StartChar: C
Encoding: 67 67 4
Width: 614
GlyphClass: 2
Flags: W
AnchorPoint: "Anchor-3" 352 -20 basechar 0
AnchorPoint: "Anchor-2" 358 0 basechar 0
AnchorPoint: "Anchor-0" 354 692 basechar 0
LayerCount: 2
Fore
SplineSet
359 -12 m 0,0,1
 297 -12 297 -12 243.5 11.5 c 128,-1,2
 190 35 190 35 150.5 79.5 c 128,-1,3
 111 124 111 124 89 189 c 128,-1,4
 67 254 67 254 67 336 c 0,5,6
 67 444 67 444 105.5 522 c 128,-1,7
 144 600 144 600 212 642 c 128,-1,8
 280 684 280 684 368 684 c 0,9,10
 428 684 428 684 475 659 c 128,-1,11
 522 634 522 634 551 602 c 1,12,-1
 503 548 l 1,13,14
 477 577 477 577 443.5 593 c 128,-1,15
 410 609 410 609 368 609 c 0,16,17
 303 609 303 609 255.5 576 c 128,-1,18
 208 543 208 543 181.5 482.5 c 128,-1,19
 155 422 155 422 155 338 c 0,20,21
 155 253 155 253 181.5 191.5 c 128,-1,22
 208 130 208 130 255.5 96 c 128,-1,23
 303 62 303 62 368 62 c 0,24,25
 414 62 414 62 450.5 81.5 c 128,-1,26
 487 101 487 101 519 137 c 1,27,-1
 567 85 l 1,28,29
 528 39 528 39 477 13.5 c 128,-1,30
 426 -12 426 -12 359 -12 c 0,0,1
EndSplineSet
Validated: 1
EndChar

StartChar: D
Encoding: 68 68 5
Width: 614
GlyphClass: 2
Flags: W
AnchorPoint: "Anchor-3" 301 -20 basechar 0
AnchorPoint: "Anchor-2" 293 0 basechar 0
AnchorPoint: "Anchor-0" 307 692 basechar 0
LayerCount: 2
Fore
SplineSet
89 0 m 1,0,-1
 89 672 l 1,1,-1
 255 672 l 2,2,3
 356 672 356 672 425.5 633.5 c 128,-1,4
 495 595 495 595 530.5 520 c 128,-1,5
 566 445 566 445 566 339 c 0,6,7
 566 231 566 231 531 155.5 c 128,-1,8
 496 80 496 80 427 40 c 128,-1,9
 358 0 358 0 259 0 c 2,10,-1
 89 0 l 1,0,-1
174 70 m 1,11,-1
 249 70 l 2,12,13
 326 70 326 70 376.5 102 c 128,-1,14
 427 134 427 134 452.5 194 c 128,-1,15
 478 254 478 254 478 339 c 0,16,17
 478 423 478 423 452.5 482.5 c 128,-1,18
 427 542 427 542 376.5 572 c 128,-1,19
 326 602 326 602 249 602 c 2,20,-1
 174 602 l 1,21,-1
 174 70 l 1,11,-1
EndSplineSet
Validated: 1
EndChar

StartChar: E
Encoding: 69 69 6
Width: 614
GlyphClass: 2
Flags: W
AnchorPoint: "Anchor-6" 440 0 basechar 0
AnchorPoint: "Anchor-3" 341 -20 basechar 0
AnchorPoint: "Anchor-2" 334 0 basechar 0
AnchorPoint: "Anchor-0" 339 692 basechar 0
LayerCount: 2
Fore
SplineSet
117 0 m 1,0,-1
 117 672 l 1,1,-1
 532 672 l 1,2,-1
 532 600 l 1,3,-1
 203 600 l 1,4,-1
 203 389 l 1,5,-1
 481 389 l 1,6,-1
 481 316 l 1,7,-1
 203 316 l 1,8,-1
 203 73 l 1,9,-1
 543 73 l 1,10,-1
 543 0 l 1,11,-1
 117 0 l 1,0,-1
EndSplineSet
Validated: 1
EndChar

StartChar: F
Encoding: 70 70 7
Width: 614
GlyphClass: 2
Flags: W
AnchorPoint: "Anchor-3" 185 -20 basechar 0
AnchorPoint: "Anchor-2" 174 0 basechar 0
AnchorPoint: "Anchor-0" 350 692 basechar 0
LayerCount: 2
Fore
SplineSet
136 0 m 1,0,-1
 136 672 l 1,1,-1
 549 672 l 1,2,-1
 549 600 l 1,3,-1
 222 600 l 1,4,-1
 222 373 l 1,5,-1
 499 373 l 1,6,-1
 499 301 l 1,7,-1
 222 301 l 1,8,-1
 222 0 l 1,9,-1
 136 0 l 1,0,-1
EndSplineSet
Validated: 1
EndChar

StartChar: G
Encoding: 71 71 8
Width: 614
GlyphClass: 2
Flags: W
AnchorPoint: "Anchor-3" 338 -20 basechar 0
AnchorPoint: "Anchor-0" 338 692 basechar 0
LayerCount: 2
Fore
SplineSet
345 -12 m 0,0,1
 261 -12 261 -12 195.5 29.5 c 128,-1,2
 130 71 130 71 92 148.5 c 128,-1,3
 54 226 54 226 54 336 c 0,4,5
 54 445 54 445 92.5 523 c 128,-1,6
 131 601 131 601 198 642.5 c 128,-1,7
 265 684 265 684 352 684 c 0,8,9
 419 684 419 684 464 658 c 128,-1,10
 509 632 509 632 538 602 c 1,11,-1
 489 548 l 1,12,13
 464 575 464 575 432 592 c 128,-1,14
 400 609 400 609 352 609 c 0,15,16
 290 609 290 609 243 576 c 128,-1,17
 196 543 196 543 169.5 482.5 c 128,-1,18
 143 422 143 422 143 338 c 0,19,20
 143 253 143 253 168 191.5 c 128,-1,21
 193 130 193 130 239 96 c 128,-1,22
 285 62 285 62 350 62 c 0,23,24
 385 62 385 62 417 73 c 128,-1,25
 449 84 449 84 467 102 c 1,26,-1
 467 278 l 1,27,-1
 333 278 l 1,28,-1
 333 348 l 1,29,-1
 546 348 l 1,30,-1
 546 66 l 1,31,32
 514 33 514 33 462.5 10.5 c 128,-1,33
 411 -12 411 -12 345 -12 c 0,0,1
EndSplineSet
Validated: 1
EndChar

StartChar: H
Encoding: 72 72 9
Width: 614
GlyphClass: 2
Flags: W
AnchorPoint: "Anchor-3" 307 -20 basechar 0
AnchorPoint: "Anchor-2" 125 0 basechar 0
AnchorPoint: "Anchor-0" 307 692 basechar 0
LayerCount: 2
Fore
SplineSet
81 0 m 1,0,-1
 81 672 l 1,1,-1
 167 672 l 1,2,-1
 167 390 l 1,3,-1
 447 390 l 1,4,-1
 447 672 l 1,5,-1
 534 672 l 1,6,-1
 534 0 l 1,7,-1
 447 0 l 1,8,-1
 447 316 l 1,9,-1
 167 316 l 1,10,-1
 167 0 l 1,11,-1
 81 0 l 1,0,-1
EndSplineSet
Validated: 1
EndChar

StartChar: I
Encoding: 73 73 10
Width: 614
GlyphClass: 2
Flags: W
AnchorPoint: "Anchor-6" 307 0 basechar 0
AnchorPoint: "Anchor-3" 307 -20 basechar 0
AnchorPoint: "Anchor-2" 307 0 basechar 0
AnchorPoint: "Anchor-0" 307 692 basechar 0
LayerCount: 2
Fore
SplineSet
97 0 m 1,0,-1
 97 73 l 1,1,-1
 264 73 l 1,2,-1
 264 600 l 1,3,-1
 97 600 l 1,4,-1
 97 672 l 1,5,-1
 517 672 l 1,6,-1
 517 600 l 1,7,-1
 350 600 l 1,8,-1
 350 73 l 1,9,-1
 517 73 l 1,10,-1
 517 0 l 1,11,-1
 97 0 l 1,0,-1
EndSplineSet
Validated: 1
EndChar

StartChar: J
Encoding: 74 74 11
Width: 614
GlyphClass: 2
Flags: W
AnchorPoint: "Anchor-3" 307 -20 basechar 0
AnchorPoint: "Anchor-0" 332 692 basechar 0
LayerCount: 2
Fore
SplineSet
283 -12 m 0,0,1
 227 -12 227 -12 172.5 14.5 c 128,-1,2
 118 41 118 41 83 99 c 1,3,-1
 136 152 l 1,4,5
 165 107 165 107 203.5 84.5 c 128,-1,6
 242 62 242 62 281 62 c 0,7,8
 353 62 353 62 386.5 100.5 c 128,-1,9
 420 139 420 139 420 222 c 2,10,-1
 420 601 l 1,11,-1
 138 601 l 1,12,-1
 138 673 l 1,13,-1
 505 673 l 1,14,-1
 505 215 l 2,15,16
 505 153 505 153 484.5 101 c 128,-1,17
 464 49 464 49 415.5 18.5 c 128,-1,18
 367 -12 367 -12 283 -12 c 0,0,1
EndSplineSet
Validated: 1
EndChar

StartChar: K
Encoding: 75 75 12
Width: 614
GlyphClass: 2
Flags: W
AnchorPoint: "Anchor-3" 346 -20 basechar 0
AnchorPoint: "Anchor-0" 334 692 basechar 0
LayerCount: 2
Fore
SplineSet
100 0 m 5,0,-1
 100 672 l 5,1,-1
 186 672 l 5,2,-1
 186 335 l 5,3,-1
 189 335 l 5,4,-1
 472 672 l 5,5,-1
 569 672 l 5,6,-1
 186 214 l 5,7,-1
 186 0 l 5,8,-1
 100 0 l 5,0,-1
498 0 m 5,9,-1
 290 375 l 5,10,-1
 342 442 l 5,11,-1
 594 0 l 5,12,-1
 498 0 l 5,9,-1
EndSplineSet
Validated: 5
EndChar

StartChar: L
Encoding: 76 76 13
Width: 614
GlyphClass: 2
Flags: W
AnchorPoint: "Anchor-4" 180 345 basechar 0
AnchorPoint: "Anchor-3" 357 -20 basechar 0
AnchorPoint: "Anchor-2" 357 0 basechar 0
AnchorPoint: "Anchor-0" 194 692 basechar 0
LayerCount: 2
Fore
SplineSet
137 0 m 1,0,-1
 137 672 l 1,1,-1
 221 672 l 1,2,-1
 221 73 l 1,3,-1
 554 73 l 1,4,-1
 554 0 l 1,5,-1
 137 0 l 1,0,-1
EndSplineSet
Validated: 1
EndChar

StartChar: M
Encoding: 77 77 14
Width: 614
GlyphClass: 2
Flags: W
AnchorPoint: "Anchor-3" 307 -20 basechar 0
AnchorPoint: "Anchor-2" 498 0 basechar 0
AnchorPoint: "Anchor-0" 307 692 basechar 0
LayerCount: 2
Fore
SplineSet
74 0 m 1,0,-1
 74 672 l 1,1,-1
 178 672 l 1,2,-1
 272 385 l 1,3,-1
 305 276 l 1,4,-1
 309 276 l 1,5,-1
 341 385 l 1,6,-1
 436 672 l 1,7,-1
 541 672 l 1,8,-1
 541 0 l 1,9,-1
 459 0 l 1,10,-1
 459 336 l 2,11,12
 459 361 459 361 460.5 392.5 c 128,-1,13
 462 424 462 424 464.5 458 c 128,-1,14
 467 492 467 492 469.5 522 c 128,-1,15
 472 552 472 552 473 573 c 1,16,-1
 470 573 l 1,17,-1
 432 442 l 1,18,-1
 336 178 l 1,19,-1
 274 178 l 1,20,-1
 180 442 l 1,21,-1
 141 573 l 1,22,-1
 139 573 l 1,23,24
 141 551 141 551 143.5 521.5 c 128,-1,25
 146 492 146 492 148.5 458 c 128,-1,26
 151 424 151 424 152.5 392 c 128,-1,27
 154 360 154 360 154 336 c 2,28,-1
 154 0 l 1,29,-1
 74 0 l 1,0,-1
EndSplineSet
Validated: 1
EndChar

StartChar: N
Encoding: 78 78 15
Width: 614
GlyphClass: 2
Flags: W
AnchorPoint: "Anchor-3" 307 -20 basechar 0
AnchorPoint: "Anchor-2" 484 0 basechar 0
AnchorPoint: "Anchor-0" 317 692 basechar 0
LayerCount: 2
Fore
SplineSet
84 0 m 1,0,-1
 84 672 l 1,1,-1
 178 672 l 1,2,-1
 393 250 l 1,3,-1
 458 111 l 1,4,-1
 460 111 l 1,5,6
 458 161 458 161 453.5 215.5 c 128,-1,7
 449 270 449 270 449 324 c 2,8,-1
 449 672 l 1,9,-1
 530 672 l 1,10,-1
 530 0 l 1,11,-1
 436 0 l 1,12,-1
 221 422 l 1,13,-1
 157 561 l 1,14,-1
 155 561 l 1,15,16
 157 510 157 510 161.5 456.5 c 128,-1,17
 166 403 166 403 166 351 c 2,18,-1
 166 0 l 1,19,-1
 84 0 l 1,0,-1
EndSplineSet
Validated: 1
EndChar

StartChar: O
Encoding: 79 79 16
Width: 614
GlyphClass: 2
Flags: W
AnchorPoint: "Anchor-6" 307 0 basechar 0
AnchorPoint: "Anchor-5" 430 662 basechar 0
AnchorPoint: "Anchor-3" 307 -20 basechar 0
AnchorPoint: "Anchor-2" 307 0 basechar 0
AnchorPoint: "Anchor-0" 307 692 basechar 0
LayerCount: 2
Fore
SplineSet
307 -12 m 256,0,1
 231 -12 231 -12 173 30 c 128,-1,2
 115 72 115 72 82 150 c 128,-1,3
 49 228 49 228 49 339 c 0,4,5
 49 448 49 448 82 525 c 128,-1,6
 115 602 115 602 173 643 c 128,-1,7
 231 684 231 684 307 684 c 256,8,9
 383 684 383 684 441.5 643 c 128,-1,10
 500 602 500 602 532.5 524.5 c 128,-1,11
 565 447 565 447 565 339 c 0,12,13
 565 228 565 228 532.5 150 c 128,-1,14
 500 72 500 72 441.5 30 c 128,-1,15
 383 -12 383 -12 307 -12 c 256,0,1
307 62 m 256,16,17
 358 62 358 62 396.5 95.5 c 128,-1,18
 435 129 435 129 456 191 c 128,-1,19
 477 253 477 253 477 339 c 0,20,21
 477 424 477 424 456 484.5 c 128,-1,22
 435 545 435 545 396.5 577 c 128,-1,23
 358 609 358 609 307 609 c 256,24,25
 256 609 256 609 217.5 577 c 128,-1,26
 179 545 179 545 158 484.5 c 128,-1,27
 137 424 137 424 137 339 c 0,28,29
 137 253 137 253 158 191 c 128,-1,30
 179 129 179 129 217.5 95.5 c 128,-1,31
 256 62 256 62 307 62 c 256,16,17
EndSplineSet
Validated: 1
EndChar

StartChar: P
Encoding: 80 80 17
Width: 614
GlyphClass: 2
Flags: W
AnchorPoint: "Anchor-3" 143 -20 basechar 0
AnchorPoint: "Anchor-0" 328 692 basechar 0
LayerCount: 2
Fore
SplineSet
104 0 m 1,0,-1
 104 672 l 1,1,-1
 307 672 l 2,2,3
 382 672 382 672 438 653 c 128,-1,4
 494 634 494 634 525 591 c 128,-1,5
 556 548 556 548 556 474 c 0,6,7
 556 403 556 403 525 357.5 c 128,-1,8
 494 312 494 312 437.5 289 c 128,-1,9
 381 266 381 266 307 266 c 2,10,-1
 189 266 l 1,11,-1
 189 0 l 1,12,-1
 104 0 l 1,0,-1
189 336 m 1,13,-1
 297 336 l 2,14,15
 385 336 385 336 427.5 369.5 c 128,-1,16
 470 403 470 403 470 474 c 0,17,18
 470 547 470 547 427 575 c 128,-1,19
 384 603 384 603 297 603 c 2,20,-1
 189 603 l 1,21,-1
 189 336 l 1,13,-1
EndSplineSet
Validated: 1
EndChar

StartChar: Q
Encoding: 81 81 18
Width: 614
GlyphClass: 2
Flags: W
AnchorPoint: "Anchor-0" 309 701 basechar 0
LayerCount: 2
Fore
SplineSet
307 -12 m 256,0,1
 231 -12 231 -12 173 30 c 128,-1,2
 115 72 115 72 82 150 c 128,-1,3
 49 228 49 228 49 339 c 0,4,5
 49 448 49 448 82 525 c 128,-1,6
 115 602 115 602 173 643 c 128,-1,7
 231 684 231 684 307 684 c 256,8,9
 383 684 383 684 441.5 643 c 128,-1,10
 500 602 500 602 532.5 524.5 c 128,-1,11
 565 447 565 447 565 339 c 0,12,13
 565 228 565 228 532.5 150 c 128,-1,14
 500 72 500 72 441.5 30 c 128,-1,15
 383 -12 383 -12 307 -12 c 256,0,1
307 58 m 256,16,17
 358 58 358 58 396 91.5 c 128,-1,18
 434 125 434 125 455.5 187.5 c 128,-1,19
 477 250 477 250 477 339 c 0,20,21
 477 423 477 423 455.5 484 c 128,-1,22
 434 545 434 545 396 577 c 128,-1,23
 358 609 358 609 307 609 c 256,24,25
 256 609 256 609 218 577 c 128,-1,26
 180 545 180 545 158.5 484 c 128,-1,27
 137 423 137 423 137 339 c 0,28,29
 137 250 137 250 158.5 187.5 c 128,-1,30
 180 125 180 125 218 91.5 c 128,-1,31
 256 58 256 58 307 58 c 256,16,17
493 -167 m 0,32,33
 402 -167 402 -167 345 -119.5 c 128,-1,34
 288 -72 288 -72 263 -1 c 1,35,-1
 351 6 l 1,36,37
 361 -27 361 -27 382 -49.5 c 128,-1,38
 403 -72 403 -72 434 -83 c 128,-1,39
 465 -94 465 -94 502 -94 c 0,40,41
 517 -94 517 -94 530.5 -91 c 128,-1,42
 544 -88 544 -88 552 -84 c 1,43,-1
 568 -153 l 1,44,45
 552 -159 552 -159 533.5 -163 c 128,-1,46
 515 -167 515 -167 493 -167 c 0,32,33
EndSplineSet
Validated: 5
EndChar

StartChar: R
Encoding: 82 82 19
Width: 614
GlyphClass: 2
Flags: W
AnchorPoint: "Anchor-3" 328 -20 basechar 0
AnchorPoint: "Anchor-2" 140 0 basechar 0
AnchorPoint: "Anchor-0" 311 692 basechar 0
LayerCount: 2
Fore
SplineSet
102 0 m 1,0,-1
 102 672 l 1,1,-1
 311 672 l 2,2,3
 380 672 380 672 432.5 654 c 128,-1,4
 485 636 485 636 515.5 594.5 c 128,-1,5
 546 553 546 553 546 483 c 0,6,7
 546 415 546 415 515.5 371.5 c 128,-1,8
 485 328 485 328 432.5 306 c 128,-1,9
 380 284 380 284 311 284 c 2,10,-1
 187 284 l 1,11,-1
 187 0 l 1,12,-1
 102 0 l 1,0,-1
187 353 m 1,13,-1
 299 353 l 2,14,15
 378 353 378 353 419.5 385.5 c 128,-1,16
 461 418 461 418 461 483 c 256,17,18
 461 549 461 549 419.5 576 c 128,-1,19
 378 603 378 603 299 603 c 2,20,-1
 187 603 l 1,21,-1
 187 353 l 1,13,-1
294 307 m 1,22,-1
 361 352 l 1,23,-1
 566 0 l 1,24,-1
 469 0 l 1,25,-1
 294 307 l 1,22,-1
EndSplineSet
Validated: 5
EndChar

StartChar: S
Encoding: 83 83 20
Width: 614
GlyphClass: 2
Flags: W
AnchorPoint: "Anchor-3" 321 -20 basechar 0
AnchorPoint: "Anchor-2" 327 0 basechar 0
AnchorPoint: "Anchor-0" 324 692 basechar 0
LayerCount: 2
Fore
SplineSet
312 -12 m 256,0,1
 238 -12 238 -12 176.5 15 c 128,-1,2
 115 42 115 42 69 87 c 1,3,-1
 120 146 l 1,4,5
 158 108 158 108 208.5 85 c 128,-1,6
 259 62 259 62 316 62 c 0,7,8
 386 62 386 62 424.5 92 c 128,-1,9
 463 122 463 122 463 169 c 0,10,11
 463 205 463 205 447 226.5 c 128,-1,12
 431 248 431 248 404 262 c 128,-1,13
 377 276 377 276 342 291 c 2,14,-1
 246 333 l 2,15,16
 212 347 212 347 178.5 368.5 c 128,-1,17
 145 390 145 390 122.5 423.5 c 128,-1,18
 100 457 100 457 100 506 c 0,19,20
 100 557 100 557 128.5 597.5 c 128,-1,21
 157 638 157 638 207 661 c 128,-1,22
 257 684 257 684 321 684 c 256,23,24
 384 684 384 684 437 661 c 128,-1,25
 490 638 490 638 527 601 c 1,26,-1
 482 546 l 1,27,28
 449 576 449 576 409.5 592.5 c 128,-1,29
 370 609 370 609 317 609 c 0,30,31
 259 609 259 609 223 583 c 128,-1,32
 187 557 187 557 187 511 c 0,33,34
 187 479 187 479 205 458.5 c 128,-1,35
 223 438 223 438 251 425 c 128,-1,36
 279 412 279 412 307 399 c 2,37,-1
 401 358 l 2,38,39
 443 342 443 342 477 319 c 128,-1,40
 511 296 511 296 530.5 262 c 128,-1,41
 550 228 550 228 550 179 c 0,42,43
 550 126 550 126 521.5 82.5 c 128,-1,44
 493 39 493 39 439.5 13.5 c 128,-1,45
 386 -12 386 -12 312 -12 c 256,0,1
EndSplineSet
Validated: 1
EndChar

StartChar: T
Encoding: 84 84 21
Width: 614
GlyphClass: 2
Flags: W
AnchorPoint: "Anchor-3" 307 -20 basechar 0
AnchorPoint: "Anchor-2" 307 0 basechar 0
AnchorPoint: "Anchor-0" 307 692 basechar 0
LayerCount: 2
Fore
SplineSet
264 0 m 1,0,-1
 264 600 l 1,1,-1
 43 600 l 1,2,-1
 43 672 l 1,3,-1
 571 672 l 1,4,-1
 571 600 l 1,5,-1
 350 600 l 1,6,-1
 350 0 l 1,7,-1
 264 0 l 1,0,-1
EndSplineSet
Validated: 1
EndChar

StartChar: U
Encoding: 85 85 22
Width: 614
GlyphClass: 2
Flags: W
AnchorPoint: "Anchor-6" 307 0 basechar 0
AnchorPoint: "Anchor-5" 515 682 basechar 0
AnchorPoint: "Anchor-3" 307 -20 basechar 0
AnchorPoint: "Anchor-2" 307 0 basechar 0
AnchorPoint: "Anchor-0" 307 692 basechar 0
LayerCount: 2
Fore
SplineSet
308 -12 m 256,0,1
 259 -12 259 -12 217.5 2.5 c 128,-1,2
 176 17 176 17 145.5 48.5 c 128,-1,3
 115 80 115 80 98 131 c 128,-1,4
 81 182 81 182 81 254 c 2,5,-1
 81 672 l 1,6,-1
 167 672 l 1,7,-1
 167 252 l 2,8,9
 167 182 167 182 185.5 140.5 c 128,-1,10
 204 99 204 99 236 80.5 c 128,-1,11
 268 62 268 62 308 62 c 0,12,13
 349 62 349 62 381.5 80.5 c 128,-1,14
 414 99 414 99 432.5 140.5 c 128,-1,15
 451 182 451 182 451 252 c 2,16,-1
 451 672 l 1,17,-1
 534 672 l 1,18,-1
 534 254 l 2,19,20
 534 182 534 182 517 131 c 128,-1,21
 500 80 500 80 469.5 48.5 c 128,-1,22
 439 17 439 17 398 2.5 c 128,-1,23
 357 -12 357 -12 308 -12 c 256,0,1
EndSplineSet
Validated: 1
EndChar

StartChar: V
Encoding: 86 86 23
Width: 614
GlyphClass: 2
Flags: W
AnchorPoint: "Anchor-3" 309 -20 basechar 0
AnchorPoint: "Anchor-0" 307 692 basechar 0
LayerCount: 2
Fore
SplineSet
258 0 m 1,0,-1
 44 672 l 1,1,-1
 134 672 l 1,2,-1
 243 309 l 2,3,4
 261 250 261 250 275 198 c 128,-1,5
 289 146 289 146 307 87 c 1,6,-1
 311 87 l 1,7,8
 330 146 330 146 344 198 c 128,-1,9
 358 250 358 250 376 309 c 2,10,-1
 483 672 l 1,11,-1
 570 672 l 1,12,-1
 357 0 l 1,13,-1
 258 0 l 1,0,-1
EndSplineSet
Validated: 1
EndChar

StartChar: W
Encoding: 87 87 24
Width: 614
GlyphClass: 2
Flags: W
AnchorPoint: "Anchor-3" 310 -20 basechar 0
AnchorPoint: "Anchor-0" 307 692 basechar 0
LayerCount: 2
Fore
SplineSet
113 0 m 1,0,-1
 10 673 l 1,1,-1
 106 673 l 1,2,-1
 156 251 l 2,3,4
 159 223 159 223 161.5 200 c 128,-1,5
 164 177 164 177 166 153 c 128,-1,6
 168 129 168 129 169 95 c 1,7,-1
 172 95 l 1,8,9
 178 129 178 129 183 153 c 128,-1,10
 188 177 188 177 193.5 199.5 c 128,-1,11
 199 222 199 222 205 250 c 2,12,-1
 270 500 l 1,13,-1
 352 500 l 1,14,-1
 416 250 l 2,15,16
 423 222 423 222 428 199.5 c 128,-1,17
 433 177 433 177 437.5 153 c 128,-1,18
 442 129 442 129 449 95 c 1,19,-1
 453 95 l 1,20,21
 455 129 455 129 456.5 153 c 128,-1,22
 458 177 458 177 460 199.5 c 128,-1,23
 462 222 462 222 465 250 c 2,24,-1
 512 673 l 1,25,-1
 604 673 l 1,26,-1
 506 0 l 1,27,-1
 399 0 l 1,28,-1
 334 270 l 2,29,30
 327 301 327 301 320.5 330.5 c 128,-1,31
 314 360 314 360 309 391 c 1,32,-1
 306 391 l 1,33,34
 301 360 301 360 296 330.5 c 128,-1,35
 291 301 291 301 283 270 c 2,36,-1
 217 0 l 1,37,-1
 113 0 l 1,0,-1
EndSplineSet
Validated: 1
EndChar

StartChar: X
Encoding: 88 88 25
Width: 614
GlyphClass: 2
Flags: W
AnchorPoint: "Anchor-3" 307 -20 basechar 0
AnchorPoint: "Anchor-2" 507 0 basechar 0
AnchorPoint: "Anchor-0" 307 692 basechar 0
LayerCount: 2
Fore
SplineSet
55 0 m 1,0,-1
 256 347 l 1,1,-1
 69 672 l 1,2,-1
 163 672 l 1,3,-1
 257 500 l 2,4,5
 270 477 270 477 282.5 454.5 c 128,-1,6
 295 432 295 432 311 402 c 1,7,-1
 315 402 l 1,8,9
 328 432 328 432 339.5 454.5 c 128,-1,10
 351 477 351 477 364 500 c 2,11,-1
 456 672 l 1,12,-1
 546 672 l 1,13,-1
 358 343 l 1,14,-1
 559 0 l 1,15,-1
 465 0 l 1,16,-1
 364 181 l 2,17,18
 351 206 351 206 336 232 c 128,-1,19
 321 258 321 258 304 289 c 1,20,-1
 300 289 l 1,21,22
 286 258 286 258 272.5 232 c 128,-1,23
 259 206 259 206 246 181 c 2,24,-1
 145 0 l 1,25,-1
 55 0 l 1,0,-1
EndSplineSet
Validated: 1
EndChar

StartChar: Y
Encoding: 89 89 26
Width: 614
GlyphClass: 2
Flags: W
AnchorPoint: "Anchor-6" 307 0 basechar 0
AnchorPoint: "Anchor-3" 307 -20 basechar 0
AnchorPoint: "Anchor-0" 307 692 basechar 0
LayerCount: 2
Fore
SplineSet
264 0 m 1,0,-1
 264 240 l 1,1,-1
 39 672 l 1,2,-1
 129 672 l 1,3,-1
 230 472 l 2,4,5
 249 434 249 434 268 395 c 128,-1,6
 287 356 287 356 307 315 c 1,7,-1
 311 315 l 1,8,9
 331 356 331 356 351 395 c 128,-1,10
 371 434 371 434 390 473 c 2,11,-1
 487 672 l 1,12,-1
 575 672 l 1,13,-1
 350 240 l 1,14,-1
 350 0 l 1,15,-1
 264 0 l 1,0,-1
EndSplineSet
Validated: 1
EndChar

StartChar: Z
Encoding: 90 90 27
Width: 614
GlyphClass: 2
Flags: W
AnchorPoint: "Anchor-3" 324 -20 basechar 0
AnchorPoint: "Anchor-2" 328 0 basechar 0
AnchorPoint: "Anchor-0" 325 692 basechar 0
LayerCount: 2
Fore
SplineSet
67 0 m 1,0,-1
 67 51 l 1,1,-1
 441 601 l 1,2,-1
 99 601 l 1,3,-1
 99 673 l 1,4,-1
 547 673 l 1,5,-1
 547 622 l 1,6,-1
 171 73 l 1,7,-1
 552 73 l 1,8,-1
 552 0 l 1,9,-1
 67 0 l 1,0,-1
EndSplineSet
Validated: 1
EndChar

StartChar: a
Encoding: 97 97 28
Width: 614
GlyphClass: 2
Flags: W
AnchorPoint: "Anchor-6" 446 0 basechar 0
AnchorPoint: "Anchor-3" 307 -20 basechar 0
AnchorPoint: "Anchor-2" 484 0 basechar 0
AnchorPoint: "Anchor-0" 328 519 basechar 0
LayerCount: 2
Fore
SplineSet
252 -12 m 0,0,1
 206 -12 206 -12 167 5 c 128,-1,2
 128 22 128 22 105.5 53.5 c 128,-1,3
 83 85 83 85 83 129 c 0,4,5
 83 213 83 213 167 256.5 c 128,-1,6
 251 300 251 300 443 315 c 1,7,8
 442 349 442 349 429.5 378 c 128,-1,9
 417 407 417 407 388 423.5 c 128,-1,10
 359 440 359 440 311 440 c 0,11,12
 279 440 279 440 248 431.5 c 128,-1,13
 217 423 217 423 189 409 c 128,-1,14
 161 395 161 395 137 381 c 1,15,-1
 104 438 l 1,16,17
 129 454 129 454 164.5 471 c 128,-1,18
 200 488 200 488 241 499 c 128,-1,19
 282 510 282 510 326 510 c 0,20,21
 395 510 395 510 439 484.5 c 128,-1,22
 483 459 483 459 505 413.5 c 128,-1,23
 527 368 527 368 527 305 c 2,24,-1
 527 0 l 1,25,-1
 459 0 l 1,26,-1
 452 68 l 1,27,-1
 449 68 l 1,28,29
 408 35 408 35 356.5 11.5 c 128,-1,30
 305 -12 305 -12 252 -12 c 0,0,1
274 55 m 0,31,32
 317 55 317 55 359 74.5 c 128,-1,33
 401 94 401 94 443 129 c 1,34,-1
 443 260 l 1,35,36
 337 251 337 251 276 234.5 c 128,-1,37
 215 218 215 218 190 193 c 128,-1,38
 165 168 165 168 165 135 c 0,39,40
 165 107 165 107 180.5 89.5 c 128,-1,41
 196 72 196 72 220.5 63.5 c 128,-1,42
 245 55 245 55 274 55 c 0,31,32
EndSplineSet
Validated: 1
Substitution2: "'ss02' Style Set 2 lookup 29 subtable" a.a
Substitution2: "'sups' Superscript lookup 23 subtable" a.sups
EndChar

StartChar: b
Encoding: 98 98 29
Width: 614
GlyphClass: 2
Flags: W
AnchorPoint: "Anchor-3" 317 -20 basechar 0
AnchorPoint: "Anchor-0" 140 754 basechar 0
LayerCount: 2
Fore
SplineSet
328 -12 m 0,0,1
 291 -12 291 -12 249.5 6 c 128,-1,2
 208 24 208 24 173 55 c 1,3,-1
 170 55 l 1,4,-1
 163 0 l 1,5,-1
 95 0 l 1,6,-1
 95 729 l 1,7,-1
 179 729 l 1,8,-1
 179 530 l 1,9,-1
 176 434 l 1,10,-1
 179 434 l 1,11,12
 213 469 213 469 257.5 489.5 c 128,-1,13
 302 510 302 510 346 510 c 0,14,15
 414 510 414 510 460 478.5 c 128,-1,16
 506 447 506 447 529.5 390.5 c 128,-1,17
 553 334 553 334 553 257 c 0,18,19
 553 172 553 172 521.5 111.5 c 128,-1,20
 490 51 490 51 439 19.5 c 128,-1,21
 388 -12 388 -12 328 -12 c 0,0,1
314 58 m 0,22,23
 357 58 357 58 391.5 81.5 c 128,-1,24
 426 105 426 105 446 150 c 128,-1,25
 466 195 466 195 466 256 c 0,26,27
 466 310 466 310 451.5 351.5 c 128,-1,28
 437 393 437 393 406.5 416 c 128,-1,29
 376 439 376 439 326 439 c 0,30,31
 292 439 292 439 254.5 421 c 128,-1,32
 217 403 217 403 179 365 c 1,33,-1
 179 117 l 1,34,35
 215 85 215 85 251 71.5 c 128,-1,36
 287 58 287 58 314 58 c 0,22,23
EndSplineSet
Validated: 1
Substitution2: "'sups' Superscript lookup 23 subtable" b.sups
EndChar

StartChar: c
Encoding: 99 99 30
Width: 614
GlyphClass: 2
Flags: W
AnchorPoint: "Anchor-3" 348 -20 basechar 0
AnchorPoint: "Anchor-2" 354 0 basechar 0
AnchorPoint: "Anchor-0" 354 519 basechar 0
LayerCount: 2
Fore
SplineSet
354 -12 m 0,0,1
 276 -12 276 -12 214.5 18.5 c 128,-1,2
 153 49 153 49 117.5 107.5 c 128,-1,3
 82 166 82 166 82 248 c 0,4,5
 82 332 82 332 120 390.5 c 128,-1,6
 158 449 158 449 221 479.5 c 128,-1,7
 284 510 284 510 359 510 c 0,8,9
 420 510 420 510 465 488.5 c 128,-1,10
 510 467 510 467 541 437 c 1,11,-1
 499 383 l 1,12,13
 468 410 468 410 435 425 c 128,-1,14
 402 440 402 440 362 440 c 0,15,16
 305 440 305 440 261 416 c 128,-1,17
 217 392 217 392 193 348.5 c 128,-1,18
 169 305 169 305 169 248 c 0,19,20
 169 192 169 192 192.5 148.5 c 128,-1,21
 216 105 216 105 259.5 81 c 128,-1,22
 303 57 303 57 360 57 c 0,23,24
 406 57 406 57 444.5 75.5 c 128,-1,25
 483 94 483 94 514 120 c 1,26,-1
 552 66 l 1,27,28
 511 29 511 29 460 8.5 c 128,-1,29
 409 -12 409 -12 354 -12 c 0,0,1
EndSplineSet
Validated: 1
Substitution2: "'sups' Superscript lookup 23 subtable" c.sups
EndChar

StartChar: d
Encoding: 100 100 31
Width: 614
GlyphClass: 2
Flags: W
AnchorPoint: "Anchor-3" 311 -20 basechar 0
AnchorPoint: "Anchor-2" 302 0 basechar 0
AnchorPoint: "Anchor-0" 470 754 basechar 0
LayerCount: 2
Fore
SplineSet
278 -12 m 0,0,1
 181 -12 181 -12 121 56 c 128,-1,2
 61 124 61 124 61 248 c 0,3,4
 61 329 61 329 93.5 387.5 c 128,-1,5
 126 446 126 446 177.5 478 c 128,-1,6
 229 510 229 510 288 510 c 0,7,8
 332 510 332 510 368 493 c 128,-1,9
 404 476 404 476 436 445 c 1,10,-1
 439 445 l 1,11,-1
 435 538 l 1,12,-1
 435 729 l 1,13,-1
 519 729 l 1,14,-1
 519 0 l 1,15,-1
 450 0 l 1,16,-1
 442 66 l 1,17,-1
 439 66 l 1,18,19
 409 34 409 34 367 11 c 128,-1,20
 325 -12 325 -12 278 -12 c 0,0,1
295 58 m 0,21,22
 332 58 332 58 366.5 77 c 128,-1,23
 401 96 401 96 435 133 c 1,24,-1
 435 381 l 1,25,26
 401 413 401 413 369 426 c 128,-1,27
 337 439 337 439 304 439 c 0,28,29
 261 439 261 439 225.5 415 c 128,-1,30
 190 391 190 391 169 348.5 c 128,-1,31
 148 306 148 306 148 249 c 0,32,33
 148 160 148 160 187 109 c 128,-1,34
 226 58 226 58 295 58 c 0,21,22
EndSplineSet
Validated: 1
Substitution2: "'sups' Superscript lookup 23 subtable" d.sups
EndChar

StartChar: e
Encoding: 101 101 32
Width: 614
GlyphClass: 2
Flags: W
AnchorPoint: "Anchor-6" 414 0 basechar 0
AnchorPoint: "Anchor-3" 324 -20 basechar 0
AnchorPoint: "Anchor-2" 324 0 basechar 0
AnchorPoint: "Anchor-0" 324 519 basechar 0
LayerCount: 2
Fore
SplineSet
338 -12 m 0,0,1
 263 -12 263 -12 202 18.5 c 128,-1,2
 141 49 141 49 105.5 108 c 128,-1,3
 70 167 70 167 70 250 c 0,4,5
 70 331 70 331 105.5 389 c 128,-1,6
 141 447 141 447 199 478.5 c 128,-1,7
 257 510 257 510 324 510 c 0,8,9
 396 510 396 510 446.5 481 c 128,-1,10
 497 452 497 452 524 399.5 c 128,-1,11
 551 347 551 347 551 276 c 0,12,13
 551 262 551 262 550 249 c 128,-1,14
 549 236 549 236 547 225 c 1,15,-1
 126 225 l 1,16,-1
 126 291 l 1,17,-1
 497 291 l 1,18,-1
 475 267 l 1,19,20
 475 355 475 355 434.5 399 c 128,-1,21
 394 443 394 443 326 443 c 0,22,23
 280 443 280 443 240.5 420.5 c 128,-1,24
 201 398 201 398 177.5 355 c 128,-1,25
 154 312 154 312 154 250 c 0,26,27
 154 185 154 185 179.5 142 c 128,-1,28
 205 99 205 99 249 77 c 128,-1,29
 293 55 293 55 348 55 c 0,30,31
 393 55 393 55 429.5 68 c 128,-1,32
 466 81 466 81 500 102 c 1,33,-1
 530 47 l 1,34,35
 493 22 493 22 445.5 5 c 128,-1,36
 398 -12 398 -12 338 -12 c 0,0,1
EndSplineSet
Validated: 5
Substitution2: "'sups' Superscript lookup 23 subtable" e.sups
EndChar

StartChar: f
Encoding: 102 102 33
Width: 614
GlyphClass: 2
Flags: W
AnchorPoint: "Anchor-3" 298 -20 basechar 0
AnchorPoint: "Anchor-2" 305 0 basechar 0
AnchorPoint: "Anchor-0" 430 754 basechar 0
LayerCount: 2
Fore
SplineSet
248 0 m 1,0,-1
 248 540 l 2,1,2
 248 600 248 600 270 645.5 c 128,-1,3
 292 691 292 691 336 716 c 128,-1,4
 380 741 380 741 449 741 c 0,5,6
 486 741 486 741 521 734.5 c 128,-1,7
 556 728 556 728 592 713 c 1,8,-1
 572 649 l 1,9,10
 541 663 541 663 515 668 c 128,-1,11
 489 673 489 673 457 673 c 0,12,13
 390 673 390 673 360.5 638 c 128,-1,14
 331 603 331 603 331 543 c 2,15,-1
 331 0 l 1,16,-1
 248 0 l 1,0,-1
105 429 m 1,17,-1
 105 493 l 1,18,-1
 251 498 l 1,19,-1
 540 498 l 1,20,-1
 540 429 l 1,21,-1
 105 429 l 1,17,-1
EndSplineSet
Validated: 5
Substitution2: "'sups' Superscript lookup 23 subtable" f.sups
EndChar

StartChar: g
Encoding: 103 103 34
Width: 614
GlyphClass: 2
Flags: W
AnchorPoint: "Anchor-3" 315 -224 basechar 0
AnchorPoint: "Anchor-0" 314 519 basechar 0
LayerCount: 2
Fore
SplineSet
303 -229 m 0,0,1
 230 -229 230 -229 179 -213 c 128,-1,2
 128 -197 128 -197 101 -166 c 128,-1,3
 74 -135 74 -135 74 -91 c 0,4,5
 74 -61 74 -61 95 -32 c 128,-1,6
 116 -3 116 -3 156 19 c 1,7,-1
 156 24 l 1,8,9
 137 35 137 35 120.5 54.5 c 128,-1,10
 104 74 104 74 104 105 c 0,11,12
 104 129 104 129 119.5 154 c 128,-1,13
 135 179 135 179 164 199 c 1,14,-1
 164 203 l 1,15,16
 138 222 138 222 120 255 c 128,-1,17
 102 288 102 288 102 332 c 0,18,19
 102 386 102 386 129.5 426 c 128,-1,20
 157 466 157 466 201.5 488 c 128,-1,21
 246 510 246 510 298 510 c 0,22,23
 340 510 340 510 372 498 c 1,24,-1
 578 498 l 1,25,-1
 578 429 l 1,26,-1
 449 429 l 1,27,28
 466 412 466 412 478 385 c 128,-1,29
 490 358 490 358 490 329 c 0,30,31
 490 276 490 276 464.5 237.5 c 128,-1,32
 439 199 439 199 395.5 178.5 c 128,-1,33
 352 158 352 158 298 158 c 0,34,35
 279 158 279 158 256.5 162.5 c 128,-1,36
 234 167 234 167 214 176 c 1,37,38
 196 165 196 165 185.5 150.5 c 128,-1,39
 175 136 175 136 175 119 c 0,40,41
 175 90 175 90 202 75.5 c 128,-1,42
 229 61 229 61 279 61 c 2,43,-1
 390 61 l 2,44,45
 486 61 486 61 533 34.5 c 128,-1,46
 580 8 580 8 580 -55 c 0,47,48
 580 -101 580 -101 546 -141 c 128,-1,49
 512 -181 512 -181 450 -205 c 128,-1,50
 388 -229 388 -229 303 -229 c 0,0,1
298 214 m 0,51,52
 330 214 330 214 356 228.5 c 128,-1,53
 382 243 382 243 397.5 269.5 c 128,-1,54
 413 296 413 296 413 332 c 0,55,56
 413 367 413 367 397.5 393 c 128,-1,57
 382 419 382 419 356 434 c 128,-1,58
 330 449 330 449 298 449 c 0,59,60
 267 449 267 449 241 434 c 128,-1,61
 215 419 215 419 199 393 c 128,-1,62
 183 367 183 367 183 332 c 0,63,64
 183 296 183 296 199 269.5 c 128,-1,65
 215 243 215 243 241 228.5 c 128,-1,66
 267 214 267 214 298 214 c 0,51,52
309 -168 m 0,67,68
 367 -168 367 -168 409.5 -153.5 c 128,-1,69
 452 -139 452 -139 474.5 -116.5 c 128,-1,70
 497 -94 497 -94 497 -69 c 0,71,72
 497 -33 497 -33 468.5 -20.5 c 128,-1,73
 440 -8 440 -8 383 -8 c 2,74,-1
 286 -8 l 2,75,76
 264 -8 264 -8 245 -6 c 128,-1,77
 226 -4 226 -4 210 0 c 1,78,79
 175 -19 175 -19 160.5 -40 c 128,-1,80
 146 -61 146 -61 146 -83 c 0,81,82
 146 -122 146 -122 187.5 -145 c 128,-1,83
 229 -168 229 -168 309 -168 c 0,67,68
EndSplineSet
Validated: 1
Substitution2: "'ss03' Style Set 3 lookup 30 subtable" g.a
Substitution2: "'sups' Superscript lookup 23 subtable" g.sups
EndChar

StartChar: h
Encoding: 104 104 35
Width: 614
GlyphClass: 2
Flags: W
AnchorPoint: "Anchor-3" 322 -20 basechar 0
AnchorPoint: "Anchor-2" 137 0 basechar 0
AnchorPoint: "Anchor-0" 134 754 basechar 0
LayerCount: 2
Fore
SplineSet
95 0 m 1,0,-1
 95 729 l 1,1,-1
 179 729 l 1,2,-1
 179 530 l 1,3,-1
 174 413 l 1,4,-1
 177 413 l 1,5,6
 215 454 215 454 260 482 c 128,-1,7
 305 510 305 510 364 510 c 0,8,9
 452 510 452 510 494 459 c 128,-1,10
 536 408 536 408 536 309 c 2,11,-1
 536 0 l 1,12,-1
 452 0 l 1,13,-1
 452 298 l 2,14,15
 452 369 452 369 425 403 c 128,-1,16
 398 437 398 437 337 437 c 0,17,18
 293 437 293 437 258 414.5 c 128,-1,19
 223 392 223 392 179 347 c 1,20,-1
 179 0 l 1,21,-1
 95 0 l 1,0,-1
EndSplineSet
Validated: 1
Substitution2: "'sups' Superscript lookup 23 subtable" h.sups
EndChar

StartChar: k
Encoding: 107 107 38
Width: 614
GlyphClass: 2
Flags: W
AnchorPoint: "Anchor-3" 343 -20 basechar 0
AnchorPoint: "Anchor-0" 182 754 basechar 0
LayerCount: 2
Fore
SplineSet
109 0 m 1,0,-1
 109 729 l 1,1,-1
 193 729 l 1,2,-1
 193 236 l 1,3,-1
 197 236 l 1,4,-1
 465 498 l 1,5,-1
 561 498 l 1,6,-1
 193 135 l 1,7,-1
 193 0 l 1,8,-1
 109 0 l 1,0,-1
494 0 m 1,9,-1
 299 265 l 1,10,-1
 350 319 l 1,11,-1
 588 0 l 1,12,-1
 494 0 l 1,9,-1
EndSplineSet
Validated: 5
Substitution2: "'sups' Superscript lookup 23 subtable" k.sups
EndChar

StartChar: l
Encoding: 108 108 39
Width: 614
GlyphClass: 2
Flags: W
AnchorPoint: "Anchor-4" 295 394 basechar 0
AnchorPoint: "Anchor-3" 394 -20 basechar 0
AnchorPoint: "Anchor-2" 372 0 basechar 0
AnchorPoint: "Anchor-0" 292 754 basechar 0
LayerCount: 2
Fore
SplineSet
416 -12 m 0,0,1
 337 -12 337 -12 295 33.5 c 128,-1,2
 253 79 253 79 253 167 c 2,3,-1
 253 660 l 1,4,-1
 83 660 l 1,5,-1
 83 729 l 1,6,-1
 337 729 l 1,7,-1
 337 161 l 2,8,9
 337 107 337 107 363.5 82 c 128,-1,10
 390 57 390 57 434 57 c 0,11,12
 456 57 456 57 478.5 63 c 128,-1,13
 501 69 501 69 528 81 c 1,14,-1
 550 17 l 1,15,16
 516 5 516 5 486.5 -3.5 c 128,-1,17
 457 -12 457 -12 416 -12 c 0,0,1
EndSplineSet
Validated: 1
Substitution2: "'ss04' Style Set 4 lookup 31 subtable" l.a
Substitution2: "'sups' Superscript lookup 23 subtable" l.sups
EndChar

StartChar: m
Encoding: 109 109 40
Width: 614
GlyphClass: 2
Flags: W
AnchorPoint: "Anchor-3" 315 -20 basechar 0
AnchorPoint: "Anchor-2" 526 0 basechar 0
AnchorPoint: "Anchor-0" 323 520 basechar 0
LayerCount: 2
Fore
SplineSet
59 0 m 1,0,-1
 59 498 l 1,1,-1
 127 498 l 1,2,-1
 134 432 l 1,3,-1
 136 432 l 1,4,5
 155 467 155 467 181 488.5 c 128,-1,6
 207 510 207 510 250 510 c 0,7,8
 287 510 287 510 310.5 488.5 c 128,-1,9
 334 467 334 467 344 424 c 1,10,11
 366 464 366 464 392 487 c 128,-1,12
 418 510 418 510 461 510 c 0,13,14
 513 510 513 510 542 470.5 c 128,-1,15
 571 431 571 431 571 356 c 2,16,-1
 571 0 l 1,17,-1
 487 0 l 1,18,-1
 487 350 l 2,19,20
 487 437 487 437 434 437 c 0,21,22
 408 437 408 437 391.5 418 c 128,-1,23
 375 399 375 399 354 360 c 1,24,-1
 354 0 l 1,25,-1
 276 0 l 1,26,-1
 276 350 l 2,27,28
 276 393 276 393 264.5 415 c 128,-1,29
 253 437 253 437 225 437 c 0,30,31
 199 437 199 437 180.5 418 c 128,-1,32
 162 399 162 399 143 360 c 1,33,-1
 143 0 l 1,34,-1
 59 0 l 1,0,-1
EndSplineSet
Validated: 1
Substitution2: "'sups' Superscript lookup 23 subtable" m.sups
EndChar

StartChar: n
Encoding: 110 110 41
Width: 614
GlyphClass: 2
Flags: W
AnchorPoint: "Anchor-3" 321 -20 basechar 0
AnchorPoint: "Anchor-2" 492 0 basechar 0
AnchorPoint: "Anchor-0" 326 519 basechar 0
LayerCount: 2
Fore
SplineSet
95 0 m 1,0,-1
 95 498 l 1,1,-1
 165 498 l 1,2,-1
 172 413 l 1,3,-1
 176 413 l 1,4,5
 215 455 215 455 260 482.5 c 128,-1,6
 305 510 305 510 364 510 c 0,7,8
 452 510 452 510 494 459 c 128,-1,9
 536 408 536 408 536 309 c 2,10,-1
 536 0 l 1,11,-1
 452 0 l 1,12,-1
 452 298 l 2,13,14
 452 369 452 369 425 403 c 128,-1,15
 398 437 398 437 337 437 c 0,16,17
 293 437 293 437 258 414.5 c 128,-1,18
 223 392 223 392 179 347 c 1,19,-1
 179 0 l 1,20,-1
 95 0 l 1,0,-1
EndSplineSet
Validated: 1
Substitution2: "'sups' Superscript lookup 23 subtable" n.sups
EndChar

StartChar: o
Encoding: 111 111 42
Width: 614
GlyphClass: 2
Flags: W
AnchorPoint: "Anchor-6" 307 0 basechar 0
AnchorPoint: "Anchor-5" 421 498 basechar 0
AnchorPoint: "Anchor-3" 307 -20 basechar 0
AnchorPoint: "Anchor-2" 307 0 basechar 0
AnchorPoint: "Anchor-0" 307 519 basechar 0
LayerCount: 2
Fore
SplineSet
307 -12 m 256,0,1
 241 -12 241 -12 185.5 18.5 c 128,-1,2
 130 49 130 49 95.5 107.5 c 128,-1,3
 61 166 61 166 61 248 c 0,4,5
 61 332 61 332 95.5 390.5 c 128,-1,6
 130 449 130 449 186 479.5 c 128,-1,7
 242 510 242 510 307 510 c 256,8,9
 373 510 373 510 428.5 479.5 c 128,-1,10
 484 449 484 449 518.5 390.5 c 128,-1,11
 553 332 553 332 553 248 c 0,12,13
 553 166 553 166 518.5 107.5 c 128,-1,14
 484 49 484 49 428.5 18.5 c 128,-1,15
 373 -12 373 -12 307 -12 c 256,0,1
307 57 m 256,16,17
 355 57 355 57 391 81 c 128,-1,18
 427 105 427 105 446.5 148 c 128,-1,19
 466 191 466 191 466 248 c 0,20,21
 466 305 466 305 446.5 348.5 c 128,-1,22
 427 392 427 392 391 416 c 128,-1,23
 355 440 355 440 307 440 c 256,24,25
 259 440 259 440 223.5 416 c 128,-1,26
 188 392 188 392 168 348.5 c 128,-1,27
 148 305 148 305 148 248 c 0,28,29
 148 192 148 192 168 148.5 c 128,-1,30
 188 105 188 105 223.5 81 c 128,-1,31
 259 57 259 57 307 57 c 256,16,17
EndSplineSet
Validated: 1
Substitution2: "'sups' Superscript lookup 23 subtable" o.sups
EndChar

StartChar: p
Encoding: 112 112 43
Width: 614
GlyphClass: 2
Flags: W
AnchorPoint: "Anchor-3" 140 -224 basechar 0
AnchorPoint: "Anchor-0" 329 519 basechar 0
LayerCount: 2
Fore
SplineSet
95 -210 m 1,0,-1
 95 498 l 1,1,-1
 165 498 l 1,2,-1
 172 434 l 1,3,-1
 175 434 l 1,4,5
 210 467 210 467 255.5 488.5 c 128,-1,6
 301 510 301 510 347 510 c 0,7,8
 415 510 415 510 460.5 478.5 c 128,-1,9
 506 447 506 447 529.5 390.5 c 128,-1,10
 553 334 553 334 553 256 c 0,11,12
 553 172 553 172 521 111.5 c 128,-1,13
 489 51 489 51 438 19.5 c 128,-1,14
 387 -12 387 -12 327 -12 c 0,15,16
 293 -12 293 -12 252.5 5 c 128,-1,17
 212 22 212 22 178 52 c 1,18,-1
 175 52 l 1,19,-1
 179 -42 l 1,20,-1
 179 -210 l 1,21,-1
 95 -210 l 1,0,-1
312 58 m 0,22,23
 356 58 356 58 391 81.5 c 128,-1,24
 426 105 426 105 446 150 c 128,-1,25
 466 195 466 195 466 256 c 0,26,27
 466 310 466 310 451.5 351.5 c 128,-1,28
 437 393 437 393 406.5 416 c 128,-1,29
 376 439 376 439 326 439 c 0,30,31
 292 439 292 439 254.5 421 c 128,-1,32
 217 403 217 403 179 365 c 1,33,-1
 179 117 l 1,34,35
 215 85 215 85 251 71.5 c 128,-1,36
 287 58 287 58 312 58 c 0,22,23
EndSplineSet
Validated: 1
Substitution2: "'sups' Superscript lookup 23 subtable" p.sups
EndChar

StartChar: q
Encoding: 113 113 44
Width: 614
GlyphClass: 2
Flags: W
AnchorPoint: "Anchor-3" 472 -224 basechar 0
AnchorPoint: "Anchor-0" 311 519 basechar 0
LayerCount: 2
Fore
SplineSet
435 -210 m 1,0,-1
 435 -29 l 1,1,-1
 439 63 l 1,2,-1
 436 63 l 1,3,4
 406 31 406 31 364.5 9.5 c 128,-1,5
 323 -12 323 -12 276 -12 c 0,6,7
 180 -12 180 -12 120.5 56 c 128,-1,8
 61 124 61 124 61 248 c 0,9,10
 61 329 61 329 93.5 387.5 c 128,-1,11
 126 446 126 446 177.5 478 c 128,-1,12
 229 510 229 510 288 510 c 0,13,14
 333 510 333 510 370 493 c 128,-1,15
 407 476 407 476 441 442 c 1,16,-1
 444 442 l 1,17,-1
 452 498 l 1,18,-1
 519 498 l 1,19,-1
 519 -210 l 1,20,-1
 435 -210 l 1,0,-1
295 58 m 0,21,22
 332 58 332 58 366.5 77 c 128,-1,23
 401 96 401 96 435 133 c 1,24,-1
 435 381 l 1,25,26
 401 413 401 413 369 426 c 128,-1,27
 337 439 337 439 304 439 c 0,28,29
 261 439 261 439 225.5 415 c 128,-1,30
 190 391 190 391 169 348.5 c 128,-1,31
 148 306 148 306 148 249 c 0,32,33
 148 160 148 160 187 109 c 128,-1,34
 226 58 226 58 295 58 c 0,21,22
EndSplineSet
Validated: 1
Substitution2: "'sups' Superscript lookup 23 subtable" q.sups
EndChar

StartChar: r
Encoding: 114 114 45
Width: 614
GlyphClass: 2
Flags: W
AnchorPoint: "Anchor-3" 196 -20 basechar 0
AnchorPoint: "Anchor-2" 187 0 basechar 0
AnchorPoint: "Anchor-0" 365 519 basechar 0
LayerCount: 2
Fore
SplineSet
150 0 m 1,0,-1
 150 498 l 1,1,-1
 219 498 l 1,2,-1
 226 380 l 1,3,-1
 229 380 l 1,4,5
 268 440 268 440 325.5 475 c 128,-1,6
 383 510 383 510 452 510 c 0,7,8
 480 510 480 510 503.5 505.5 c 128,-1,9
 527 501 527 501 550 489 c 1,10,-1
 530 417 l 1,11,12
 504 426 504 426 486 430 c 128,-1,13
 468 434 468 434 438 434 c 0,14,15
 382 434 382 434 330.5 402 c 128,-1,16
 279 370 279 370 233 292 c 1,17,-1
 233 0 l 1,18,-1
 150 0 l 1,0,-1
EndSplineSet
Validated: 1
Substitution2: "'sups' Superscript lookup 23 subtable" r.sups
EndChar

StartChar: s
Encoding: 115 115 46
Width: 614
GlyphClass: 2
Flags: W
AnchorPoint: "Anchor-3" 316 -20 basechar 0
AnchorPoint: "Anchor-2" 322 0 basechar 0
AnchorPoint: "Anchor-0" 310 519 basechar 0
LayerCount: 2
Fore
SplineSet
317 -12 m 0,0,1
 244 -12 244 -12 181 11.5 c 128,-1,2
 118 35 118 35 73 66 c 1,3,-1
 112 121 l 1,4,5
 155 90 155 90 207 71.5 c 128,-1,6
 259 53 259 53 328 53 c 0,7,8
 391 53 391 53 422.5 76.5 c 128,-1,9
 454 100 454 100 454 131 c 0,10,11
 454 145 454 145 448 157.5 c 128,-1,12
 442 170 442 170 426.5 181.5 c 128,-1,13
 411 193 411 193 380 203 c 128,-1,14
 349 213 349 213 298 223 c 0,15,16
 201 243 201 243 152 278 c 128,-1,17
 103 313 103 313 103 369 c 0,18,19
 103 429 103 429 155.5 469.5 c 128,-1,20
 208 510 208 510 310 510 c 0,21,22
 367 510 367 510 420.5 491 c 128,-1,23
 474 472 474 472 511 446 c 1,24,-1
 470 392 l 1,25,26
 436 417 436 417 393 430.5 c 128,-1,27
 350 444 350 444 303 444 c 0,28,29
 260 444 260 444 235 434.5 c 128,-1,30
 210 425 210 425 199 408.5 c 128,-1,31
 188 392 188 392 188 373 c 0,32,33
 188 341 188 341 222.5 323 c 128,-1,34
 257 305 257 305 333 290 c 0,35,36
 416 273 416 273 460.5 251 c 128,-1,37
 505 229 505 229 522 201.5 c 128,-1,38
 539 174 539 174 539 136 c 0,39,40
 539 95 539 95 513 62 c 128,-1,41
 487 29 487 29 438 8.5 c 128,-1,42
 389 -12 389 -12 317 -12 c 0,0,1
EndSplineSet
Validated: 1
Substitution2: "'sups' Superscript lookup 23 subtable" s.sups
EndChar

StartChar: t
Encoding: 116 116 47
Width: 614
GlyphClass: 2
Flags: W
AnchorPoint: "Anchor-3" 389 -20 basechar 0
AnchorPoint: "Anchor-2" 398 0 basechar 0
AnchorPoint: "Anchor-0" 262 658 basechar 0
LayerCount: 2
Fore
SplineSet
403 -12 m 0,0,1
 330 -12 330 -12 288.5 14 c 128,-1,2
 247 40 247 40 229 86 c 128,-1,3
 211 132 211 132 211 194 c 2,4,-1
 211 429 l 1,5,-1
 71 429 l 1,6,-1
 71 493 l 1,7,-1
 214 498 l 1,8,-1
 225 657 l 1,9,-1
 295 657 l 1,10,-1
 295 498 l 1,11,-1
 540 498 l 1,12,-1
 540 429 l 1,13,-1
 295 429 l 1,14,-1
 295 193 l 2,15,16
 295 149 295 149 306 118 c 128,-1,17
 317 87 317 87 345 71.5 c 128,-1,18
 373 56 373 56 421 56 c 0,19,20
 457 56 457 56 485.5 62.5 c 128,-1,21
 514 69 514 69 541 79 c 1,22,-1
 559 17 l 1,23,24
 525 5 525 5 487.5 -3.5 c 128,-1,25
 450 -12 450 -12 403 -12 c 0,0,1
EndSplineSet
Validated: 1
Substitution2: "'sups' Superscript lookup 23 subtable" t.sups
EndChar

StartChar: u
Encoding: 117 117 48
Width: 614
GlyphClass: 2
Flags: W
AnchorPoint: "Anchor-6" 436 0 basechar 0
AnchorPoint: "Anchor-3" 307 -20 basechar 0
AnchorPoint: "Anchor-2" 475 0 basechar 0
AnchorPoint: "Anchor-0" 302 519 basechar 0
LayerCount: 2
Fore
SplineSet
252 -12 m 0,0,1
 163 -12 163 -12 121 39 c 128,-1,2
 79 90 79 90 79 188 c 2,3,-1
 79 498 l 1,4,-1
 164 498 l 1,5,-1
 164 200 l 2,6,7
 164 129 164 129 190 94.5 c 128,-1,8
 216 60 216 60 279 60 c 0,9,10
 322 60 322 60 357 82 c 128,-1,11
 392 104 392 104 433 153 c 1,12,-1
 433 498 l 1,13,-1
 517 498 l 1,14,-1
 517 0 l 1,15,-1
 449 0 l 1,16,-1
 441 87 l 1,17,-1
 437 87 l 1,18,19
 399 44 399 44 354 16 c 128,-1,20
 309 -12 309 -12 252 -12 c 0,0,1
EndSplineSet
Validated: 1
Substitution2: "'sups' Superscript lookup 23 subtable" u.sups
EndChar

StartChar: v
Encoding: 118 118 49
Width: 614
GlyphClass: 2
Flags: W
AnchorPoint: "Anchor-3" 307 -20 basechar 0
AnchorPoint: "Anchor-0" 307 519 basechar 0
LayerCount: 2
Fore
SplineSet
262 0 m 1,0,-1
 52 498 l 1,1,-1
 137 498 l 1,2,-1
 252 215 l 2,3,4
 267 178 267 178 281 141 c 128,-1,5
 295 104 295 104 308 69 c 1,6,-1
 312 69 l 1,7,8
 325 105 325 105 338.5 141.5 c 128,-1,9
 352 178 352 178 367 215 c 2,10,-1
 481 498 l 1,11,-1
 562 498 l 1,12,-1
 356 0 l 1,13,-1
 262 0 l 1,0,-1
EndSplineSet
Validated: 1
Substitution2: "'sups' Superscript lookup 23 subtable" v.sups
EndChar

StartChar: w
Encoding: 119 119 50
Width: 614
GlyphClass: 2
Flags: W
AnchorPoint: "Anchor-3" 307 -20 basechar 0
AnchorPoint: "Anchor-0" 307 519 basechar 0
LayerCount: 2
Fore
SplineSet
117 0 m 1,0,-1
 8 498 l 1,1,-1
 92 498 l 1,2,-1
 152 209 l 2,3,4
 159 174 159 174 164.5 141 c 128,-1,5
 170 108 170 108 174 72 c 1,6,-1
 178 72 l 1,7,8
 183 108 183 108 191 141 c 128,-1,9
 199 174 199 174 207 209 c 2,10,-1
 268 467 l 1,11,-1
 352 467 l 1,12,-1
 412 209 l 2,13,14
 420 174 420 174 429 141 c 128,-1,15
 438 108 438 108 442 72 c 1,16,-1
 446 72 l 1,17,18
 452 108 452 108 457 141 c 128,-1,19
 462 174 462 174 469 209 c 2,20,-1
 528 498 l 1,21,-1
 606 498 l 1,22,-1
 500 0 l 1,23,-1
 391 0 l 1,24,-1
 334 238 l 2,25,26
 328 265 328 265 321.5 301.5 c 128,-1,27
 315 338 315 338 309 385 c 1,28,-1
 305 385 l 1,29,30
 299 338 299 338 293 301 c 128,-1,31
 287 264 287 264 281 238 c 2,32,-1
 225 0 l 1,33,-1
 117 0 l 1,0,-1
EndSplineSet
Validated: 1
Substitution2: "'sups' Superscript lookup 23 subtable" w.sups
EndChar

StartChar: x
Encoding: 120 120 51
Width: 614
GlyphClass: 2
Flags: W
AnchorPoint: "Anchor-3" 307 -20 basechar 0
AnchorPoint: "Anchor-2" 492 0 basechar 0
AnchorPoint: "Anchor-0" 307 519 basechar 0
LayerCount: 2
Fore
SplineSet
66 0 m 1,0,-1
 255 258 l 1,1,-1
 80 498 l 1,2,-1
 173 498 l 1,3,-1
 252 388 l 2,4,5
 265 369 265 369 280.5 347.5 c 128,-1,6
 296 326 296 326 310 304 c 1,7,-1
 314 304 l 1,8,9
 327 326 327 326 342 348 c 128,-1,10
 357 370 357 370 371 390 c 2,11,-1
 445 498 l 1,12,-1
 535 498 l 1,13,-1
 357 251 l 1,14,-1
 548 0 l 1,15,-1
 456 0 l 1,16,-1
 369 115 l 2,17,18
 354 137 354 137 336.5 160 c 128,-1,19
 319 183 319 183 303 205 c 1,20,-1
 299 205 l 1,21,22
 284 183 284 183 268.5 160.5 c 128,-1,23
 253 138 253 138 238 115 c 2,24,-1
 156 0 l 1,25,-1
 66 0 l 1,0,-1
EndSplineSet
Validated: 1
Substitution2: "'sups' Superscript lookup 23 subtable" x.sups
EndChar

StartChar: y
Encoding: 121 121 52
Width: 614
GlyphClass: 2
Flags: W
AnchorPoint: "Anchor-6" 268 -108 basechar 0
AnchorPoint: "Anchor-3" 273 -224 basechar 0
AnchorPoint: "Anchor-0" 311 519 basechar 0
LayerCount: 2
Fore
SplineSet
134 -214 m 0,0,1
 118 -214 118 -214 100 -211 c 128,-1,2
 82 -208 82 -208 69 -204 c 1,3,-1
 86 -137 l 1,4,5
 96 -140 96 -140 108 -142 c 128,-1,6
 120 -144 120 -144 131 -144 c 0,7,8
 183 -144 183 -144 216 -114 c 128,-1,9
 249 -84 249 -84 267 -38 c 2,10,-1
 283 -1 l 1,11,-1
 50 498 l 1,12,-1
 135 498 l 1,13,-1
 257 222 l 2,14,15
 271 189 271 189 287 152 c 128,-1,16
 303 115 303 115 318 78 c 1,17,-1
 323 78 l 1,18,19
 336 114 336 114 350 151 c 128,-1,20
 364 188 364 188 376 222 c 2,21,-1
 484 498 l 1,22,-1
 564 498 l 1,23,-1
 345 -41 l 2,24,25
 327 -90 327 -90 299 -129.5 c 128,-1,26
 271 -169 271 -169 230.5 -191.5 c 128,-1,27
 190 -214 190 -214 134 -214 c 0,0,1
EndSplineSet
Validated: 1
Substitution2: "'sups' Superscript lookup 23 subtable" y.sups
EndChar

StartChar: z
Encoding: 122 122 53
Width: 614
GlyphClass: 2
Flags: W
AnchorPoint: "Anchor-3" 322 -20 basechar 0
AnchorPoint: "Anchor-2" 328 0 basechar 0
AnchorPoint: "Anchor-0" 330 519 basechar 0
LayerCount: 2
Fore
SplineSet
73 0 m 1,0,-1
 73 45 l 1,1,-1
 414 429 l 1,2,-1
 111 429 l 1,3,-1
 111 498 l 1,4,-1
 535 498 l 1,5,-1
 535 453 l 1,6,-1
 193 69 l 1,7,-1
 544 69 l 1,8,-1
 544 0 l 1,9,-1
 73 0 l 1,0,-1
EndSplineSet
Validated: 1
Substitution2: "'sups' Superscript lookup 23 subtable" z.sups
EndChar

StartChar: Aringacute
Encoding: 506 506 62
Width: 614
GlyphClass: 1
Flags: W
LayerCount: 2
Fore
SplineSet
269 860 m 1,0,-1
 239 878 l 1,1,-1
 381 991 l 1,2,-1
 419 940 l 1,3,-1
 269 860 l 1,0,-1
33 0 m 1,4,-1
 259 672 l 1,5,-1
 355 672 l 1,6,-1
 582 0 l 1,7,-1
 492 0 l 1,8,-1
 375 376 l 2,9,10
 358 432 358 432 341 488 c 128,-1,11
 324 544 324 544 308 602 c 1,12,-1
 304 602 l 1,13,14
 288 544 288 544 271.5 488 c 128,-1,15
 255 432 255 432 238 376 c 2,16,-1
 120 0 l 1,17,-1
 33 0 l 1,4,-1
152 205 m 1,18,-1
 152 273 l 1,19,-1
 460 273 l 1,20,-1
 460 205 l 1,21,-1
 152 205 l 1,18,-1
307 716 m 0,22,23
 264 716 264 716 236 741.5 c 128,-1,24
 208 767 208 767 208 808 c 0,25,26
 208 850 208 850 236 875.5 c 128,-1,27
 264 901 264 901 307 901 c 0,28,29
 349 901 349 901 378 875.5 c 128,-1,30
 407 850 407 850 407 808 c 0,31,32
 407 767 407 767 378 741.5 c 128,-1,33
 349 716 349 716 307 716 c 0,22,23
307 753 m 0,34,35
 327 753 327 753 343 767 c 128,-1,36
 359 781 359 781 359 808 c 0,37,38
 359 834 359 834 343.5 848.5 c 128,-1,39
 328 863 328 863 307 863 c 0,40,41
 284 863 284 863 269 848.5 c 128,-1,42
 254 834 254 834 254 808 c 0,43,44
 254 781 254 781 269 767 c 128,-1,45
 284 753 284 753 307 753 c 0,34,35
EndSplineSet
Validated: 5
EndChar

StartChar: Aogonek
Encoding: 260 260 64
Width: 614
GlyphClass: 2
Flags: W
AnchorPoint: "Anchor-0" 307 692 basechar 0
LayerCount: 2
Fore
SplineSet
527 -230 m 0,0,1
 482 -230 482 -230 452 -206.5 c 128,-1,2
 422 -183 422 -183 422 -137 c 0,3,4
 422 -105 422 -105 436 -79 c 128,-1,5
 450 -53 450 -53 470 -33 c 128,-1,6
 490 -13 490 -13 511 0 c 1,7,-1
 492 0 l 1,8,-1
 375 376 l 2,9,10
 358 432 358 432 341 488 c 128,-1,11
 324 544 324 544 308 602 c 1,12,-1
 304 602 l 1,13,14
 288 544 288 544 271.5 488 c 128,-1,15
 255 432 255 432 238 376 c 2,16,-1
 120 0 l 1,17,-1
 33 0 l 1,18,-1
 259 672 l 1,19,-1
 355 672 l 1,20,-1
 582 0 l 1,21,22
 543 -17 543 -17 515.5 -49 c 128,-1,23
 488 -81 488 -81 488 -119 c 0,24,25
 488 -145 488 -145 504.5 -158 c 128,-1,26
 521 -171 521 -171 544 -171 c 0,27,28
 560 -171 560 -171 573 -164.5 c 128,-1,29
 586 -158 586 -158 595 -150 c 1,30,-1
 622 -194 l 1,31,32
 604 -209 604 -209 580.5 -219.5 c 128,-1,33
 557 -230 557 -230 527 -230 c 0,0,1
152 205 m 1,34,-1
 152 273 l 1,35,-1
 461 273 l 1,36,-1
 461 205 l 1,37,-1
 152 205 l 1,34,-1
EndSplineSet
Validated: 5
Ligature2: "'ccmp' Glyph Composition/Decomposition lookup 11 subtable" A uni0328
EndChar

StartChar: AE
Encoding: 198 198 77
Width: 614
GlyphClass: 2
Flags: W
AnchorPoint: "Anchor-3" 344 -20 basechar 0
AnchorPoint: "Anchor-2" 475 0 basechar 0
AnchorPoint: "Anchor-0" 430 692 basechar 0
LayerCount: 2
Fore
SplineSet
-1 0 m 1,0,-1
 269 672 l 1,1,-1
 596 672 l 1,2,-1
 596 600 l 1,3,-1
 402 600 l 1,4,-1
 402 390 l 1,5,-1
 553 390 l 1,6,-1
 553 317 l 1,7,-1
 402 317 l 1,8,-1
 402 73 l 1,9,-1
 605 73 l 1,10,-1
 605 0 l 1,11,-1
 325 0 l 1,12,-1
 325 604 l 1,13,-1
 322 604 l 1,14,15
 302 550 302 550 280 495.5 c 128,-1,16
 258 441 258 441 237 386 c 2,17,-1
 88 0 l 1,18,-1
 -1 0 l 1,0,-1
134 196 m 1,19,-1
 134 264 l 1,20,-1
 366 264 l 1,21,-1
 366 196 l 1,22,-1
 134 196 l 1,19,-1
EndSplineSet
Validated: 5
EndChar

StartChar: uni0243
Encoding: 579 579 80
Width: 614
GlyphClass: 1
Flags: W
LayerCount: 2
Fore
SplineSet
108 0 m 1,0,-1
 108 672 l 1,1,-1
 298 672 l 2,2,3
 367 672 367 672 418.5 655.5 c 128,-1,4
 470 639 470 639 499 603 c 128,-1,5
 528 567 528 567 528 508 c 0,6,7
 528 458 528 458 499.5 417.5 c 128,-1,8
 471 377 471 377 411 361 c 1,9,-1
 411 357 l 1,10,11
 485 346 485 346 525.5 306 c 128,-1,12
 566 266 566 266 566 197 c 0,13,14
 566 131 566 131 534.5 87 c 128,-1,15
 503 43 503 43 446 21.5 c 128,-1,16
 389 0 389 0 313 0 c 2,17,-1
 108 0 l 1,0,-1
27 166 m 1,18,-1
 27 223 l 1,19,-1
 108 229 l 1,20,-1
 338 229 l 1,21,-1
 338 166 l 1,22,-1
 27 166 l 1,18,-1
193 72 m 1,23,-1
 301 72 l 2,24,25
 387 72 387 72 434.5 102 c 128,-1,26
 482 132 482 132 482 201 c 0,27,28
 482 263 482 263 435.5 290 c 128,-1,29
 389 317 389 317 301 317 c 2,30,-1
 193 317 l 1,31,-1
 193 72 l 1,23,-1
193 389 m 1,32,-1
 284 389 l 2,33,34
 370 389 370 389 407 416.5 c 128,-1,35
 444 444 444 444 444 501 c 0,36,37
 444 555 444 555 405 577.5 c 128,-1,38
 366 600 366 600 288 600 c 2,39,-1
 193 600 l 1,40,-1
 193 389 l 1,32,-1
EndSplineSet
Validated: 5
EndChar

StartChar: uni018A
Encoding: 394 394 92
Width: 614
GlyphClass: 2
Flags: W
AnchorPoint: "Anchor-3" 379 -20 basechar 0
AnchorPoint: "Anchor-0" 339 692 basechar 0
LayerCount: 2
Fore
SplineSet
214 0 m 1,0,-1
 214 642 l 1,1,-1
 299 642 l 1,2,-1
 299 70 l 1,3,-1
 321 70 l 2,4,5
 377 70 377 70 415 102.5 c 128,-1,6
 453 135 453 135 473 197 c 128,-1,7
 493 259 493 259 493 346 c 0,8,9
 493 432 493 432 471.5 491.5 c 128,-1,10
 450 551 450 551 404 582 c 128,-1,11
 358 613 358 613 286 613 c 2,12,-1
 257 613 l 2,13,14
 205 613 205 613 169 592.5 c 128,-1,15
 133 572 133 572 114.5 538 c 128,-1,16
 96 504 96 504 96 460 c 0,17,18
 96 411 96 411 116 381 c 128,-1,19
 136 351 136 351 174 328 c 1,20,-1
 133 268 l 1,21,22
 81 295 81 295 50.5 340 c 128,-1,23
 20 385 20 385 20 456 c 0,24,25
 20 523 20 523 49 574 c 128,-1,26
 78 625 78 625 134.5 654.5 c 128,-1,27
 191 684 191 684 275 684 c 0,28,29
 378 684 378 684 446 644.5 c 128,-1,30
 514 605 514 605 547.5 530 c 128,-1,31
 581 455 581 455 581 346 c 0,32,33
 581 235 581 235 549 158 c 128,-1,34
 517 81 517 81 457.5 40.5 c 128,-1,35
 398 0 398 0 315 0 c 2,36,-1
 214 0 l 1,0,-1
EndSplineSet
Validated: 5
EndChar

StartChar: Eogonek
Encoding: 280 280 101
Width: 614
GlyphClass: 2
Flags: W
AnchorPoint: "Anchor-0" 339 692 basechar 0
LayerCount: 2
Fore
SplineSet
473 -230 m 0,0,1
 428 -230 428 -230 398 -206.5 c 128,-1,2
 368 -183 368 -183 368 -137 c 0,3,4
 368 -106 368 -106 380 -80 c 128,-1,5
 392 -54 392 -54 412.5 -33.5 c 128,-1,6
 433 -13 433 -13 456 0 c 1,7,-1
 118 0 l 1,8,-1
 118 672 l 1,9,-1
 532 672 l 1,10,-1
 532 600 l 1,11,-1
 204 600 l 1,12,-1
 204 389 l 1,13,-1
 481 389 l 1,14,-1
 481 316 l 1,15,-1
 204 316 l 1,16,-1
 204 73 l 1,17,-1
 543 73 l 1,18,-1
 543 0 l 1,19,-1
 539 0 l 1,20,21
 513 -4 513 -4 489 -22 c 128,-1,22
 465 -40 465 -40 449 -65.5 c 128,-1,23
 433 -91 433 -91 433 -119 c 0,24,25
 433 -146 433 -146 450.5 -158.5 c 128,-1,26
 468 -171 468 -171 489 -171 c 0,27,28
 505 -171 505 -171 518 -164.5 c 128,-1,29
 531 -158 531 -158 541 -150 c 1,30,-1
 566 -194 l 1,31,32
 549 -209 549 -209 526 -219.5 c 128,-1,33
 503 -230 503 -230 473 -230 c 0,0,1
EndSplineSet
Validated: 1
Ligature2: "'ccmp' Glyph Composition/Decomposition lookup 11 subtable" E uni0328
EndChar

StartChar: uni0193
Encoding: 403 403 119
Width: 614
GlyphClass: 1
Flags: W
LayerCount: 2
Fore
SplineSet
538 602 m 1,0,-1
 466 602 l 1,1,2
 446 636 446 636 435.5 662 c 128,-1,3
 425 688 425 688 425 716 c 0,4,5
 425 748 425 748 439.5 772 c 128,-1,6
 454 796 454 796 480 809.5 c 128,-1,7
 506 823 506 823 539 823 c 0,8,9
 561 823 561 823 576 819 c 128,-1,10
 591 815 591 815 603 810 c 1,11,-1
 587 745 l 1,12,13
 579 748 579 748 571 751.5 c 128,-1,14
 563 755 563 755 552 755 c 0,15,16
 526 755 526 755 511.5 739 c 128,-1,17
 497 723 497 723 497 699 c 0,18,19
 497 671 497 671 507.5 651.5 c 128,-1,20
 518 632 518 632 538 602 c 1,0,-1
345 -12 m 0,21,22
 261 -12 261 -12 195.5 29.5 c 128,-1,23
 130 71 130 71 92 148.5 c 128,-1,24
 54 226 54 226 54 336 c 0,25,26
 54 445 54 445 92.5 523 c 128,-1,27
 131 601 131 601 198 642.5 c 128,-1,28
 265 684 265 684 352 684 c 0,29,30
 419 684 419 684 464 658 c 128,-1,31
 509 632 509 632 538 602 c 1,32,-1
 489 548 l 1,33,34
 464 575 464 575 432 592 c 128,-1,35
 400 609 400 609 352 609 c 0,36,37
 290 609 290 609 243 576 c 128,-1,38
 196 543 196 543 169.5 482.5 c 128,-1,39
 143 422 143 422 143 338 c 0,40,41
 143 253 143 253 168 191.5 c 128,-1,42
 193 130 193 130 239 96 c 128,-1,43
 285 62 285 62 350 62 c 0,44,45
 385 62 385 62 417 73 c 128,-1,46
 449 84 449 84 467 102 c 1,47,-1
 467 278 l 1,48,-1
 333 278 l 1,49,-1
 333 348 l 1,50,-1
 546 348 l 1,51,-1
 546 66 l 1,52,53
 514 33 514 33 462.5 10.5 c 128,-1,54
 411 -12 411 -12 345 -12 c 0,21,22
EndSplineSet
Validated: 5
EndChar

StartChar: Hbar
Encoding: 294 294 125
Width: 614
GlyphClass: 1
Flags: W
LayerCount: 2
Fore
SplineSet
10 496 m 1,0,-1
 10 553 l 1,1,-1
 84 559 l 1,2,-1
 604 559 l 1,3,-1
 604 496 l 1,4,-1
 10 496 l 1,0,-1
81 0 m 1,5,-1
 81 672 l 1,6,-1
 167 672 l 1,7,-1
 167 390 l 1,8,-1
 447 390 l 1,9,-1
 447 672 l 1,10,-1
 534 672 l 1,11,-1
 534 0 l 1,12,-1
 447 0 l 1,13,-1
 447 316 l 1,14,-1
 167 316 l 1,15,-1
 167 0 l 1,16,-1
 81 0 l 1,5,-1
EndSplineSet
Validated: 5
EndChar

StartChar: Iogonek
Encoding: 302 302 134
Width: 614
GlyphClass: 2
Flags: W
AnchorPoint: "Anchor-0" 307 692 basechar 0
LayerCount: 2
Fore
SplineSet
318 -230 m 0,0,1
 273 -230 273 -230 243 -206.5 c 128,-1,2
 213 -183 213 -183 213 -137 c 0,3,4
 213 -108 213 -108 224.5 -83 c 128,-1,5
 236 -58 236 -58 252.5 -37 c 128,-1,6
 269 -16 269 -16 286 0 c 1,7,-1
 97 0 l 1,8,-1
 97 73 l 1,9,-1
 264 73 l 1,10,-1
 264 600 l 1,11,-1
 97 600 l 1,12,-1
 97 672 l 1,13,-1
 517 672 l 1,14,-1
 517 600 l 1,15,-1
 350 600 l 1,16,-1
 350 73 l 1,17,-1
 517 73 l 1,18,-1
 517 0 l 1,19,-1
 355 0 l 1,20,21
 317 -29 317 -29 298.5 -59.5 c 128,-1,22
 280 -90 280 -90 280 -119 c 0,23,24
 280 -146 280 -146 296.5 -158.5 c 128,-1,25
 313 -171 313 -171 335 -171 c 0,26,27
 352 -171 352 -171 364.5 -164.5 c 128,-1,28
 377 -158 377 -158 386 -150 c 1,29,-1
 412 -194 l 1,30,31
 395 -209 395 -209 371.5 -219.5 c 128,-1,32
 348 -230 348 -230 318 -230 c 0,0,1
EndSplineSet
Validated: 1
Ligature2: "'ccmp' Glyph Composition/Decomposition lookup 11 subtable" I uni0328
EndChar

StartChar: Lslash
Encoding: 321 321 148
Width: 614
GlyphClass: 2
Flags: W
AnchorPoint: "Anchor-3" 357 -20 basechar 0
AnchorPoint: "Anchor-0" 194 692 basechar 0
LayerCount: 2
Fore
SplineSet
40 185 m 1,0,-1
 10 240 l 1,1,-1
 145 311 l 1,2,-1
 214 341 l 1,3,-1
 437 461 l 1,4,-1
 467 407 l 1,5,-1
 214 271 l 1,6,-1
 145 243 l 1,7,-1
 40 185 l 1,0,-1
137 0 m 1,8,-1
 137 672 l 1,9,-1
 221 672 l 1,10,-1
 221 73 l 1,11,-1
 554 73 l 1,12,-1
 554 0 l 1,13,-1
 137 0 l 1,8,-1
EndSplineSet
Validated: 5
EndChar

StartChar: uni01EA
Encoding: 490 490 170
Width: 614
GlyphClass: 2
Flags: W
AnchorPoint: "Anchor-0" 307 692 basechar 0
LayerCount: 2
Fore
SplineSet
326 -230 m 0,0,1
 281 -230 281 -230 250.5 -206.5 c 128,-1,2
 220 -183 220 -183 220 -137 c 0,3,4
 220 -96 220 -96 242.5 -65.5 c 128,-1,5
 265 -35 265 -35 293 -11 c 1,6,7
 213 -5 213 -5 158.5 42 c 128,-1,8
 104 89 104 89 76.5 166 c 128,-1,9
 49 243 49 243 49 339 c 0,10,11
 49 447 49 447 82 524 c 128,-1,12
 115 601 115 601 173 642.5 c 128,-1,13
 231 684 231 684 307 684 c 256,14,15
 383 684 383 684 441.5 642.5 c 128,-1,16
 500 601 500 601 532.5 523.5 c 128,-1,17
 565 446 565 446 565 339 c 0,18,19
 565 205 565 205 516.5 120.5 c 128,-1,20
 468 36 468 36 380 -2 c 0,21,22
 334 -21 334 -21 310 -54 c 128,-1,23
 286 -87 286 -87 286 -119 c 0,24,25
 286 -146 286 -146 303.5 -158.5 c 128,-1,26
 321 -171 321 -171 342 -171 c 0,27,28
 358 -171 358 -171 371 -164.5 c 128,-1,29
 384 -158 384 -158 393 -150 c 1,30,-1
 419 -194 l 1,31,32
 402 -209 402 -209 379 -219.5 c 128,-1,33
 356 -230 356 -230 326 -230 c 0,0,1
307 61 m 256,34,35
 358 61 358 61 396 94 c 128,-1,36
 434 127 434 127 455.5 189 c 128,-1,37
 477 251 477 251 477 339 c 0,38,39
 477 423 477 423 455.5 484 c 128,-1,40
 434 545 434 545 396 577 c 128,-1,41
 358 609 358 609 307 609 c 256,42,43
 256 609 256 609 218 577 c 128,-1,44
 180 545 180 545 158.5 484 c 128,-1,45
 137 423 137 423 137 339 c 0,46,47
 137 251 137 251 158.5 189 c 128,-1,48
 180 127 180 127 218 94 c 128,-1,49
 256 61 256 61 307 61 c 256,34,35
EndSplineSet
Validated: 1
Ligature2: "'ccmp' Glyph Composition/Decomposition lookup 11 subtable" O uni0328
EndChar

StartChar: Ohorn
Encoding: 416 416 178
Width: 614
GlyphClass: 2
Flags: W
AnchorPoint: "Anchor-3" 307 -20 basechar 0
AnchorPoint: "Anchor-0" 307 692 basechar 0
LayerCount: 2
Fore
SplineSet
463 618 m 1,0,-1
 414 654 l 1,1,2
 459 662 459 662 480 684.5 c 128,-1,3
 501 707 501 707 501 743 c 0,4,5
 501 758 501 758 497 774.5 c 128,-1,6
 493 791 493 791 485 803 c 1,7,-1
 552 833 l 1,8,9
 562 817 562 817 568.5 795 c 128,-1,10
 575 773 575 773 575 750 c 0,11,12
 575 699 575 699 546 665.5 c 128,-1,13
 517 632 517 632 463 618 c 1,0,-1
307 -12 m 256,14,15
 231 -12 231 -12 173 30 c 128,-1,16
 115 72 115 72 82 150 c 128,-1,17
 49 228 49 228 49 339 c 0,18,19
 49 448 49 448 82 525 c 128,-1,20
 115 602 115 602 173 643 c 128,-1,21
 231 684 231 684 307 684 c 256,22,23
 383 684 383 684 441.5 643 c 128,-1,24
 500 602 500 602 532.5 524.5 c 128,-1,25
 565 447 565 447 565 339 c 0,26,27
 565 228 565 228 532.5 150 c 128,-1,28
 500 72 500 72 441.5 30 c 128,-1,29
 383 -12 383 -12 307 -12 c 256,14,15
307 62 m 256,30,31
 358 62 358 62 396 95.5 c 128,-1,32
 434 129 434 129 455.5 191 c 128,-1,33
 477 253 477 253 477 339 c 0,34,35
 477 423 477 423 455.5 484 c 128,-1,36
 434 545 434 545 396 577 c 128,-1,37
 358 609 358 609 307 609 c 256,38,39
 256 609 256 609 218 577 c 128,-1,40
 180 545 180 545 158.5 484 c 128,-1,41
 137 423 137 423 137 339 c 0,42,43
 137 253 137 253 158.5 191 c 128,-1,44
 180 129 180 129 218 95.5 c 128,-1,45
 256 62 256 62 307 62 c 256,30,31
EndSplineSet
Validated: 5
EndChar

StartChar: Oslash
Encoding: 216 216 185
Width: 614
GlyphClass: 2
Flags: W
AnchorPoint: "Anchor-2" 307 0 basechar 0
AnchorPoint: "Anchor-0" 307 692 basechar 0
LayerCount: 2
Fore
SplineSet
37 4 m 1,0,-1
 516 705 l 1,1,-1
 573 668 l 1,2,-1
 94 -33 l 1,3,-1
 37 4 l 1,0,-1
307 -12 m 256,4,5
 231 -12 231 -12 173 30 c 128,-1,6
 115 72 115 72 82 150 c 128,-1,7
 49 228 49 228 49 339 c 0,8,9
 49 448 49 448 82 525 c 128,-1,10
 115 602 115 602 173 643 c 128,-1,11
 231 684 231 684 307 684 c 256,12,13
 383 684 383 684 441.5 643 c 128,-1,14
 500 602 500 602 532.5 524.5 c 128,-1,15
 565 447 565 447 565 339 c 0,16,17
 565 228 565 228 532.5 150 c 128,-1,18
 500 72 500 72 441.5 30 c 128,-1,19
 383 -12 383 -12 307 -12 c 256,4,5
307 62 m 256,20,21
 358 62 358 62 396.5 95.5 c 128,-1,22
 435 129 435 129 456 191 c 128,-1,23
 477 253 477 253 477 339 c 0,24,25
 477 424 477 424 456 484.5 c 128,-1,26
 435 545 435 545 396.5 577 c 128,-1,27
 358 609 358 609 307 609 c 256,28,29
 256 609 256 609 217.5 577 c 128,-1,30
 179 545 179 545 158 484.5 c 128,-1,31
 137 424 137 424 137 339 c 0,32,33
 137 253 137 253 158 191 c 128,-1,34
 179 129 179 129 217.5 95.5 c 128,-1,35
 256 62 256 62 307 62 c 256,20,21
EndSplineSet
Validated: 5
EndChar

StartChar: OE
Encoding: 338 338 187
Width: 614
GlyphClass: 2
Flags: W
AnchorPoint: "Anchor-2" 463 0 basechar 0
AnchorPoint: "Anchor-0" 392 692 basechar 0
LayerCount: 2
Fore
SplineSet
303 0 m 2,0,1
 219 0 219 0 158 40 c 128,-1,2
 97 80 97 80 65.5 155.5 c 128,-1,3
 34 231 34 231 34 339 c 0,4,5
 34 445 34 445 66.5 520 c 128,-1,6
 99 595 99 595 160 634 c 128,-1,7
 221 673 221 673 306 673 c 2,8,-1
 595 673 l 1,9,-1
 595 601 l 1,10,-1
 396 601 l 1,11,-1
 396 389 l 1,12,-1
 548 389 l 1,13,-1
 548 316 l 1,14,-1
 396 316 l 1,15,-1
 396 73 l 1,16,-1
 605 73 l 1,17,-1
 605 0 l 1,18,-1
 303 0 l 2,0,1
296 70 m 2,19,-1
 318 70 l 1,20,-1
 318 602 l 1,21,-1
 296 602 l 2,22,23
 238 602 238 602 199 572 c 128,-1,24
 160 542 160 542 141 483 c 128,-1,25
 122 424 122 424 122 339 c 0,26,27
 122 253 122 253 141 193 c 128,-1,28
 160 133 160 133 199 101.5 c 128,-1,29
 238 70 238 70 296 70 c 2,19,-1
EndSplineSet
Validated: 1
EndChar

StartChar: uni1E9E
Encoding: 7838 7838 203
Width: 614
GlyphClass: 1
Flags: W
LayerCount: 2
Fore
SplineSet
399 -12 m 0,0,1
 349 -12 349 -12 306 8 c 128,-1,2
 263 28 263 28 234 62 c 1,3,-1
 275 117 l 1,4,5
 301 88 301 88 328.5 73.5 c 128,-1,6
 356 59 356 59 392 59 c 0,7,8
 439 59 439 59 466.5 90.5 c 128,-1,9
 494 122 494 122 494 171 c 0,10,11
 494 204 494 204 479 232 c 128,-1,12
 464 260 464 260 426 282 c 128,-1,13
 388 304 388 304 317 317 c 1,14,-1
 311 373 l 1,15,-1
 457 554 l 1,16,-1
 446 506 l 1,17,18
 431 561 431 561 396.5 587 c 128,-1,19
 362 613 362 613 312 613 c 0,20,21
 246 613 246 613 206 567 c 128,-1,22
 166 521 166 521 166 423 c 2,23,-1
 166 0 l 1,24,-1
 80 0 l 1,25,-1
 80 438 l 2,26,27
 80 514 80 514 108 569.5 c 128,-1,28
 136 625 136 625 188.5 654.5 c 128,-1,29
 241 684 241 684 312 684 c 0,30,31
 398 684 398 684 450.5 640.5 c 128,-1,32
 503 597 503 597 527 526 c 1,33,-1
 383 346 l 1,34,-1
 380 379 l 1,35,36
 457 359 457 359 501.5 329 c 128,-1,37
 546 299 546 299 564.5 259.5 c 128,-1,38
 583 220 583 220 583 171 c 0,39,40
 583 119 583 119 561.5 78 c 128,-1,41
 540 37 540 37 498 12.5 c 128,-1,42
 456 -12 456 -12 399 -12 c 0,0,1
EndSplineSet
Validated: 5
EndChar

StartChar: Tbar
Encoding: 358 358 209
Width: 614
GlyphClass: 2
Flags: W
AnchorPoint: "Anchor-3" 307 -20 basechar 0
AnchorPoint: "Anchor-0" 307 692 basechar 0
LayerCount: 2
Fore
SplineSet
119 313 m 1,0,-1
 119 373 l 1,1,-1
 211 377 l 1,2,-1
 496 377 l 1,3,-1
 496 313 l 1,4,-1
 119 313 l 1,0,-1
264 0 m 1,5,-1
 264 600 l 1,6,-1
 43 600 l 1,7,-1
 43 672 l 1,8,-1
 571 672 l 1,9,-1
 571 600 l 1,10,-1
 350 600 l 1,11,-1
 350 0 l 1,12,-1
 264 0 l 1,5,-1
EndSplineSet
Validated: 5
EndChar

StartChar: Uogonek
Encoding: 370 370 220
Width: 614
GlyphClass: 2
Flags: W
AnchorPoint: "Anchor-0" 307 692 basechar 0
LayerCount: 2
Fore
SplineSet
326 -230 m 0,0,1
 281 -230 281 -230 250.5 -206.5 c 128,-1,2
 220 -183 220 -183 220 -137 c 0,3,4
 220 -107 220 -107 231.5 -83 c 128,-1,5
 243 -59 243 -59 258.5 -41.5 c 128,-1,6
 274 -24 274 -24 289 -11 c 1,7,8
 226 -8 226 -8 179 21.5 c 128,-1,9
 132 51 132 51 106.5 108.5 c 128,-1,10
 81 166 81 166 81 254 c 2,11,-1
 81 672 l 1,12,-1
 167 672 l 1,13,-1
 167 252 l 2,14,15
 167 182 167 182 185.5 140.5 c 128,-1,16
 204 99 204 99 235.5 80.5 c 128,-1,17
 267 62 267 62 307 62 c 0,18,19
 348 62 348 62 380.5 80.5 c 128,-1,20
 413 99 413 99 432 140.5 c 128,-1,21
 451 182 451 182 451 252 c 2,22,-1
 451 672 l 1,23,-1
 534 672 l 1,24,-1
 534 254 l 2,25,26
 534 182 534 182 517.5 132.5 c 128,-1,27
 501 83 501 83 469.5 50.5 c 128,-1,28
 438 18 438 18 392 0 c 0,29,30
 351 -16 351 -16 328 -36 c 128,-1,31
 305 -56 305 -56 295.5 -77 c 128,-1,32
 286 -98 286 -98 286 -119 c 0,33,34
 286 -146 286 -146 303.5 -158.5 c 128,-1,35
 321 -171 321 -171 342 -171 c 0,36,37
 358 -171 358 -171 371 -164.5 c 128,-1,38
 384 -158 384 -158 393 -150 c 1,39,-1
 419 -194 l 1,40,41
 402 -209 402 -209 379 -219.5 c 128,-1,42
 356 -230 356 -230 326 -230 c 0,0,1
EndSplineSet
Validated: 1
Ligature2: "'ccmp' Glyph Composition/Decomposition lookup 11 subtable" U uni0328
EndChar

StartChar: Uhorn
Encoding: 431 431 227
Width: 614
GlyphClass: 2
Flags: W
AnchorPoint: "Anchor-3" 307 -20 basechar 0
AnchorPoint: "Anchor-0" 307 692 basechar 0
LayerCount: 2
Fore
SplineSet
531 635 m 1,0,-1
 484 672 l 1,1,2
 512 675 512 675 531 684 c 128,-1,3
 550 693 550 693 560 710.5 c 128,-1,4
 570 728 570 728 570 757 c 0,5,6
 570 772 570 772 566 788 c 128,-1,7
 562 804 562 804 555 816 c 1,8,-1
 622 845 l 1,9,10
 632 829 632 829 638.5 807.5 c 128,-1,11
 645 786 645 786 645 763 c 0,12,13
 645 723 645 723 630 698 c 128,-1,14
 615 673 615 673 589.5 657.5 c 128,-1,15
 564 642 564 642 531 635 c 1,0,-1
308 -12 m 256,16,17
 259 -12 259 -12 217.5 2.5 c 128,-1,18
 176 17 176 17 145.5 48.5 c 128,-1,19
 115 80 115 80 98 131 c 128,-1,20
 81 182 81 182 81 254 c 2,21,-1
 81 672 l 1,22,-1
 167 672 l 1,23,-1
 167 252 l 2,24,25
 167 182 167 182 185.5 140.5 c 128,-1,26
 204 99 204 99 236 80.5 c 128,-1,27
 268 62 268 62 308 62 c 0,28,29
 349 62 349 62 381.5 80.5 c 128,-1,30
 414 99 414 99 432.5 140.5 c 128,-1,31
 451 182 451 182 451 252 c 2,32,-1
 451 672 l 1,33,-1
 534 672 l 1,34,-1
 534 254 l 2,35,36
 534 182 534 182 517 131 c 128,-1,37
 500 80 500 80 469.5 48.5 c 128,-1,38
 439 17 439 17 398 2.5 c 128,-1,39
 357 -12 357 -12 308 -12 c 256,16,17
EndSplineSet
Validated: 5
EndChar

StartChar: Eth
Encoding: 208 208 252
Width: 614
GlyphClass: 2
Flags: W
AnchorPoint: "Anchor-3" 297 -20 basechar 0
AnchorPoint: "Anchor-0" 306 692 basechar 0
LayerCount: 2
Fore
SplineSet
89 0 m 1,0,-1
 89 322 l 1,1,-1
 12 322 l 1,2,-1
 12 379 l 1,3,-1
 89 385 l 1,4,-1
 89 672 l 1,5,-1
 255 672 l 2,6,7
 356 672 356 672 425.5 633 c 128,-1,8
 495 594 495 594 530.5 519.5 c 128,-1,9
 566 445 566 445 566 339 c 0,10,11
 566 231 566 231 530.5 155.5 c 128,-1,12
 495 80 495 80 426.5 40 c 128,-1,13
 358 0 358 0 259 0 c 2,14,-1
 89 0 l 1,0,-1
174 70 m 1,15,-1
 249 70 l 2,16,17
 326 70 326 70 376.5 101.5 c 128,-1,18
 427 133 427 133 452 193.5 c 128,-1,19
 477 254 477 254 477 339 c 256,20,21
 477 424 477 424 452 482.5 c 128,-1,22
 427 541 427 541 376.5 571.5 c 128,-1,23
 326 602 326 602 249 602 c 2,24,-1
 174 602 l 1,25,-1
 174 385 l 1,26,-1
 322 385 l 1,27,-1
 322 322 l 1,28,-1
 174 322 l 1,29,-1
 174 70 l 1,15,-1
EndSplineSet
Validated: 1
EndChar

StartChar: Thorn
Encoding: 222 222 253
Width: 614
GlyphClass: 1
Flags: W
LayerCount: 2
Fore
SplineSet
103 0 m 1,0,-1
 103 672 l 1,1,-1
 189 672 l 1,2,-1
 189 559 l 1,3,-1
 310 559 l 2,4,5
 384 559 384 559 440 540 c 128,-1,6
 496 521 496 521 527 478 c 128,-1,7
 558 435 558 435 558 361 c 0,8,9
 558 290 558 290 527 244.5 c 128,-1,10
 496 199 496 199 439.5 176.5 c 128,-1,11
 383 154 383 154 310 154 c 2,12,-1
 189 154 l 1,13,-1
 189 0 l 1,14,-1
 103 0 l 1,0,-1
189 223 m 1,15,-1
 299 223 l 2,16,17
 387 223 387 223 430 256.5 c 128,-1,18
 473 290 473 290 473 361 c 0,19,20
 473 434 473 434 429.5 461.5 c 128,-1,21
 386 489 386 489 299 489 c 2,22,-1
 189 489 l 1,23,-1
 189 223 l 1,15,-1
EndSplineSet
Validated: 1
EndChar

StartChar: uni018F
Encoding: 399 399 254
Width: 614
GlyphClass: 2
Flags: W
AnchorPoint: "Anchor-6" 317 0 basechar 0
AnchorPoint: "Anchor-3" 311 -20 basechar 0
AnchorPoint: "Anchor-2" 317 0 basechar 0
AnchorPoint: "Anchor-0" 325 692 basechar 0
LayerCount: 2
Fore
SplineSet
307 -12 m 0,0,1
 232 -12 232 -12 176.5 31.5 c 128,-1,2
 121 75 121 75 90.5 152.5 c 128,-1,3
 60 230 60 230 60 335 c 0,4,5
 60 341 60 341 60.5 346.5 c 128,-1,6
 61 352 61 352 61 358 c 1,7,-1
 498 358 l 1,8,-1
 498 293 l 1,9,-1
 122 293 l 1,10,-1
 143 338 l 1,11,12
 143 246 143 246 163 184.5 c 128,-1,13
 183 123 183 123 219.5 92 c 128,-1,14
 256 61 256 61 307 61 c 256,15,16
 358 61 358 61 397 92.5 c 128,-1,17
 436 124 436 124 457 185.5 c 128,-1,18
 478 247 478 247 478 338 c 0,19,20
 478 425 478 425 458 486 c 128,-1,21
 438 547 438 547 399 578.5 c 128,-1,22
 360 610 360 610 304 610 c 0,23,24
 262 610 262 610 228.5 594 c 128,-1,25
 195 578 195 578 169 551 c 1,26,-1
 128 609 l 1,27,28
 160 642 160 642 205 663 c 128,-1,29
 250 684 250 684 308 684 c 0,30,31
 388 684 388 684 445 642.5 c 128,-1,32
 502 601 502 601 532.5 523 c 128,-1,33
 563 445 563 445 563 338 c 256,34,35
 563 230 563 230 531 151.5 c 128,-1,36
 499 73 499 73 441 30.5 c 128,-1,37
 383 -12 383 -12 307 -12 c 0,0,1
EndSplineSet
Validated: 5
EndChar

StartChar: Eng
Encoding: 330 330 255
Width: 614
GlyphClass: 2
Flags: W
AnchorPoint: "Anchor-3" 313 -20 basechar 0
AnchorPoint: "Anchor-0" 330 692 basechar 0
LayerCount: 2
Fore
SplineSet
387 -12 m 0,0,1
 369 -12 369 -12 347 -8.5 c 128,-1,2
 325 -5 325 -5 310 2 c 1,3,-1
 332 79 l 1,4,5
 341 74 341 74 352.5 71.5 c 128,-1,6
 364 69 364 69 378 69 c 0,7,8
 407 69 407 69 428.5 93 c 128,-1,9
 450 117 450 117 462 177 c 128,-1,10
 474 237 474 237 474 343 c 0,11,12
 474 444 474 444 455 502 c 128,-1,13
 436 560 436 560 402 584.5 c 128,-1,14
 368 609 368 609 323 609 c 0,15,16
 298 609 298 609 270.5 596.5 c 128,-1,17
 243 584 243 584 216.5 562.5 c 128,-1,18
 190 541 190 541 172 513 c 1,19,-1
 172 0 l 1,20,-1
 87 0 l 1,21,-1
 87 672 l 1,22,-1
 170 672 l 1,23,-1
 170 593 l 1,24,25
 193 619 193 619 220 639 c 128,-1,26
 247 659 247 659 277.5 671.5 c 128,-1,27
 308 684 308 684 341 684 c 0,28,29
 404 684 404 684 454.5 651 c 128,-1,30
 505 618 505 618 533.5 543 c 128,-1,31
 562 468 562 468 562 343 c 0,32,33
 562 214 562 214 541 135.5 c 128,-1,34
 520 57 520 57 481 22.5 c 128,-1,35
 442 -12 442 -12 387 -12 c 0,0,1
EndSplineSet
Validated: 1
Substitution2: "'ss05' Style Set 5 lookup 0 subtable" uni014A.a
EndChar

StartChar: IJ
Encoding: 306 306 256
Width: 614
GlyphClass: 1
Flags: W
LayerCount: 2
Fore
SplineSet
115 0 m 1,0,-1
 115 672 l 1,1,-1
 200 672 l 1,2,-1
 200 0 l 1,3,-1
 115 0 l 1,0,-1
359 -169 m 0,4,5
 335 -169 335 -169 316.5 -165 c 128,-1,6
 298 -161 298 -161 284 -156 c 1,7,-1
 300 -88 l 1,8,9
 311 -92 311 -92 324 -95 c 128,-1,10
 337 -98 337 -98 350 -98 c 0,11,12
 389 -98 389 -98 402 -71.5 c 128,-1,13
 415 -45 415 -45 415 0 c 2,14,-1
 415 672 l 1,15,-1
 500 672 l 1,16,-1
 500 -3 l 2,17,18
 500 -54 500 -54 486 -91 c 128,-1,19
 472 -128 472 -128 441 -148.5 c 128,-1,20
 410 -169 410 -169 359 -169 c 0,4,5
EndSplineSet
Validated: 1
EndChar

StartChar: uni004C00B7004C
Encoding: 1114114 -1 257
Width: 614
GlyphClass: 1
Flags: W
LayerCount: 2
Fore
SplineSet
70 0 m 1,0,-1
 70 672 l 1,1,-1
 147 672 l 1,2,-1
 147 73 l 1,3,-1
 282 73 l 1,4,-1
 282 0 l 1,5,-1
 70 0 l 1,0,-1
252 279 m 256,6,7
 218 279 218 279 195 302 c 128,-1,8
 172 325 172 325 172 365 c 256,9,10
 172 405 172 405 195 427 c 128,-1,11
 218 449 218 449 252 449 c 256,12,13
 286 449 286 449 310 426.5 c 128,-1,14
 334 404 334 404 334 365 c 256,15,16
 334 325 334 325 310 302 c 128,-1,17
 286 279 286 279 252 279 c 256,6,7
356 0 m 1,18,-1
 356 672 l 1,19,-1
 434 672 l 1,20,-1
 434 73 l 1,21,-1
 567 73 l 1,22,-1
 567 0 l 1,23,-1
 356 0 l 1,18,-1
EndSplineSet
Validated: 1
Ligature2: "'ccmp' Glyph Composition/Decomposition lookup 11 subtable" L periodcentered L
EndChar

StartChar: aringacute
Encoding: 507 507 267
Width: 614
GlyphClass: 1
Flags: W
LayerCount: 2
Fore
SplineSet
295 744 m 1,0,-1
 256 759 l 1,1,-1
 399 863 l 1,2,-1
 435 812 l 1,3,-1
 295 744 l 1,0,-1
252 -12 m 0,4,5
 206 -12 206 -12 167 5 c 128,-1,6
 128 22 128 22 105.5 53.5 c 128,-1,7
 83 85 83 85 83 129 c 0,8,9
 83 213 83 213 167 256.5 c 128,-1,10
 251 300 251 300 443 315 c 1,11,12
 442 349 442 349 429.5 378 c 128,-1,13
 417 407 417 407 388 423.5 c 128,-1,14
 359 440 359 440 311 440 c 0,15,16
 279 440 279 440 248 431.5 c 128,-1,17
 217 423 217 423 189 409 c 128,-1,18
 161 395 161 395 137 381 c 1,19,-1
 104 438 l 1,20,21
 129 454 129 454 164.5 471 c 128,-1,22
 200 488 200 488 241 499 c 128,-1,23
 282 510 282 510 326 510 c 0,24,25
 395 510 395 510 439 484.5 c 128,-1,26
 483 459 483 459 505 413.5 c 128,-1,27
 527 368 527 368 527 305 c 2,28,-1
 527 0 l 1,29,-1
 459 0 l 1,30,-1
 452 68 l 1,31,-1
 449 68 l 1,32,33
 408 35 408 35 356.5 11.5 c 128,-1,34
 305 -12 305 -12 252 -12 c 0,4,5
274 55 m 0,35,36
 317 55 317 55 359 74.5 c 128,-1,37
 401 94 401 94 443 129 c 1,38,-1
 443 260 l 1,39,40
 337 251 337 251 276 234.5 c 128,-1,41
 215 218 215 218 190 193 c 128,-1,42
 165 168 165 168 165 135 c 0,43,44
 165 107 165 107 180.5 89.5 c 128,-1,45
 196 72 196 72 220.5 63.5 c 128,-1,46
 245 55 245 55 274 55 c 0,35,36
328 583 m 0,47,48
 276 583 276 583 245.5 611.5 c 128,-1,49
 215 640 215 640 215 681 c 0,50,51
 215 723 215 723 245 751 c 128,-1,52
 275 779 275 779 328 779 c 0,53,54
 381 779 381 779 410.5 751 c 128,-1,55
 440 723 440 723 440 681 c 0,56,57
 440 640 440 640 410.5 611.5 c 128,-1,58
 381 583 381 583 328 583 c 0,47,48
328 621 m 256,59,60
 353 621 353 621 369.5 638 c 128,-1,61
 386 655 386 655 386 681 c 0,62,63
 386 708 386 708 369 724.5 c 128,-1,64
 352 741 352 741 328 741 c 256,65,66
 303 741 303 741 286 724.5 c 128,-1,67
 269 708 269 708 269 681 c 0,68,69
 269 655 269 655 286 638 c 128,-1,70
 303 621 303 621 328 621 c 256,59,60
EndSplineSet
Validated: 5
Substitution2: "'ss02' Style Set 2 lookup 29 subtable" aringacute.a
EndChar

StartChar: aogonek
Encoding: 261 261 269
Width: 614
GlyphClass: 2
Flags: W
AnchorPoint: "Anchor-0" 328 519 basechar 0
LayerCount: 2
Fore
SplineSet
467 -230 m 0,0,1
 422 -230 422 -230 391.5 -206.5 c 128,-1,2
 361 -183 361 -183 361 -135 c 0,3,4
 361 -104 361 -104 374 -78.5 c 128,-1,5
 387 -53 387 -53 409.5 -32 c 128,-1,6
 432 -11 432 -11 459 5 c 1,7,-1
 452 68 l 1,8,-1
 449 68 l 1,9,10
 408 35 408 35 356.5 11.5 c 128,-1,11
 305 -12 305 -12 252 -12 c 0,12,13
 206 -12 206 -12 167 5 c 128,-1,14
 128 22 128 22 105.5 53.5 c 128,-1,15
 83 85 83 85 83 129 c 0,16,17
 83 213 83 213 167 256.5 c 128,-1,18
 251 300 251 300 443 315 c 1,19,20
 442 349 442 349 429.5 378 c 128,-1,21
 417 407 417 407 388 423.5 c 128,-1,22
 359 440 359 440 311 440 c 0,23,24
 279 440 279 440 248 431.5 c 128,-1,25
 217 423 217 423 189 409 c 128,-1,26
 161 395 161 395 137 381 c 1,27,-1
 104 438 l 1,28,29
 129 454 129 454 164.5 471 c 128,-1,30
 200 488 200 488 241 499 c 128,-1,31
 282 510 282 510 326 510 c 0,32,33
 395 510 395 510 439 484.5 c 128,-1,34
 483 459 483 459 505 413.5 c 128,-1,35
 527 368 527 368 527 305 c 2,36,-1
 527 0 l 1,37,38
 473 -25 473 -25 448.5 -56 c 128,-1,39
 424 -87 424 -87 424 -119 c 0,40,41
 424 -148 424 -148 442.5 -161.5 c 128,-1,42
 461 -175 461 -175 484 -175 c 0,43,44
 501 -175 501 -175 515 -168.5 c 128,-1,45
 529 -162 529 -162 538 -154 c 1,46,-1
 562 -194 l 1,47,48
 545 -210 545 -210 521 -220 c 128,-1,49
 497 -230 497 -230 467 -230 c 0,0,1
274 55 m 0,50,51
 317 55 317 55 359 74.5 c 128,-1,52
 401 94 401 94 443 129 c 1,53,-1
 443 260 l 1,54,55
 337 251 337 251 276 234.5 c 128,-1,56
 215 218 215 218 190 193 c 128,-1,57
 165 168 165 168 165 135 c 0,58,59
 165 107 165 107 180.5 89.5 c 128,-1,60
 196 72 196 72 220.5 63.5 c 128,-1,61
 245 55 245 55 274 55 c 0,50,51
EndSplineSet
Validated: 1
Substitution2: "'ss02' Style Set 2 lookup 29 subtable" aogonek.a
Ligature2: "'ccmp' Glyph Composition/Decomposition lookup 11 subtable" a uni0328
EndChar

StartChar: ae
Encoding: 230 230 282
Width: 614
GlyphClass: 2
Flags: W
AnchorPoint: "Anchor-3" 316 -20 basechar 0
AnchorPoint: "Anchor-2" 460 0 basechar 0
AnchorPoint: "Anchor-0" 324 519 basechar 0
LayerCount: 2
Fore
SplineSet
148 -12 m 0,0,1
 92 -12 92 -12 54.5 24 c 128,-1,2
 17 60 17 60 17 123 c 0,3,4
 17 175 17 175 45.5 213.5 c 128,-1,5
 74 252 74 252 134.5 276.5 c 128,-1,6
 195 301 195 301 292 311 c 1,7,-1
 292 257 l 1,8,9
 215 248 215 248 172 230.5 c 128,-1,10
 129 213 129 213 112 188 c 128,-1,11
 95 163 95 163 95 131 c 0,12,13
 95 95 95 95 116 75 c 128,-1,14
 137 55 137 55 171 55 c 0,15,16
 203 55 203 55 238 77.5 c 128,-1,17
 273 100 273 100 301 142 c 1,18,-1
 330 99 l 1,19,20
 290 47 290 47 244.5 17.5 c 128,-1,21
 199 -12 199 -12 148 -12 c 0,0,1
465 -12 m 0,22,23
 404 -12 404 -12 360.5 21 c 128,-1,24
 317 54 317 54 294.5 112.5 c 128,-1,25
 272 171 272 171 272 248 c 2,26,-1
 272 298 l 2,27,28
 272 378 272 378 247.5 409 c 128,-1,29
 223 440 223 440 182 440 c 0,30,31
 151 440 151 440 120 428 c 128,-1,32
 89 416 89 416 66 399 c 1,33,-1
 34 457 l 1,34,35
 65 477 65 477 105 493.5 c 128,-1,36
 145 510 145 510 189 510 c 0,37,38
 240 510 240 510 274 478.5 c 128,-1,39
 308 447 308 447 325 375 c 1,40,-1
 303 375 l 1,41,42
 327 448 327 448 369.5 479 c 128,-1,43
 412 510 412 510 459 510 c 0,44,45
 511 510 511 510 545 478.5 c 128,-1,46
 579 447 579 447 595 395.5 c 128,-1,47
 611 344 611 344 611 283 c 0,48,49
 611 269 611 269 610 254 c 128,-1,50
 609 239 609 239 607 225 c 1,51,-1
 315 225 l 1,52,-1
 315 291 l 1,53,-1
 558 291 l 1,54,-1
 543 270 l 1,55,56
 543 357 543 357 521.5 400 c 128,-1,57
 500 443 500 443 454 443 c 0,58,59
 425 443 425 443 399 424.5 c 128,-1,60
 373 406 373 406 356 363.5 c 128,-1,61
 339 321 339 321 339 250 c 0,62,63
 339 191 339 191 354 147 c 128,-1,64
 369 103 369 103 397.5 79.5 c 128,-1,65
 426 56 426 56 468 56 c 0,66,67
 497 56 497 56 521.5 66 c 128,-1,68
 546 76 546 76 565 89 c 1,69,-1
 596 32 l 1,70,71
 570 14 570 14 537 1 c 128,-1,72
 504 -12 504 -12 465 -12 c 0,22,23
EndSplineSet
Validated: 5
EndChar

StartChar: uni0180
Encoding: 384 384 285
Width: 614
GlyphClass: 1
Flags: W
LayerCount: 2
Fore
SplineSet
328 -12 m 0,0,1
 292 -12 292 -12 250.5 6 c 128,-1,2
 209 24 209 24 173 55 c 1,3,-1
 170 55 l 1,4,-1
 163 0 l 1,5,-1
 95 0 l 1,6,-1
 95 729 l 1,7,-1
 179 729 l 1,8,-1
 179 507 l 1,9,-1
 176 414 l 1,10,-1
 179 414 l 1,11,12
 213 449 213 449 257.5 469 c 128,-1,13
 302 489 302 489 346 489 c 0,14,15
 414 489 414 489 460 459.5 c 128,-1,16
 506 430 506 430 529.5 375.5 c 128,-1,17
 553 321 553 321 553 247 c 0,18,19
 553 165 553 165 521 107 c 128,-1,20
 489 49 489 49 438 18.5 c 128,-1,21
 387 -12 387 -12 328 -12 c 0,0,1
314 58 m 0,22,23
 358 58 358 58 392 80.5 c 128,-1,24
 426 103 426 103 446 145 c 128,-1,25
 466 187 466 187 466 246 c 0,26,27
 466 298 466 298 451.5 337 c 128,-1,28
 437 376 437 376 406.5 397.5 c 128,-1,29
 376 419 376 419 326 419 c 0,30,31
 293 419 293 419 255.5 401 c 128,-1,32
 218 383 218 383 179 344 c 1,33,-1
 179 117 l 1,34,35
 215 85 215 85 251 71.5 c 128,-1,36
 287 58 287 58 314 58 c 0,22,23
20 575 m 1,37,-1
 20 636 l 1,38,-1
 99 641 l 1,39,-1
 397 641 l 1,40,-1
 397 575 l 1,41,-1
 20 575 l 1,37,-1
EndSplineSet
Validated: 5
EndChar

StartChar: dcaron
Encoding: 271 271 292
Width: 614
GlyphClass: 1
Flags: W
LayerCount: 2
Fore
SplineSet
260 -12 m 0,0,1
 168 -12 168 -12 111.5 56 c 128,-1,2
 55 124 55 124 55 248 c 0,3,4
 55 329 55 329 85.5 387.5 c 128,-1,5
 116 446 116 446 165 478 c 128,-1,6
 214 510 214 510 270 510 c 0,7,8
 312 510 312 510 346 493 c 128,-1,9
 380 476 380 476 412 445 c 1,10,-1
 415 445 l 1,11,-1
 410 538 l 1,12,-1
 410 729 l 1,13,-1
 490 729 l 1,14,-1
 490 0 l 1,15,-1
 425 0 l 1,16,-1
 418 66 l 1,17,-1
 415 66 l 1,18,19
 385 35 385 35 345 11.5 c 128,-1,20
 305 -12 305 -12 260 -12 c 0,0,1
278 58 m 0,21,22
 313 58 313 58 345 77 c 128,-1,23
 377 96 377 96 410 133 c 1,24,-1
 410 381 l 1,25,26
 377 412 377 412 347 425.5 c 128,-1,27
 317 439 317 439 287 439 c 0,28,29
 246 439 246 439 212 415 c 128,-1,30
 178 391 178 391 158 348.5 c 128,-1,31
 138 306 138 306 138 249 c 0,32,33
 138 160 138 160 175.5 109 c 128,-1,34
 213 58 213 58 278 58 c 0,21,22
561 561 m 1,35,-1
 558 836 l 1,36,-1
 635 836 l 1,37,-1
 634 753 l 1,38,-1
 620 561 l 1,39,-1
 561 561 l 1,35,-1
EndSplineSet
Validated: 1
Ligature2: "'ccmp' Glyph Composition/Decomposition lookup 11 subtable" d uni030C
EndChar

StartChar: dcroat
Encoding: 273 273 296
Width: 614
GlyphClass: 2
Flags: W
AnchorPoint: "Anchor-3" 311 -20 basechar 0
AnchorPoint: "Anchor-0" 470 754 basechar 0
LayerCount: 2
Fore
SplineSet
278 -12 m 0,0,1
 181 -12 181 -12 121 53 c 128,-1,2
 61 118 61 118 61 238 c 0,3,4
 61 316 61 316 93.5 372 c 128,-1,5
 126 428 126 428 177.5 458.5 c 128,-1,6
 229 489 229 489 288 489 c 0,7,8
 333 489 333 489 368.5 472 c 128,-1,9
 404 455 404 455 436 425 c 1,10,-1
 439 425 l 1,11,-1
 435 517 l 1,12,-1
 435 729 l 1,13,-1
 519 729 l 1,14,-1
 519 0 l 1,15,-1
 450 0 l 1,16,-1
 442 66 l 1,17,-1
 439 66 l 1,18,19
 408 34 408 34 366 11 c 128,-1,20
 324 -12 324 -12 278 -12 c 0,0,1
295 58 m 0,21,22
 332 58 332 58 367 77 c 128,-1,23
 402 96 402 96 435 133 c 1,24,-1
 435 360 l 1,25,26
 401 392 401 392 369 405.5 c 128,-1,27
 337 419 337 419 305 419 c 0,28,29
 262 419 262 419 226 396 c 128,-1,30
 190 373 190 373 169 332.5 c 128,-1,31
 148 292 148 292 148 239 c 0,32,33
 148 155 148 155 187 106.5 c 128,-1,34
 226 58 226 58 295 58 c 0,21,22
256 575 m 1,35,-1
 256 641 l 1,36,-1
 594 641 l 1,37,-1
 594 582 l 1,38,-1
 516 575 l 1,39,-1
 256 575 l 1,35,-1
EndSplineSet
Validated: 5
EndChar

StartChar: eogonek
Encoding: 281 281 304
Width: 614
GlyphClass: 2
Flags: W
AnchorPoint: "Anchor-0" 322 519 basechar 0
LayerCount: 2
Fore
SplineSet
432 -230 m 0,0,1
 386 -230 386 -230 356.5 -206.5 c 128,-1,2
 327 -183 327 -183 327 -135 c 256,3,4
 327 -87 327 -87 356 -51 c 128,-1,5
 385 -15 385 -15 429 18 c 1,6,-1
 434 11 l 1,7,8
 394 -8 394 -8 370.5 -10 c 128,-1,9
 347 -12 347 -12 338 -12 c 0,10,11
 263 -12 263 -12 202 18.5 c 128,-1,12
 141 49 141 49 105.5 107.5 c 128,-1,13
 70 166 70 166 70 248 c 256,14,15
 70 330 70 330 105.5 388.5 c 128,-1,16
 141 447 141 447 199 478.5 c 128,-1,17
 257 510 257 510 324 510 c 0,18,19
 396 510 396 510 446.5 481 c 128,-1,20
 497 452 497 452 524 399.5 c 128,-1,21
 551 347 551 347 551 276 c 0,22,23
 551 262 551 262 550 249 c 128,-1,24
 549 236 549 236 547 225 c 1,25,-1
 126 225 l 1,26,-1
 126 291 l 1,27,-1
 497 291 l 1,28,-1
 475 267 l 1,29,30
 475 355 475 355 434.5 399 c 128,-1,31
 394 443 394 443 326 443 c 0,32,33
 280 443 280 443 240.5 420.5 c 128,-1,34
 201 398 201 398 177.5 355 c 128,-1,35
 154 312 154 312 154 250 c 0,36,37
 154 185 154 185 179.5 142 c 128,-1,38
 205 99 205 99 249 77 c 128,-1,39
 293 55 293 55 348 55 c 0,40,41
 393 55 393 55 429.5 68 c 128,-1,42
 466 81 466 81 500 102 c 1,43,-1
 530 47 l 1,44,45
 478 10 478 10 447 -17 c 128,-1,46
 416 -44 416 -44 402.5 -68 c 128,-1,47
 389 -92 389 -92 389 -119 c 0,48,49
 389 -148 389 -148 407.5 -161.5 c 128,-1,50
 426 -175 426 -175 450 -175 c 0,51,52
 467 -175 467 -175 480.5 -169 c 128,-1,53
 494 -163 494 -163 504 -154 c 1,54,-1
 528 -194 l 1,55,56
 510 -210 510 -210 486 -220 c 128,-1,57
 462 -230 462 -230 432 -230 c 0,0,1
EndSplineSet
Validated: 5
Substitution2: "'sups' Superscript lookup 23 subtable" eogonek.sups
Ligature2: "'ccmp' Glyph Composition/Decomposition lookup 11 subtable" e uni0328
EndChar

StartChar: hbar
Encoding: 295 295 329
Width: 614
GlyphClass: 1
Flags: W
LayerCount: 2
Fore
SplineSet
95 0 m 1,0,-1
 95 729 l 1,1,-1
 179 729 l 1,2,-1
 179 510 l 1,3,-1
 174 392 l 1,4,-1
 177 392 l 1,5,6
 216 434 216 434 260.5 461.5 c 128,-1,7
 305 489 305 489 364 489 c 0,8,9
 452 489 452 489 494 438 c 128,-1,10
 536 387 536 387 536 289 c 2,11,-1
 536 0 l 1,12,-1
 452 0 l 1,13,-1
 452 278 l 2,14,15
 452 349 452 349 425 383 c 128,-1,16
 398 417 398 417 337 417 c 0,17,18
 293 417 293 417 258 394.5 c 128,-1,19
 223 372 223 372 179 327 c 1,20,-1
 179 0 l 1,21,-1
 95 0 l 1,0,-1
20 575 m 1,22,-1
 20 635 l 1,23,-1
 100 641 l 1,24,-1
 397 641 l 1,25,-1
 397 575 l 1,26,-1
 20 575 l 1,22,-1
EndSplineSet
Validated: 5
EndChar

StartChar: dotlessi
Encoding: 305 305 341
Width: 614
GlyphClass: 2
Flags: W
AnchorPoint: "Anchor-6" 365 0 basechar 0
AnchorPoint: "Anchor-3" 356 -20 basechar 0
AnchorPoint: "Anchor-2" 362 0 basechar 0
AnchorPoint: "Anchor-0" 356 519 basechar 0
LayerCount: 2
Fore
SplineSet
324 0 m 1,0,-1
 324 429 l 1,1,-1
 92 429 l 1,2,-1
 92 498 l 1,3,-1
 408 498 l 1,4,-1
 408 0 l 1,5,-1
 324 0 l 1,0,-1
EndSplineSet
Validated: 1
Substitution2: "'ss04' Style Set 4 lookup 31 subtable" dotlessi.a
EndChar

StartChar: kgreenlandic
Encoding: 312 312 346
Width: 614
GlyphClass: 1
Flags: W
LayerCount: 2
Fore
SplineSet
109 0 m 1,0,-1
 109 498 l 1,1,-1
 193 498 l 1,2,-1
 193 236 l 1,3,-1
 196 237 l 1,4,-1
 465 498 l 1,5,-1
 561 498 l 1,6,-1
 362 300 l 1,7,-1
 588 0 l 1,8,-1
 494 0 l 1,9,-1
 310 246 l 1,10,-1
 193 133 l 1,11,-1
 193 0 l 1,12,-1
 109 0 l 1,0,-1
EndSplineSet
Validated: 1
EndChar

StartChar: lslash
Encoding: 322 322 353
Width: 614
GlyphClass: 2
Flags: W
AnchorPoint: "Anchor-3" 394 -20 basechar 0
AnchorPoint: "Anchor-0" 292 754 basechar 0
LayerCount: 2
Fore
SplineSet
142 278 m 1,0,-1
 113 333 l 1,1,-1
 257 417 l 1,2,-1
 324 446 l 1,3,-1
 488 540 l 1,4,-1
 517 484 l 1,5,-1
 324 375 l 1,6,-1
 257 345 l 1,7,-1
 142 278 l 1,0,-1
417 -12 m 0,8,9
 338 -12 338 -12 295.5 33.5 c 128,-1,10
 253 79 253 79 253 167 c 2,11,-1
 253 660 l 1,12,-1
 76 660 l 1,13,-1
 76 729 l 1,14,-1
 337 729 l 1,15,-1
 337 161 l 2,16,17
 337 108 337 108 363.5 82.5 c 128,-1,18
 390 57 390 57 435 57 c 0,19,20
 457 57 457 57 480 63 c 128,-1,21
 503 69 503 69 528 80 c 1,22,-1
 550 17 l 1,23,24
 515 3 515 3 486.5 -4.5 c 128,-1,25
 458 -12 458 -12 417 -12 c 0,8,9
EndSplineSet
Validated: 5
Substitution2: "'ss04' Style Set 4 lookup 31 subtable" lslash.a
EndChar

StartChar: napostrophe
Encoding: 329 329 366
Width: 614
GlyphClass: 1
Flags: W
LayerCount: 2
Fore
SplineSet
201 0 m 1,0,-1
 201 498 l 1,1,-1
 270 498 l 1,2,-1
 278 420 l 1,3,-1
 282 420 l 1,4,5
 319 458 319 458 359 484 c 128,-1,6
 399 510 399 510 454 510 c 0,7,8
 535 510 535 510 573.5 460.5 c 128,-1,9
 612 411 612 411 612 315 c 2,10,-1
 612 0 l 1,11,-1
 527 0 l 1,12,-1
 527 304 l 2,13,14
 527 372 527 372 503.5 404.5 c 128,-1,15
 480 437 480 437 427 437 c 0,16,17
 387 437 387 437 356 416 c 128,-1,18
 325 395 325 395 285 354 c 1,19,-1
 285 0 l 1,20,-1
 201 0 l 1,0,-1
5 358 m 1,21,-1
 -23 408 l 1,22,23
 28 438 28 438 56 482 c 128,-1,24
 84 526 84 526 84 585 c 1,25,-1
 65 665 l 1,26,-1
 121 596 l 1,27,28
 108 582 108 582 91 572.5 c 128,-1,29
 74 563 74 563 57 563 c 0,30,31
 25 563 25 563 5 583.5 c 128,-1,32
 -15 604 -15 604 -15 636 c 0,33,34
 -15 672 -15 672 6 694 c 128,-1,35
 27 716 27 716 60 716 c 0,36,37
 100 716 100 716 126.5 683 c 128,-1,38
 153 650 153 650 153 592 c 0,39,40
 153 515 153 515 114 454 c 128,-1,41
 75 393 75 393 5 358 c 1,21,-1
EndSplineSet
Validated: 5
EndChar

StartChar: uni01EB
Encoding: 491 491 375
Width: 614
GlyphClass: 2
Flags: W
AnchorPoint: "Anchor-0" 307 519 basechar 0
LayerCount: 2
Fore
SplineSet
332 -230 m 0,0,1
 288 -230 288 -230 258 -207 c 128,-1,2
 228 -184 228 -184 228 -135 c 0,3,4
 228 -95 228 -95 249.5 -64 c 128,-1,5
 271 -33 271 -33 298 -11 c 1,6,7
 229 -8 229 -8 176 24.5 c 128,-1,8
 123 57 123 57 92 114 c 128,-1,9
 61 171 61 171 61 248 c 0,10,11
 61 332 61 332 95.5 390.5 c 128,-1,12
 130 449 130 449 186 479.5 c 128,-1,13
 242 510 242 510 307 510 c 256,14,15
 373 510 373 510 428.5 479.5 c 128,-1,16
 484 449 484 449 518.5 390.5 c 128,-1,17
 553 332 553 332 553 248 c 0,18,19
 553 179 553 179 531 131.5 c 128,-1,20
 509 84 509 84 469.5 51.5 c 128,-1,21
 430 19 430 19 378 -3 c 0,22,23
 337 -21 337 -21 314 -54 c 128,-1,24
 291 -87 291 -87 291 -119 c 0,25,26
 291 -148 291 -148 309.5 -161.5 c 128,-1,27
 328 -175 328 -175 349 -175 c 0,28,29
 368 -175 368 -175 381.5 -168.5 c 128,-1,30
 395 -162 395 -162 404 -154 c 1,31,-1
 429 -194 l 1,32,33
 412 -210 412 -210 388 -220 c 128,-1,34
 364 -230 364 -230 332 -230 c 0,0,1
307 56 m 256,35,36
 355 56 355 56 391 80 c 128,-1,37
 427 104 427 104 446.5 147 c 128,-1,38
 466 190 466 190 466 248 c 256,39,40
 466 305 466 305 446.5 348.5 c 128,-1,41
 427 392 427 392 391 416 c 128,-1,42
 355 440 355 440 307 440 c 256,43,44
 259 440 259 440 223.5 416 c 128,-1,45
 188 392 188 392 168 348.5 c 128,-1,46
 148 305 148 305 148 248 c 256,47,48
 148 191 148 191 168 147.5 c 128,-1,49
 188 104 188 104 223.5 80 c 128,-1,50
 259 56 259 56 307 56 c 256,35,36
EndSplineSet
Validated: 1
Ligature2: "'ccmp' Glyph Composition/Decomposition lookup 11 subtable" o uni0328
EndChar

StartChar: ohorn
Encoding: 417 417 385
Width: 614
GlyphClass: 2
Flags: W
AnchorPoint: "Anchor-3" 307 -20 basechar 0
AnchorPoint: "Anchor-0" 307 519 basechar 0
LayerCount: 2
Fore
SplineSet
452 453 m 1,0,-1
 402 486 l 1,1,2
 448 494 448 494 473.5 519 c 128,-1,3
 499 544 499 544 499 590 c 0,4,5
 499 605 499 605 495.5 621 c 128,-1,6
 492 637 492 637 483 649 c 1,7,-1
 549 680 l 1,8,9
 559 663 559 663 565.5 641.5 c 128,-1,10
 572 620 572 620 572 596 c 0,11,12
 572 554 572 554 555.5 525.5 c 128,-1,13
 539 497 539 497 511.5 479 c 128,-1,14
 484 461 484 461 452 453 c 1,0,-1
307 -12 m 256,15,16
 241 -12 241 -12 185.5 18.5 c 128,-1,17
 130 49 130 49 95.5 107.5 c 128,-1,18
 61 166 61 166 61 248 c 0,19,20
 61 332 61 332 95.5 390.5 c 128,-1,21
 130 449 130 449 186 479.5 c 128,-1,22
 242 510 242 510 307 510 c 256,23,24
 373 510 373 510 428.5 479.5 c 128,-1,25
 484 449 484 449 518.5 390.5 c 128,-1,26
 553 332 553 332 553 248 c 0,27,28
 553 166 553 166 518.5 107.5 c 128,-1,29
 484 49 484 49 428.5 18.5 c 128,-1,30
 373 -12 373 -12 307 -12 c 256,15,16
307 57 m 256,31,32
 355 57 355 57 391 81 c 128,-1,33
 427 105 427 105 446.5 148 c 128,-1,34
 466 191 466 191 466 248 c 0,35,36
 466 305 466 305 446.5 348.5 c 128,-1,37
 427 392 427 392 391 416 c 128,-1,38
 355 440 355 440 307 440 c 256,39,40
 259 440 259 440 223.5 416 c 128,-1,41
 188 392 188 392 168 348.5 c 128,-1,42
 148 305 148 305 148 248 c 0,43,44
 148 192 148 192 168 148.5 c 128,-1,45
 188 105 188 105 223.5 81 c 128,-1,46
 259 57 259 57 307 57 c 256,31,32
EndSplineSet
Validated: 5
EndChar

StartChar: oslash
Encoding: 248 248 391
Width: 614
GlyphClass: 2
Flags: W
AnchorPoint: "Anchor-3" 307 -20 basechar 0
AnchorPoint: "Anchor-2" 307 0 basechar 0
AnchorPoint: "Anchor-0" 307 519 basechar 0
LayerCount: 2
Fore
SplineSet
307 -12 m 256,0,1
 241 -12 241 -12 185.5 18.5 c 128,-1,2
 130 49 130 49 95.5 107.5 c 128,-1,3
 61 166 61 166 61 248 c 0,4,5
 61 332 61 332 95.5 390.5 c 128,-1,6
 130 449 130 449 186 479.5 c 128,-1,7
 242 510 242 510 307 510 c 256,8,9
 373 510 373 510 428.5 479.5 c 128,-1,10
 484 449 484 449 518.5 390.5 c 128,-1,11
 553 332 553 332 553 248 c 0,12,13
 553 166 553 166 518.5 107.5 c 128,-1,14
 484 49 484 49 428.5 18.5 c 128,-1,15
 373 -12 373 -12 307 -12 c 256,0,1
307 55 m 0,16,17
 355 55 355 55 390.5 79.5 c 128,-1,18
 426 104 426 104 446 147.5 c 128,-1,19
 466 191 466 191 466 248 c 0,20,21
 466 305 466 305 446 349 c 128,-1,22
 426 393 426 393 390.5 417.5 c 128,-1,23
 355 442 355 442 307 442 c 0,24,25
 260 442 260 442 224 417.5 c 128,-1,26
 188 393 188 393 168 349 c 128,-1,27
 148 305 148 305 148 248 c 0,28,29
 148 192 148 192 168 148 c 128,-1,30
 188 104 188 104 224 79.5 c 128,-1,31
 260 55 260 55 307 55 c 0,16,17
111 -31 m 1,32,-1
 63 12 l 1,33,-1
 504 528 l 1,34,-1
 551 485 l 1,35,-1
 111 -31 l 1,32,-1
EndSplineSet
Validated: 5
EndChar

StartChar: oe
Encoding: 339 339 393
Width: 614
GlyphClass: 2
Flags: W
AnchorPoint: "Anchor-3" 316 -20 basechar 0
AnchorPoint: "Anchor-2" 466 0 basechar 0
AnchorPoint: "Anchor-0" 326 519 basechar 0
LayerCount: 2
Fore
SplineSet
193 57 m 0,0,1
 223 57 223 57 244.5 81 c 128,-1,2
 266 105 266 105 278.5 149 c 128,-1,3
 291 193 291 193 291 249 c 0,4,5
 291 306 291 306 278.5 349 c 128,-1,6
 266 392 266 392 244 416 c 128,-1,7
 222 440 222 440 193 440 c 0,8,9
 143 440 143 440 116.5 387.5 c 128,-1,10
 90 335 90 335 90 248 c 0,11,12
 90 163 90 163 116.5 110 c 128,-1,13
 143 57 143 57 193 57 c 0,0,1
187 -12 m 0,14,15
 137 -12 137 -12 97 18.5 c 128,-1,16
 57 49 57 49 34 107.5 c 128,-1,17
 11 166 11 166 11 248 c 0,18,19
 11 332 11 332 34.5 390.5 c 128,-1,20
 58 449 58 449 98 479.5 c 128,-1,21
 138 510 138 510 188 510 c 0,22,23
 240 510 240 510 276 472 c 128,-1,24
 312 434 312 434 332 355 c 1,25,-1
 314 355 l 1,26,27
 331 434 331 434 371 472 c 128,-1,28
 411 510 411 510 464 510 c 0,29,30
 513 510 513 510 546 478.5 c 128,-1,31
 579 447 579 447 595 395.5 c 128,-1,32
 611 344 611 344 611 283 c 0,33,34
 611 269 611 269 610 254 c 128,-1,35
 609 239 609 239 607 225 c 1,36,-1
 334 225 l 1,37,-1
 334 291 l 1,38,-1
 558 291 l 1,39,-1
 543 270 l 1,40,41
 543 357 543 357 522 400 c 128,-1,42
 501 443 501 443 457 443 c 0,43,44
 412 443 412 443 383 394.5 c 128,-1,45
 354 346 354 346 354 250 c 0,46,47
 354 153 354 153 389 104.5 c 128,-1,48
 424 56 424 56 477 56 c 0,49,50
 504 56 504 56 525 66 c 128,-1,51
 546 76 546 76 565 89 c 1,52,-1
 596 32 l 1,53,54
 572 14 572 14 541 1 c 128,-1,55
 510 -12 510 -12 474 -12 c 0,56,57
 437 -12 437 -12 405 4 c 128,-1,58
 373 20 373 20 349.5 54 c 128,-1,59
 326 88 326 88 314 140 c 1,60,-1
 333 140 l 1,61,62
 314 61 314 61 277 24.5 c 128,-1,63
 240 -12 240 -12 187 -12 c 0,14,15
EndSplineSet
Validated: 5
EndChar

StartChar: germandbls
Encoding: 223 223 409
Width: 614
GlyphClass: 1
Flags: W
LayerCount: 2
Fore
SplineSet
411 -12 m 0,0,1
 368 -12 368 -12 332 0 c 128,-1,2
 296 12 296 12 263 34 c 1,3,-1
 297 93 l 1,4,5
 326 73 326 73 352.5 63 c 128,-1,6
 379 53 379 53 409 53 c 0,7,8
 453 53 453 53 475.5 77 c 128,-1,9
 498 101 498 101 498 133 c 0,10,11
 498 163 498 163 483 183 c 128,-1,12
 468 203 468 203 444.5 216.5 c 128,-1,13
 421 230 421 230 394.5 244 c 128,-1,14
 368 258 368 258 344.5 274 c 128,-1,15
 321 290 321 290 306 314 c 128,-1,16
 291 338 291 338 291 373 c 0,17,18
 291 409 291 409 304.5 434 c 128,-1,19
 318 459 318 459 336.5 481.5 c 128,-1,20
 355 504 355 504 369 528.5 c 128,-1,21
 383 553 383 553 383 585 c 0,22,23
 383 623 383 623 360.5 648 c 128,-1,24
 338 673 338 673 295 673 c 0,25,26
 240 673 240 673 207 634 c 128,-1,27
 174 595 174 595 174 519 c 2,28,-1
 174 0 l 1,29,-1
 90 0 l 1,30,-1
 90 531 l 2,31,32
 90 593 90 593 114.5 641 c 128,-1,33
 139 689 139 689 185.5 715 c 128,-1,34
 232 741 232 741 296 741 c 0,35,36
 350 741 350 741 387.5 720.5 c 128,-1,37
 425 700 425 700 444.5 665.5 c 128,-1,38
 464 631 464 631 464 590 c 0,39,40
 464 552 464 552 450 524.5 c 128,-1,41
 436 497 436 497 417.5 475 c 128,-1,42
 399 453 399 453 385.5 431.5 c 128,-1,43
 372 410 372 410 372 383 c 0,44,45
 372 358 372 358 386.5 341.5 c 128,-1,46
 401 325 401 325 425 312 c 128,-1,47
 449 299 449 299 475 285 c 128,-1,48
 501 271 501 271 524.5 252.5 c 128,-1,49
 548 234 548 234 563 207.5 c 128,-1,50
 578 181 578 181 578 140 c 0,51,52
 578 97 578 97 557.5 63 c 128,-1,53
 537 29 537 29 499.5 8.5 c 128,-1,54
 462 -12 462 -12 411 -12 c 0,0,1
EndSplineSet
Validated: 1
EndChar

StartChar: longs
Encoding: 383 383 410
Width: 614
GlyphClass: 1
Flags: W
LayerCount: 2
Fore
SplineSet
248 0 m 1,0,-1
 248 540 l 2,1,2
 248 600 248 600 270 645.5 c 128,-1,3
 292 691 292 691 336 716 c 128,-1,4
 380 741 380 741 449 741 c 0,5,6
 486 741 486 741 521 734.5 c 128,-1,7
 556 728 556 728 592 713 c 1,8,-1
 572 649 l 1,9,10
 541 663 541 663 515 668 c 128,-1,11
 489 673 489 673 457 673 c 0,12,13
 390 673 390 673 360.5 638 c 128,-1,14
 331 603 331 603 331 543 c 2,15,-1
 331 0 l 1,16,-1
 248 0 l 1,0,-1
105 429 m 1,17,-1
 105 493 l 1,18,-1
 251 498 l 1,19,-1
 301 498 l 1,20,-1
 301 429 l 1,21,-1
 105 429 l 1,17,-1
EndSplineSet
Validated: 5
EndChar

StartChar: tbar
Encoding: 359 359 417
Width: 614
GlyphClass: 2
Flags: W
AnchorPoint: "Anchor-3" 389 -20 basechar 0
AnchorPoint: "Anchor-0" 262 658 basechar 0
LayerCount: 2
Fore
SplineSet
72 225 m 1,0,-1
 72 285 l 1,1,-1
 215 291 l 1,2,-1
 520 291 l 1,3,-1
 520 225 l 1,4,-1
 72 225 l 1,0,-1
403 -12 m 0,5,6
 330 -12 330 -12 288.5 14 c 128,-1,7
 247 40 247 40 229 86 c 128,-1,8
 211 132 211 132 211 194 c 2,9,-1
 211 429 l 1,10,-1
 71 429 l 1,11,-1
 71 493 l 1,12,-1
 214 498 l 1,13,-1
 225 657 l 1,14,-1
 295 657 l 1,15,-1
 295 498 l 1,16,-1
 540 498 l 1,17,-1
 540 429 l 1,18,-1
 295 429 l 1,19,-1
 295 193 l 2,20,21
 295 149 295 149 306 118 c 128,-1,22
 317 87 317 87 345 71.5 c 128,-1,23
 373 56 373 56 421 56 c 0,24,25
 457 56 457 56 485.5 62.5 c 128,-1,26
 514 69 514 69 541 79 c 1,27,-1
 559 17 l 1,28,29
 525 5 525 5 487.5 -3.5 c 128,-1,30
 450 -12 450 -12 403 -12 c 0,5,6
EndSplineSet
Validated: 5
EndChar

StartChar: uogonek
Encoding: 371 371 428
Width: 614
GlyphClass: 2
Flags: W
AnchorPoint: "Anchor-0" 302 519 basechar 0
LayerCount: 2
Fore
SplineSet
457 -230 m 0,0,1
 412 -230 412 -230 381.5 -206.5 c 128,-1,2
 351 -183 351 -183 351 -135 c 0,3,4
 351 -105 351 -105 364 -80.5 c 128,-1,5
 377 -56 377 -56 399.5 -36 c 128,-1,6
 422 -16 422 -16 449 0 c 1,7,-1
 441 87 l 1,8,-1
 437 87 l 1,9,10
 399 44 399 44 354 16 c 128,-1,11
 309 -12 309 -12 252 -12 c 0,12,13
 163 -12 163 -12 121 39 c 128,-1,14
 79 90 79 90 79 188 c 2,15,-1
 79 498 l 1,16,-1
 164 498 l 1,17,-1
 164 200 l 2,18,19
 164 129 164 129 190 94.5 c 128,-1,20
 216 60 216 60 279 60 c 0,21,22
 322 60 322 60 357 82 c 128,-1,23
 392 104 392 104 433 153 c 1,24,-1
 433 498 l 1,25,-1
 517 498 l 1,26,-1
 517 -5 l 1,27,28
 462 -30 462 -30 438 -59.5 c 128,-1,29
 414 -89 414 -89 414 -119 c 0,30,31
 414 -148 414 -148 432.5 -161.5 c 128,-1,32
 451 -175 451 -175 474 -175 c 0,33,34
 491 -175 491 -175 505 -168.5 c 128,-1,35
 519 -162 519 -162 527 -154 c 1,36,-1
 552 -194 l 1,37,38
 535 -210 535 -210 511 -220 c 128,-1,39
 487 -230 487 -230 457 -230 c 0,0,1
EndSplineSet
Validated: 1
Ligature2: "'ccmp' Glyph Composition/Decomposition lookup 11 subtable" u uni0328
EndChar

StartChar: uhorn
Encoding: 432 432 435
Width: 614
GlyphClass: 2
Flags: W
AnchorPoint: "Anchor-3" 307 -20 basechar 0
AnchorPoint: "Anchor-0" 302 519 basechar 0
LayerCount: 2
Fore
SplineSet
509 465 m 1,0,-1
 450 498 l 1,1,2
 475 502 475 502 494.5 511.5 c 128,-1,3
 514 521 514 521 526 541.5 c 128,-1,4
 538 562 538 562 538 596 c 0,5,6
 538 611 538 611 534.5 627 c 128,-1,7
 531 643 531 643 523 655 c 1,8,-1
 589 686 l 1,9,10
 600 670 600 670 606 648 c 128,-1,11
 612 626 612 626 612 602 c 0,12,13
 612 561 612 561 597 534 c 128,-1,14
 582 507 582 507 558.5 490.5 c 128,-1,15
 535 474 535 474 509 465 c 1,0,-1
252 -12 m 0,16,17
 163 -12 163 -12 121 39 c 128,-1,18
 79 90 79 90 79 188 c 2,19,-1
 79 498 l 1,20,-1
 164 498 l 1,21,-1
 164 200 l 2,22,23
 164 129 164 129 190 94.5 c 128,-1,24
 216 60 216 60 279 60 c 0,25,26
 322 60 322 60 357 82 c 128,-1,27
 392 104 392 104 433 153 c 1,28,-1
 433 498 l 1,29,-1
 517 498 l 1,30,-1
 517 0 l 1,31,-1
 449 0 l 1,32,-1
 441 87 l 1,33,-1
 437 87 l 1,34,35
 399 44 399 44 354 16 c 128,-1,36
 309 -12 309 -12 252 -12 c 0,16,17
EndSplineSet
Validated: 5
EndChar

StartChar: eth
Encoding: 240 240 460
Width: 614
GlyphClass: 2
Flags: W
AnchorPoint: "Anchor-3" 313 -20 basechar 0
AnchorPoint: "Anchor-0" 338 754 basechar 0
LayerCount: 2
Fore
SplineSet
305 -12 m 0,0,1
 240 -12 240 -12 184.5 17 c 128,-1,2
 129 46 129 46 95 100 c 128,-1,3
 61 154 61 154 61 227 c 0,4,5
 61 297 61 297 91.5 348.5 c 128,-1,6
 122 400 122 400 174.5 429 c 128,-1,7
 227 458 227 458 295 458 c 0,8,9
 348 458 348 458 395.5 430.5 c 128,-1,10
 443 403 443 403 470 356 c 1,11,-1
 471 299 l 1,12,13
 435 350 435 350 392 371 c 128,-1,14
 349 392 349 392 307 392 c 0,15,16
 252 392 252 392 215 370.5 c 128,-1,17
 178 349 178 349 159 311.5 c 128,-1,18
 140 274 140 274 140 227 c 0,19,20
 140 176 140 176 162.5 137.5 c 128,-1,21
 185 99 185 99 223 78 c 128,-1,22
 261 57 261 57 307 57 c 0,23,24
 361 57 361 57 397 83.5 c 128,-1,25
 433 110 433 110 450.5 155.5 c 128,-1,26
 468 201 468 201 468 260 c 0,27,28
 468 350 468 350 447.5 417 c 128,-1,29
 427 484 427 484 388 534 c 128,-1,30
 349 584 349 584 294 622 c 128,-1,31
 239 660 239 660 169 694 c 1,32,-1
 208 748 l 1,33,34
 279 715 279 715 340 672.5 c 128,-1,35
 401 630 401 630 448.5 572.5 c 128,-1,36
 496 515 496 515 522.5 438.5 c 128,-1,37
 549 362 549 362 549 263 c 0,38,39
 549 181 549 181 519 119 c 128,-1,40
 489 57 489 57 434.5 22.5 c 128,-1,41
 380 -12 380 -12 305 -12 c 0,0,1
184 506 m 1,42,-1
 154 559 l 1,43,-1
 496 733 l 1,44,-1
 526 682 l 1,45,-1
 184 506 l 1,42,-1
EndSplineSet
Validated: 5
EndChar

StartChar: thorn
Encoding: 254 254 461
Width: 614
GlyphClass: 2
Flags: W
AnchorPoint: "Anchor-3" 140 -224 basechar 0
AnchorPoint: "Anchor-0" 140 754 basechar 0
LayerCount: 2
Fore
SplineSet
95 -210 m 1,0,-1
 95 729 l 1,1,-1
 179 729 l 1,2,-1
 179 523 l 1,3,-1
 176 434 l 1,4,-1
 179 434 l 1,5,6
 214 469 214 469 257.5 489.5 c 128,-1,7
 301 510 301 510 345 510 c 0,8,9
 413 510 413 510 459 478.5 c 128,-1,10
 505 447 505 447 529 390.5 c 128,-1,11
 553 334 553 334 553 256 c 0,12,13
 553 172 553 172 521 111.5 c 128,-1,14
 489 51 489 51 437.5 19.5 c 128,-1,15
 386 -12 386 -12 327 -12 c 0,16,17
 290 -12 290 -12 251 5.5 c 128,-1,18
 212 23 212 23 179 52 c 1,19,-1
 176 52 l 1,20,-1
 179 -42 l 1,21,-1
 179 -210 l 1,22,-1
 95 -210 l 1,0,-1
312 58 m 0,23,24
 355 58 355 58 390.5 81.5 c 128,-1,25
 426 105 426 105 446 150 c 128,-1,26
 466 195 466 195 466 256 c 0,27,28
 466 310 466 310 451.5 351.5 c 128,-1,29
 437 393 437 393 406 416 c 128,-1,30
 375 439 375 439 325 439 c 0,31,32
 292 439 292 439 254.5 421 c 128,-1,33
 217 403 217 403 179 365 c 1,34,-1
 179 117 l 1,35,36
 214 85 214 85 250 71.5 c 128,-1,37
 286 58 286 58 312 58 c 0,23,24
EndSplineSet
Validated: 1
EndChar

StartChar: eng
Encoding: 331 331 462
Width: 614
GlyphClass: 2
Flags: W
AnchorPoint: "Anchor-3" 370 -224 basechar 0
AnchorPoint: "Anchor-0" 326 519 basechar 0
LayerCount: 2
Fore
SplineSet
396 -187 m 0,0,1
 372 -187 372 -187 352.5 -182.5 c 128,-1,2
 333 -178 333 -178 318 -173 c 1,3,-1
 335 -109 l 1,4,5
 346 -113 346 -113 359.5 -116 c 128,-1,6
 373 -119 373 -119 387 -119 c 0,7,8
 426 -119 426 -119 439 -90.5 c 128,-1,9
 452 -62 452 -62 452 -14 c 2,10,-1
 452 298 l 2,11,12
 452 369 452 369 425 403 c 128,-1,13
 398 437 398 437 337 437 c 0,14,15
 293 437 293 437 258 414.5 c 128,-1,16
 223 392 223 392 179 347 c 1,17,-1
 179 0 l 1,18,-1
 95 0 l 1,19,-1
 95 498 l 1,20,-1
 165 498 l 1,21,-1
 172 413 l 1,22,-1
 176 413 l 1,23,24
 215 455 215 455 260 482.5 c 128,-1,25
 305 510 305 510 364 510 c 0,26,27
 452 510 452 510 494 459 c 128,-1,28
 536 408 536 408 536 309 c 2,29,-1
 536 -14 l 2,30,31
 536 -67 536 -67 521.5 -106 c 128,-1,32
 507 -145 507 -145 476.5 -166 c 128,-1,33
 446 -187 446 -187 396 -187 c 0,0,1
EndSplineSet
Validated: 1
EndChar

StartChar: uni0237
Encoding: 567 567 463
Width: 614
GlyphClass: 2
Flags: W
AnchorPoint: "Anchor-3" 243 -224 basechar 0
AnchorPoint: "Anchor-0" 356 519 basechar 0
LayerCount: 2
Fore
SplineSet
199 -222 m 0,0,1
 160 -222 160 -222 123 -212.5 c 128,-1,2
 86 -203 86 -203 56 -188 c 1,3,-1
 84 -126 l 1,4,5
 111 -139 111 -139 140 -146.5 c 128,-1,6
 169 -154 169 -154 198 -154 c 0,7,8
 248 -154 248 -154 275 -138 c 128,-1,9
 302 -122 302 -122 313 -91 c 128,-1,10
 324 -60 324 -60 324 -18 c 2,11,-1
 324 429 l 1,12,-1
 92 429 l 1,13,-1
 92 498 l 1,14,-1
 408 498 l 1,15,-1
 408 -12 l 2,16,17
 408 -58 408 -58 397.5 -96.5 c 128,-1,18
 387 -135 387 -135 363.5 -163 c 128,-1,19
 340 -191 340 -191 299.5 -206.5 c 128,-1,20
 259 -222 259 -222 199 -222 c 0,0,1
EndSplineSet
Validated: 1
EndChar

StartChar: ij
Encoding: 307 307 464
Width: 614
GlyphClass: 1
Flags: W
LayerCount: 2
Fore
SplineSet
115 0 m 1,0,-1
 115 498 l 1,1,-1
 199 498 l 1,2,-1
 199 0 l 1,3,-1
 115 0 l 1,0,-1
158 600 m 256,4,5
 131 600 131 600 113 617 c 128,-1,6
 95 634 95 634 95 659 c 0,7,8
 95 687 95 687 113 703 c 128,-1,9
 131 719 131 719 158 719 c 256,10,11
 185 719 185 719 202 703 c 128,-1,12
 219 687 219 687 219 659 c 0,13,14
 219 633 219 633 202 616.5 c 128,-1,15
 185 600 185 600 158 600 c 256,4,5
380 -222 m 0,16,17
 357 -222 357 -222 339 -218 c 128,-1,18
 321 -214 321 -214 307 -209 c 1,19,-1
 324 -145 l 1,20,21
 334 -148 334 -148 345.5 -151 c 128,-1,22
 357 -154 357 -154 371 -154 c 0,23,24
 408 -154 408 -154 420 -127 c 128,-1,25
 432 -100 432 -100 432 -56 c 2,26,-1
 432 498 l 1,27,-1
 516 498 l 1,28,-1
 516 -56 l 2,29,30
 516 -107 516 -107 503 -144 c 128,-1,31
 490 -181 490 -181 459.5 -201.5 c 128,-1,32
 429 -222 429 -222 380 -222 c 0,16,17
475 600 m 256,33,34
 448 600 448 600 430.5 617 c 128,-1,35
 413 634 413 634 413 659 c 0,36,37
 413 687 413 687 431 703 c 128,-1,38
 449 719 449 719 475 719 c 256,39,40
 502 719 502 719 519.5 703 c 128,-1,41
 537 687 537 687 537 659 c 0,42,43
 537 633 537 633 519.5 616.5 c 128,-1,44
 502 600 502 600 475 600 c 256,33,34
EndSplineSet
Validated: 1
EndChar

StartChar: uni006C00B7006C
Encoding: 1114117 -1 465
Width: 614
GlyphClass: 1
Flags: W
LayerCount: 2
Fore
SplineSet
236 -12 m 0,0,1
 170 -12 170 -12 135.5 33.5 c 128,-1,2
 101 79 101 79 101 167 c 2,3,-1
 101 660 l 1,4,-1
 -8 660 l 1,5,-1
 -8 729 l 1,6,-1
 178 729 l 1,7,-1
 178 161 l 2,8,9
 178 107 178 107 196.5 82 c 128,-1,10
 215 57 215 57 246 57 c 0,11,12
 257 57 257 57 268.5 61.5 c 128,-1,13
 280 66 280 66 295 73 c 1,14,-1
 316 9 l 1,15,16
 296 2 296 2 278.5 -5 c 128,-1,17
 261 -12 261 -12 236 -12 c 0,0,1
301 279 m 256,18,19
 267 279 267 279 244 302 c 128,-1,20
 221 325 221 325 221 365 c 256,21,22
 221 405 221 405 244 427 c 128,-1,23
 267 449 267 449 301 449 c 256,24,25
 335 449 335 449 359 426.5 c 128,-1,26
 383 404 383 404 383 365 c 256,27,28
 383 325 383 325 359 302 c 128,-1,29
 335 279 335 279 301 279 c 256,18,19
553 -12 m 0,30,31
 488 -12 488 -12 454 33.5 c 128,-1,32
 420 79 420 79 420 167 c 2,33,-1
 420 660 l 1,34,-1
 309 660 l 1,35,-1
 309 729 l 1,36,-1
 497 729 l 1,37,-1
 497 161 l 2,38,39
 497 107 497 107 515.5 82 c 128,-1,40
 534 57 534 57 564 57 c 0,41,42
 575 57 575 57 586.5 61.5 c 128,-1,43
 598 66 598 66 613 73 c 1,44,-1
 635 9 l 1,45,46
 615 2 615 2 597 -5 c 128,-1,47
 579 -12 579 -12 553 -12 c 0,30,31
EndSplineSet
Validated: 1
Substitution2: "'ss04' Style Set 4 lookup 31 subtable" uni006C00B7006C.a
Ligature2: "'ccmp' Glyph Composition/Decomposition lookup 11 subtable" l periodcentered l
EndChar

StartChar: uni01330301
Encoding: 1114118 -1 466
Width: 614
GlyphClass: 1
Flags: W
LayerCount: 2
Fore
SplineSet
115 0 m 1,0,-1
 115 498 l 1,1,-1
 199 498 l 1,2,-1
 199 0 l 1,3,-1
 115 0 l 1,0,-1
380 -222 m 0,4,5
 357 -222 357 -222 339 -218 c 128,-1,6
 321 -214 321 -214 307 -209 c 1,7,-1
 324 -145 l 1,8,9
 334 -148 334 -148 345.5 -151 c 128,-1,10
 357 -154 357 -154 371 -154 c 0,11,12
 408 -154 408 -154 420 -127 c 128,-1,13
 432 -100 432 -100 432 -56 c 2,14,-1
 432 498 l 1,15,-1
 516 498 l 1,16,-1
 516 -56 l 2,17,18
 516 -107 516 -107 503 -144 c 128,-1,19
 490 -181 490 -181 459.5 -201.5 c 128,-1,20
 429 -222 429 -222 380 -222 c 0,4,5
126 582 m 1,21,-1
 82 624 l 1,22,-1
 227 796 l 1,23,-1
 287 738 l 1,24,-1
 126 582 l 1,21,-1
443 582 m 1,25,-1
 399 624 l 1,26,-1
 545 796 l 1,27,-1
 604 738 l 1,28,-1
 443 582 l 1,25,-1
EndSplineSet
Validated: 1
Substitution2: "'case' Case-Sensitive Forms lookup 28 subtable" uni01320301
Ligature2: "'ccmp' Glyph Composition/Decomposition lookup 11 subtable" ij uni0301
EndChar

StartChar: uni0250
Encoding: 592 592 467
Width: 614
GlyphClass: 2
Flags: W
AnchorPoint: "Anchor-3" 313 -20 basechar 0
AnchorPoint: "Anchor-0" 332 519 basechar 0
LayerCount: 2
Fore
SplineSet
299 -12 m 0,0,1
 231 -12 231 -12 186 13.5 c 128,-1,2
 141 39 141 39 118.5 84.5 c 128,-1,3
 96 130 96 130 96 193 c 2,4,-1
 96 498 l 1,5,-1
 166 498 l 1,6,-1
 173 430 l 1,7,-1
 176 430 l 1,8,9
 217 463 217 463 268 486.5 c 128,-1,10
 319 510 319 510 372 510 c 0,11,12
 419 510 419 510 457.5 493 c 128,-1,13
 496 476 496 476 519 445 c 128,-1,14
 542 414 542 414 542 369 c 0,15,16
 542 285 542 285 458 241.5 c 128,-1,17
 374 198 374 198 181 183 c 1,18,19
 182 148 182 148 195 119.5 c 128,-1,20
 208 91 208 91 236 74 c 128,-1,21
 264 57 264 57 312 57 c 0,22,23
 345 57 345 57 376.5 66 c 128,-1,24
 408 75 408 75 436.5 88.5 c 128,-1,25
 465 102 465 102 487 117 c 1,26,-1
 520 59 l 1,27,28
 494 43 494 43 459.5 26.5 c 128,-1,29
 425 10 425 10 383.5 -1 c 128,-1,30
 342 -12 342 -12 299 -12 c 0,0,1
181 238 m 1,31,32
 287 247 287 247 348.5 264 c 128,-1,33
 410 281 410 281 435 305.5 c 128,-1,34
 460 330 460 330 460 362 c 0,35,36
 460 391 460 391 444 408.5 c 128,-1,37
 428 426 428 426 403.5 434 c 128,-1,38
 379 442 379 442 350 442 c 0,39,40
 307 442 307 442 265 422.5 c 128,-1,41
 223 403 223 403 181 369 c 1,42,-1
 181 238 l 1,31,32
EndSplineSet
Validated: 1
EndChar

StartChar: uni0252
Encoding: 594 594 468
Width: 614
GlyphClass: 2
Flags: W
AnchorPoint: "Anchor-3" 324 -20 basechar 0
AnchorPoint: "Anchor-0" 327 519 basechar 0
LayerCount: 2
Fore
SplineSet
328 -12 m 0,0,1
 291 -12 291 -12 250 6 c 128,-1,2
 209 24 209 24 173 55 c 1,3,-1
 170 55 l 1,4,-1
 163 0 l 1,5,-1
 95 0 l 1,6,-1
 95 498 l 1,7,-1
 165 498 l 1,8,-1
 172 432 l 1,9,-1
 175 432 l 1,10,11
 205 464 205 464 251.5 487 c 128,-1,12
 298 510 298 510 347 510 c 0,13,14
 414 510 414 510 460 478.5 c 128,-1,15
 506 447 506 447 529.5 390.5 c 128,-1,16
 553 334 553 334 553 257 c 0,17,18
 553 172 553 172 521.5 112 c 128,-1,19
 490 52 490 52 438.5 20 c 128,-1,20
 387 -12 387 -12 328 -12 c 0,0,1
313 58 m 0,21,22
 356 58 356 58 391 81.5 c 128,-1,23
 426 105 426 105 446 149 c 128,-1,24
 466 193 466 193 466 253 c 0,25,26
 466 309 466 309 451 351 c 128,-1,27
 436 393 436 393 405.5 416 c 128,-1,28
 375 439 375 439 325 439 c 0,29,30
 288 439 288 439 250.5 420 c 128,-1,31
 213 401 213 401 179 365 c 1,32,-1
 179 117 l 1,33,34
 216 85 216 85 251 71.5 c 128,-1,35
 286 58 286 58 313 58 c 0,21,22
EndSplineSet
Validated: 1
EndChar

StartChar: uni0253
Encoding: 595 595 469
Width: 614
GlyphClass: 2
Flags: W
AnchorPoint: "Anchor-3" 324 -20 basechar 0
AnchorPoint: "Anchor-0" 300 754 basechar 0
LayerCount: 2
Fore
SplineSet
329 -12 m 0,0,1
 292 -12 292 -12 250 6 c 128,-1,2
 208 24 208 24 173 55 c 1,3,-1
 170 55 l 1,4,-1
 163 0 l 1,5,-1
 95 0 l 1,6,-1
 95 550 l 2,7,8
 95 606 95 606 115.5 649.5 c 128,-1,9
 136 693 136 693 176.5 717 c 128,-1,10
 217 741 217 741 280 741 c 0,11,12
 306 741 306 741 330.5 735.5 c 128,-1,13
 355 730 355 730 375 722 c 1,14,-1
 355 657 l 1,15,16
 339 665 339 665 321 669 c 128,-1,17
 303 673 303 673 288 673 c 0,18,19
 233 673 233 673 207 640.5 c 128,-1,20
 181 608 181 608 179 552 c 2,21,-1
 175 427 l 1,22,-1
 179 427 l 1,23,24
 214 462 214 462 258 482.5 c 128,-1,25
 302 503 302 503 346 503 c 0,26,27
 414 503 414 503 459.5 472 c 128,-1,28
 505 441 505 441 529 385 c 128,-1,29
 553 329 553 329 553 253 c 0,30,31
 553 169 553 169 521 110 c 128,-1,32
 489 51 489 51 438.5 19.5 c 128,-1,33
 388 -12 388 -12 329 -12 c 0,0,1
314 58 m 0,34,35
 357 58 357 58 391.5 81.5 c 128,-1,36
 426 105 426 105 446 148 c 128,-1,37
 466 191 466 191 466 252 c 0,38,39
 466 306 466 306 451.5 346 c 128,-1,40
 437 386 437 386 406.5 409 c 128,-1,41
 376 432 376 432 326 432 c 0,42,43
 292 432 292 432 254.5 414 c 128,-1,44
 217 396 217 396 179 357 c 1,45,-1
 179 117 l 1,46,47
 215 85 215 85 251 71.5 c 128,-1,48
 287 58 287 58 314 58 c 0,34,35
EndSplineSet
Validated: 1
EndChar

StartChar: uni0254
Encoding: 596 596 470
Width: 614
GlyphClass: 2
Flags: W
AnchorPoint: "Anchor-3" 287 -20 basechar 0
AnchorPoint: "Anchor-2" 287 0 basechar 0
AnchorPoint: "Anchor-0" 297 519 basechar 0
LayerCount: 2
Fore
SplineSet
263 -12 m 0,0,1
 206 -12 206 -12 154 8.5 c 128,-1,2
 102 29 102 29 62 66 c 1,3,-1
 100 120 l 1,4,5
 130 94 130 94 169.5 75.5 c 128,-1,6
 209 57 209 57 255 57 c 0,7,8
 312 57 312 57 354.5 81 c 128,-1,9
 397 105 397 105 421 148 c 128,-1,10
 445 191 445 191 445 248 c 0,11,12
 445 305 445 305 422 348.5 c 128,-1,13
 399 392 399 392 358 416 c 128,-1,14
 317 440 317 440 264 440 c 0,15,16
 220 440 220 440 183.5 425 c 128,-1,17
 147 410 147 410 116 383 c 1,18,-1
 73 437 l 1,19,20
 105 467 105 467 154 488.5 c 128,-1,21
 203 510 203 510 269 510 c 0,22,23
 341 510 341 510 401 479.5 c 128,-1,24
 461 449 461 449 496.5 390.5 c 128,-1,25
 532 332 532 332 532 248 c 0,26,27
 532 166 532 166 496.5 107.5 c 128,-1,28
 461 49 461 49 400 18.5 c 128,-1,29
 339 -12 339 -12 263 -12 c 0,0,1
EndSplineSet
Validated: 1
EndChar

StartChar: uni0255
Encoding: 597 597 471
Width: 614
GlyphClass: 2
Flags: W
AnchorPoint: "Anchor-3" 369 -20 basechar 0
AnchorPoint: "Anchor-0" 348 519 basechar 0
LayerCount: 2
Fore
SplineSet
189 -104 m 1,0,-1
 121 -76 l 1,1,2
 155 16 155 16 206 81 c 128,-1,3
 257 146 257 146 315.5 181 c 128,-1,4
 374 216 374 216 427 216 c 0,5,6
 486 216 486 216 518 188.5 c 128,-1,7
 550 161 550 161 550 115 c 0,8,9
 550 80 550 80 530 51.5 c 128,-1,10
 510 23 510 23 469 5.5 c 128,-1,11
 428 -12 428 -12 368 -12 c 0,12,13
 288 -12 288 -12 223 18.5 c 128,-1,14
 158 49 158 49 120 107.5 c 128,-1,15
 82 166 82 166 82 248 c 0,16,17
 82 332 82 332 119.5 390.5 c 128,-1,18
 157 449 157 449 219 479.5 c 128,-1,19
 281 510 281 510 353 510 c 0,20,21
 416 510 416 510 462 489.5 c 128,-1,22
 508 469 508 469 541 437 c 1,23,-1
 500 385 l 1,24,25
 470 413 470 413 434.5 428 c 128,-1,26
 399 443 399 443 356 443 c 0,27,28
 303 443 303 443 259.5 418.5 c 128,-1,29
 216 394 216 394 190.5 350 c 128,-1,30
 165 306 165 306 165 248 c 0,31,32
 165 189 165 189 192 145 c 128,-1,33
 219 101 219 101 265.5 78 c 128,-1,34
 312 55 312 55 370 55 c 0,35,36
 426 55 426 55 454.5 72 c 128,-1,37
 483 89 483 89 483 114 c 0,38,39
 483 132 483 132 469 144 c 128,-1,40
 455 156 455 156 422 156 c 0,41,42
 394 156 394 156 361 137 c 128,-1,43
 328 118 328 118 295 83 c 128,-1,44
 262 48 262 48 233.5 0.5 c 128,-1,45
 205 -47 205 -47 189 -104 c 1,0,-1
EndSplineSet
Validated: 5
EndChar

StartChar: uni0256
Encoding: 598 598 472
Width: 614
GlyphClass: 2
Flags: W
AnchorPoint: "Anchor-3" 314 -224 basechar 0
AnchorPoint: "Anchor-0" 360 754 basechar 0
LayerCount: 2
Fore
SplineSet
559 -180 m 0,0,1
 516 -180 516 -180 489 -162.5 c 128,-1,2
 462 -145 462 -145 448.5 -114 c 128,-1,3
 435 -83 435 -83 435 -40 c 2,4,-1
 437 62 l 1,5,-1
 434 62 l 1,6,7
 405 31 405 31 364 9.5 c 128,-1,8
 323 -12 323 -12 275 -12 c 0,9,10
 212 -12 212 -12 164 18 c 128,-1,11
 116 48 116 48 88.5 106.5 c 128,-1,12
 61 165 61 165 61 248 c 0,13,14
 61 329 61 329 93.5 387.5 c 128,-1,15
 126 446 126 446 177 478 c 128,-1,16
 228 510 228 510 287 510 c 0,17,18
 332 510 332 510 367 493 c 128,-1,19
 402 476 402 476 434 445 c 1,20,-1
 437 445 l 1,21,-1
 432 538 l 1,22,-1
 432 729 l 1,23,-1
 517 729 l 1,24,-1
 517 -22 l 2,25,26
 517 -64 517 -64 528 -88 c 128,-1,27
 539 -112 539 -112 568 -112 c 0,28,29
 578 -112 578 -112 588 -108.5 c 128,-1,30
 598 -105 598 -105 605 -102 c 1,31,-1
 622 -167 l 1,32,33
 612 -172 612 -172 595 -176 c 128,-1,34
 578 -180 578 -180 559 -180 c 0,0,1
295 58 m 0,35,36
 331 58 331 58 365.5 77 c 128,-1,37
 400 96 400 96 432 133 c 1,38,-1
 432 381 l 1,39,40
 399 413 399 413 366 426 c 128,-1,41
 333 439 333 439 301 439 c 0,42,43
 259 439 259 439 224 415 c 128,-1,44
 189 391 189 391 168.5 348.5 c 128,-1,45
 148 306 148 306 148 249 c 0,46,47
 148 160 148 160 187 109 c 128,-1,48
 226 58 226 58 295 58 c 0,35,36
EndSplineSet
Validated: 1
EndChar

StartChar: uni0257
Encoding: 599 599 473
Width: 614
GlyphClass: 2
Flags: W
AnchorPoint: "Anchor-3" 307 -20 basechar 0
AnchorPoint: "Anchor-0" 375 754 basechar 0
LayerCount: 2
Fore
SplineSet
275 -12 m 0,0,1
 179 -12 179 -12 120 56 c 128,-1,2
 61 124 61 124 61 248 c 0,3,4
 61 329 61 329 93 387.5 c 128,-1,5
 125 446 125 446 176 478 c 128,-1,6
 227 510 227 510 286 510 c 0,7,8
 330 510 330 510 365.5 493 c 128,-1,9
 401 476 401 476 433 445 c 1,10,-1
 436 445 l 1,11,-1
 434 538 l 1,12,-1
 434 595 l 2,13,14
 434 641 434 641 448.5 674.5 c 128,-1,15
 463 708 463 708 492.5 725.5 c 128,-1,16
 522 743 522 743 567 743 c 0,17,18
 584 743 584 743 598.5 740.5 c 128,-1,19
 613 738 613 738 625 733 c 1,20,-1
 608 669 l 1,21,22
 601 672 601 672 593.5 673.5 c 128,-1,23
 586 675 586 675 577 675 c 0,24,25
 543 675 543 675 529.5 649.5 c 128,-1,26
 516 624 516 624 516 581 c 2,27,-1
 516 0 l 1,28,-1
 446 0 l 1,29,-1
 439 66 l 1,30,-1
 436 66 l 1,31,32
 406 34 406 34 363.5 11 c 128,-1,33
 321 -12 321 -12 275 -12 c 0,0,1
294 58 m 0,34,35
 330 58 330 58 364.5 77 c 128,-1,36
 399 96 399 96 432 133 c 1,37,-1
 432 381 l 1,38,39
 398 413 398 413 365.5 426 c 128,-1,40
 333 439 333 439 300 439 c 0,41,42
 258 439 258 439 223.5 415 c 128,-1,43
 189 391 189 391 168.5 348.5 c 128,-1,44
 148 306 148 306 148 249 c 0,45,46
 148 160 148 160 187 109 c 128,-1,47
 226 58 226 58 294 58 c 0,34,35
EndSplineSet
Validated: 1
EndChar

StartChar: uni0258
Encoding: 600 600 474
Width: 614
GlyphClass: 2
Flags: W
AnchorPoint: "Anchor-3" 301 -20 basechar 0
AnchorPoint: "Anchor-0" 314 519 basechar 0
LayerCount: 2
Fore
SplineSet
276 -12 m 0,0,1
 217 -12 217 -12 169.5 5.5 c 128,-1,2
 122 23 122 23 85 46 c 1,3,-1
 115 101 l 1,4,5
 150 79 150 79 186.5 67 c 128,-1,6
 223 55 223 55 267 55 c 0,7,8
 322 55 322 55 366 77 c 128,-1,9
 410 99 410 99 435.5 142 c 128,-1,10
 461 185 461 185 461 250 c 0,11,12
 461 312 461 312 439.5 355 c 128,-1,13
 418 398 418 398 380.5 420.5 c 128,-1,14
 343 443 343 443 297 443 c 256,15,16
 251 443 251 443 215.5 423.5 c 128,-1,17
 180 404 180 404 159.5 365.5 c 128,-1,18
 139 327 139 327 139 267 c 1,19,-1
 118 291 l 1,20,-1
 488 291 l 1,21,-1
 488 225 l 1,22,-1
 68 225 l 1,23,24
 67 234 67 234 66 248.5 c 128,-1,25
 65 263 65 263 65 276 c 0,26,27
 65 347 65 347 94.5 399.5 c 128,-1,28
 124 452 124 452 177.5 481 c 128,-1,29
 231 510 231 510 302 510 c 0,30,31
 368 510 368 510 422.5 478 c 128,-1,32
 477 446 477 446 510.5 388 c 128,-1,33
 544 330 544 330 544 248 c 0,34,35
 544 167 544 167 507.5 108.5 c 128,-1,36
 471 50 471 50 410.5 19 c 128,-1,37
 350 -12 350 -12 276 -12 c 0,0,1
EndSplineSet
Validated: 5
EndChar

StartChar: uni0251
Encoding: 593 593 475
Width: 614
GlyphClass: 2
Flags: W
AnchorPoint: "Anchor-3" 311 -20 basechar 0
AnchorPoint: "Anchor-2" 476 0 basechar 0
AnchorPoint: "Anchor-0" 311 519 basechar 0
LayerCount: 2
Fore
SplineSet
276 -12 m 0,0,1
 213 -12 213 -12 164.5 18 c 128,-1,2
 116 48 116 48 88.5 106.5 c 128,-1,3
 61 165 61 165 61 248 c 0,4,5
 61 329 61 329 93 387.5 c 128,-1,6
 125 446 125 446 177 478 c 128,-1,7
 229 510 229 510 289 510 c 0,8,9
 333 510 333 510 370 493 c 128,-1,10
 407 476 407 476 441 442 c 1,11,-1
 444 442 l 1,12,-1
 452 498 l 1,13,-1
 519 498 l 1,14,-1
 519 0 l 1,15,-1
 450 0 l 1,16,-1
 442 66 l 1,17,-1
 439 66 l 1,18,19
 409 34 409 34 366 11 c 128,-1,20
 323 -12 323 -12 276 -12 c 0,0,1
295 58 m 0,21,22
 332 58 332 58 366.5 77 c 128,-1,23
 401 96 401 96 435 133 c 1,24,-1
 435 381 l 1,25,26
 401 413 401 413 369 426 c 128,-1,27
 337 439 337 439 304 439 c 0,28,29
 261 439 261 439 225.5 415 c 128,-1,30
 190 391 190 391 169 348.5 c 128,-1,31
 148 306 148 306 148 249 c 0,32,33
 148 160 148 160 187 109 c 128,-1,34
 226 58 226 58 295 58 c 0,21,22
EndSplineSet
Validated: 1
EndChar

StartChar: uni0259
Encoding: 601 601 477
Width: 614
GlyphClass: 2
Flags: W
AnchorPoint: "Anchor-6" 303 0 basechar 0
AnchorPoint: "Anchor-3" 303 -20 basechar 0
AnchorPoint: "Anchor-2" 303 0 basechar 0
AnchorPoint: "Anchor-0" 317 519 basechar 0
LayerCount: 2
Fore
SplineSet
304 -12 m 0,0,1
 229 -12 229 -12 177 18.5 c 128,-1,2
 125 49 125 49 98 104 c 128,-1,3
 71 159 71 159 71 229 c 0,4,5
 71 242 71 242 72.5 256.5 c 128,-1,6
 74 271 74 271 75 281 c 1,7,-1
 495 281 l 1,8,-1
 495 215 l 1,9,-1
 125 215 l 1,10,-1
 145 239 l 1,11,12
 145 149 145 149 186.5 102 c 128,-1,13
 228 55 228 55 302 55 c 256,14,15
 376 55 376 55 421.5 104 c 128,-1,16
 467 153 467 153 467 248 c 0,17,18
 467 345 467 345 418.5 394 c 128,-1,19
 370 443 370 443 286 443 c 0,20,21
 242 443 242 443 204.5 430.5 c 128,-1,22
 167 418 167 418 133 396 c 1,23,-1
 102 452 l 1,24,25
 140 476 140 476 188 493 c 128,-1,26
 236 510 236 510 295 510 c 0,27,28
 371 510 371 510 428 478.5 c 128,-1,29
 485 447 485 447 517.5 389.5 c 128,-1,30
 550 332 550 332 550 250 c 0,31,32
 550 167 550 167 517 108 c 128,-1,33
 484 49 484 49 428.5 18.5 c 128,-1,34
 373 -12 373 -12 304 -12 c 0,0,1
EndSplineSet
Validated: 5
Substitution2: "'sups' Superscript lookup 23 subtable" uni0259.sups
EndChar

StartChar: uni025A
Encoding: 602 602 478
Width: 614
GlyphClass: 2
Flags: W
AnchorPoint: "Anchor-3" 230 -20 basechar 0
AnchorPoint: "Anchor-0" 234 519 basechar 0
LayerCount: 2
Fore
SplineSet
222 -12 m 256,0,1
 160 -12 160 -12 117.5 16.5 c 128,-1,2
 75 45 75 45 51.5 93.5 c 128,-1,3
 28 142 28 142 23 202 c 1,4,-1
 484 400 l 1,5,-1
 528 383 l 1,6,7
 531 344 531 344 537.5 324 c 128,-1,8
 544 304 544 304 554.5 297 c 128,-1,9
 565 290 565 290 579 290 c 0,10,11
 589 290 589 290 598 295 c 128,-1,12
 607 300 607 300 613 305 c 1,13,-1
 636 261 l 1,14,15
 625 252 625 252 609 244 c 128,-1,16
 593 236 593 236 572 236 c 0,17,18
 553 236 553 236 534 244.5 c 128,-1,19
 515 253 515 253 500 274 c 128,-1,20
 485 295 485 295 478 332 c 1,21,-1
 80 163 l 1,22,-1
 93 188 l 1,23,24
 104 116 104 116 138.5 85 c 128,-1,25
 173 54 173 54 221 54 c 0,26,27
 260 54 260 54 289 75.5 c 128,-1,28
 318 97 318 97 333.5 136 c 128,-1,29
 349 175 349 175 349 225 c 0,30,31
 349 304 349 304 330 351.5 c 128,-1,32
 311 399 311 399 278.5 421 c 128,-1,33
 246 443 246 443 205 443 c 0,34,35
 166 443 166 443 137.5 431.5 c 128,-1,36
 109 420 109 420 82 401 c 1,37,-1
 52 459 l 1,38,39
 86 483 86 483 124 496.5 c 128,-1,40
 162 510 162 510 212 510 c 0,41,42
 275 510 275 510 324.5 478.5 c 128,-1,43
 374 447 374 447 401.5 387.5 c 128,-1,44
 429 328 429 328 429 242 c 0,45,46
 429 168 429 168 403.5 111 c 128,-1,47
 378 54 378 54 331 21 c 128,-1,48
 284 -12 284 -12 222 -12 c 256,0,1
EndSplineSet
Validated: 5
EndChar

StartChar: uni025B
Encoding: 603 603 479
Width: 614
GlyphClass: 2
Flags: W
AnchorPoint: "Anchor-3" 324 -20 basechar 0
AnchorPoint: "Anchor-2" 324 0 basechar 0
AnchorPoint: "Anchor-0" 338 519 basechar 0
LayerCount: 2
Fore
SplineSet
326 -12 m 0,0,1
 257 -12 257 -12 204.5 5.5 c 128,-1,2
 152 23 152 23 122.5 56.5 c 128,-1,3
 93 90 93 90 93 138 c 0,4,5
 93 191 93 191 127 220 c 128,-1,6
 161 249 161 249 210 262 c 1,7,-1
 210 266 l 1,8,9
 168 282 168 282 143.5 311 c 128,-1,10
 119 340 119 340 119 377 c 0,11,12
 119 422 119 422 146.5 451.5 c 128,-1,13
 174 481 174 481 222.5 495.5 c 128,-1,14
 271 510 271 510 334 510 c 256,15,16
 396 510 396 510 446 492.5 c 128,-1,17
 496 475 496 475 536 446 c 1,18,-1
 502 391 l 1,19,20
 466 416 466 416 427.5 429.5 c 128,-1,21
 389 443 389 443 338 443 c 0,22,23
 272 443 272 443 237.5 424.5 c 128,-1,24
 203 406 203 406 203 367 c 0,25,26
 203 330 203 330 241 310.5 c 128,-1,27
 279 291 279 291 353 291 c 2,28,-1
 408 291 l 1,29,-1
 408 225 l 1,30,-1
 339 225 l 2,31,32
 261 225 261 225 219 206 c 128,-1,33
 177 187 177 187 177 145 c 0,34,35
 177 101 177 101 219 78 c 128,-1,36
 261 55 261 55 339 55 c 0,37,38
 389 55 389 55 431.5 69 c 128,-1,39
 474 83 474 83 511 116 c 1,40,-1
 548 60 l 1,41,42
 501 19 501 19 447.5 3.5 c 128,-1,43
 394 -12 394 -12 326 -12 c 0,0,1
EndSplineSet
Validated: 1
EndChar

StartChar: uni025E
Encoding: 606 606 481
Width: 614
GlyphClass: 2
Flags: W
AnchorPoint: "Anchor-3" 308 -20 basechar 0
AnchorPoint: "Anchor-0" 328 519 basechar 0
LayerCount: 2
Fore
SplineSet
335 -12 m 0,0,1
 257 -12 257 -12 195.5 17 c 128,-1,2
 134 46 134 46 98 104 c 128,-1,3
 62 162 62 162 62 247 c 0,4,5
 62 334 62 334 99.5 392.5 c 128,-1,6
 137 451 137 451 198 480.5 c 128,-1,7
 259 510 259 510 329 510 c 0,8,9
 384 510 384 510 428.5 495.5 c 128,-1,10
 473 481 473 481 498.5 451.5 c 128,-1,11
 524 422 524 422 524 376 c 0,12,13
 524 339 524 339 502 309.5 c 128,-1,14
 480 280 480 280 438 265 c 1,15,-1
 438 261 l 1,16,17
 469 255 469 255 494 239 c 128,-1,18
 519 223 519 223 534.5 198 c 128,-1,19
 550 173 550 173 550 137 c 0,20,21
 550 90 550 90 523.5 56.5 c 128,-1,22
 497 23 497 23 449 5.5 c 128,-1,23
 401 -12 401 -12 335 -12 c 0,0,1
336 55 m 0,24,25
 398 55 398 55 432 78 c 128,-1,26
 466 101 466 101 466 144 c 0,27,28
 466 185 466 185 429.5 205 c 128,-1,29
 393 225 393 225 338 225 c 2,30,-1
 302 225 l 1,31,-1
 302 291 l 1,32,-1
 330 291 l 2,33,34
 383 291 383 291 412.5 311.5 c 128,-1,35
 442 332 442 332 442 367 c 0,36,37
 442 406 442 406 412 424.5 c 128,-1,38
 382 443 382 443 332 443 c 0,39,40
 280 443 280 443 238.5 419.5 c 128,-1,41
 197 396 197 396 172 352.5 c 128,-1,42
 147 309 147 309 147 247 c 0,43,44
 147 153 147 153 198 104 c 128,-1,45
 249 55 249 55 336 55 c 0,24,25
EndSplineSet
Validated: 1
EndChar

StartChar: uni025F
Encoding: 607 607 482
Width: 614
GlyphClass: 2
Flags: W
AnchorPoint: "Anchor-3" 243 -224 basechar 0
AnchorPoint: "Anchor-0" 356 519 basechar 0
LayerCount: 2
Fore
SplineSet
125 211 m 1,0,-1
 125 272 l 1,1,-1
 326 279 l 1,2,-1
 578 279 l 1,3,-1
 578 211 l 1,4,-1
 125 211 l 1,0,-1
199 -222 m 0,5,6
 160 -222 160 -222 123 -212.5 c 128,-1,7
 86 -203 86 -203 56 -188 c 1,8,-1
 84 -126 l 1,9,10
 111 -139 111 -139 140 -146.5 c 128,-1,11
 169 -154 169 -154 198 -154 c 0,12,13
 248 -154 248 -154 275 -138 c 128,-1,14
 302 -122 302 -122 313 -91 c 128,-1,15
 324 -60 324 -60 324 -18 c 2,16,-1
 324 429 l 1,17,-1
 92 429 l 1,18,-1
 92 498 l 1,19,-1
 408 498 l 1,20,-1
 408 -12 l 2,21,22
 408 -58 408 -58 397.5 -96.5 c 128,-1,23
 387 -135 387 -135 363.5 -163 c 128,-1,24
 340 -191 340 -191 299.5 -206.5 c 128,-1,25
 259 -222 259 -222 199 -222 c 0,5,6
EndSplineSet
Validated: 5
EndChar

StartChar: uni0260
Encoding: 608 608 483
Width: 614
GlyphClass: 2
Flags: W
AnchorPoint: "Anchor-3" 301 -224 basechar 0
AnchorPoint: "Anchor-0" 311 519 basechar 0
LayerCount: 2
Fore
SplineSet
286 -221 m 0,0,1
 238 -221 238 -221 188 -207 c 128,-1,2
 138 -193 138 -193 97 -167 c 1,3,-1
 129 -108 l 1,4,5
 167 -133 167 -133 208 -143.5 c 128,-1,6
 249 -154 249 -154 286 -154 c 0,7,8
 358 -154 358 -154 394.5 -118 c 128,-1,9
 431 -82 431 -82 432 -23 c 2,10,-1
 436 77 l 1,11,-1
 433 77 l 1,12,13
 405 47 405 47 363.5 26 c 128,-1,14
 322 5 322 5 275 5 c 0,15,16
 212 5 212 5 164 35.5 c 128,-1,17
 116 66 116 66 88.5 122 c 128,-1,18
 61 178 61 178 61 256 c 256,19,20
 61 334 61 334 94 390.5 c 128,-1,21
 127 447 127 447 178 478.5 c 128,-1,22
 229 510 229 510 288 510 c 0,23,24
 332 510 332 510 367.5 492.5 c 128,-1,25
 403 475 403 475 433 445 c 1,26,-1
 436 445 l 1,27,-1
 434 495 l 2,28,29
 434 540 434 540 448.5 573 c 128,-1,30
 463 606 463 606 492.5 625 c 128,-1,31
 522 644 522 644 568 644 c 0,32,33
 585 644 585 644 599.5 641.5 c 128,-1,34
 614 639 614 639 626 634 c 1,35,-1
 609 569 l 1,36,37
 602 572 602 572 594.5 573.5 c 128,-1,38
 587 575 587 575 578 575 c 0,39,40
 544 575 544 575 530.5 549.5 c 128,-1,41
 517 524 517 524 517 481 c 2,42,-1
 517 -25 l 2,43,44
 517 -117 517 -117 456 -169 c 128,-1,45
 395 -221 395 -221 286 -221 c 0,0,1
295 75 m 0,46,47
 331 75 331 75 365 94 c 128,-1,48
 399 113 399 113 432 150 c 1,49,-1
 432 381 l 1,50,51
 399 414 399 414 366 426.5 c 128,-1,52
 333 439 333 439 301 439 c 0,53,54
 259 439 259 439 224 415.5 c 128,-1,55
 189 392 189 392 168.5 351 c 128,-1,56
 148 310 148 310 148 257 c 0,57,58
 148 174 148 174 187 124.5 c 128,-1,59
 226 75 226 75 295 75 c 0,46,47
EndSplineSet
Validated: 1
EndChar

StartChar: uni0261
Encoding: 609 609 484
Width: 614
GlyphClass: 2
Flags: W
AnchorPoint: "Anchor-3" 301 -224 basechar 0
AnchorPoint: "Anchor-0" 317 519 basechar 0
LayerCount: 2
Fore
SplineSet
287 -222 m 0,0,1
 239 -222 239 -222 188.5 -209 c 128,-1,2
 138 -196 138 -196 97 -169 c 1,3,-1
 128 -109 l 1,4,5
 166 -134 166 -134 208 -144.5 c 128,-1,6
 250 -155 250 -155 287 -155 c 0,7,8
 359 -155 359 -155 397 -118.5 c 128,-1,9
 435 -82 435 -82 437 -23 c 2,10,-1
 439 77 l 1,11,-1
 436 77 l 1,12,13
 406 47 406 47 364.5 26 c 128,-1,14
 323 5 323 5 276 5 c 0,15,16
 213 5 213 5 164.5 35.5 c 128,-1,17
 116 66 116 66 88.5 122 c 128,-1,18
 61 178 61 178 61 256 c 256,19,20
 61 334 61 334 93 390.5 c 128,-1,21
 125 447 125 447 176.5 478.5 c 128,-1,22
 228 510 228 510 289 510 c 0,23,24
 333 510 333 510 371 492 c 128,-1,25
 409 474 409 474 441 442 c 1,26,-1
 444 442 l 1,27,-1
 452 498 l 1,28,-1
 519 498 l 1,29,-1
 519 -19 l 2,30,31
 519 -113 519 -113 458.5 -167.5 c 128,-1,32
 398 -222 398 -222 287 -222 c 0,0,1
295 75 m 0,33,34
 332 75 332 75 366.5 94 c 128,-1,35
 401 113 401 113 435 150 c 1,36,-1
 435 381 l 1,37,38
 401 413 401 413 369 426 c 128,-1,39
 337 439 337 439 303 439 c 0,40,41
 261 439 261 439 225.5 415.5 c 128,-1,42
 190 392 190 392 168.5 351 c 128,-1,43
 147 310 147 310 147 257 c 0,44,45
 147 174 147 174 187 124.5 c 128,-1,46
 227 75 227 75 295 75 c 0,33,34
EndSplineSet
Validated: 1
EndChar

StartChar: uni0262
Encoding: 610 610 485
Width: 614
GlyphClass: 2
Flags: W
AnchorPoint: "Anchor-3" 334 -20 basechar 0
AnchorPoint: "Anchor-0" 342 519 basechar 0
LayerCount: 2
Fore
SplineSet
347 -12 m 0,0,1
 273 -12 273 -12 213 17.5 c 128,-1,2
 153 47 153 47 116.5 106 c 128,-1,3
 80 165 80 165 80 249 c 0,4,5
 80 310 80 310 101.5 358.5 c 128,-1,6
 123 407 123 407 161 440.5 c 128,-1,7
 199 474 199 474 248 492 c 128,-1,8
 297 510 297 510 352 510 c 0,9,10
 419 510 419 510 462.5 488.5 c 128,-1,11
 506 467 506 467 537 438 c 1,12,-1
 495 385 l 1,13,14
 468 409 468 409 437 426 c 128,-1,15
 406 443 406 443 356 443 c 0,16,17
 305 443 305 443 261.5 420 c 128,-1,18
 218 397 218 397 192 354 c 128,-1,19
 166 311 166 311 166 249 c 0,20,21
 166 189 166 189 190 145 c 128,-1,22
 214 101 214 101 256 78 c 128,-1,23
 298 55 298 55 351 55 c 0,24,25
 385 55 385 55 414.5 65.5 c 128,-1,26
 444 76 444 76 465 93 c 1,27,-1
 465 208 l 1,28,-1
 328 208 l 1,29,-1
 328 268 l 1,30,-1
 539 268 l 1,31,-1
 539 58 l 1,32,33
 507 28 507 28 457 8 c 128,-1,34
 407 -12 407 -12 347 -12 c 0,0,1
EndSplineSet
Validated: 1
EndChar

StartChar: uni0263
Encoding: 611 611 486
Width: 614
GlyphClass: 2
Flags: W
AnchorPoint: "Anchor-3" 307 -231 basechar 0
AnchorPoint: "Anchor-0" 307 519 basechar 0
LayerCount: 2
Fore
SplineSet
260 39 m 1,0,-1
 52 498 l 1,1,-1
 138 498 l 1,2,-1
 254 225 l 2,3,4
 268 190 268 190 280 162 c 128,-1,5
 292 134 292 134 307 99 c 1,6,-1
 311 99 l 1,7,8
 326 134 326 134 338 162 c 128,-1,9
 350 190 350 190 366 225 c 2,10,-1
 480 498 l 1,11,-1
 562 498 l 1,12,-1
 358 39 l 1,13,-1
 260 39 l 1,0,-1
309 -229 m 256,14,15
 253 -229 253 -229 221.5 -195.5 c 128,-1,16
 190 -162 190 -162 190 -109 c 0,17,18
 190 -82 190 -82 200.5 -56 c 128,-1,19
 211 -30 211 -30 228.5 2.5 c 128,-1,20
 246 35 246 35 266 78 c 1,21,-1
 352 78 l 1,22,23
 374 35 374 35 391.5 2.5 c 128,-1,24
 409 -30 409 -30 418.5 -56 c 128,-1,25
 428 -82 428 -82 428 -109 c 0,26,27
 428 -162 428 -162 396.5 -195.5 c 128,-1,28
 365 -229 365 -229 309 -229 c 256,14,15
309 -171 m 0,29,30
 333 -171 333 -171 344 -153.5 c 128,-1,31
 355 -136 355 -136 355 -111 c 0,32,33
 355 -84 355 -84 342.5 -54 c 128,-1,34
 330 -24 330 -24 311 11 c 1,35,-1
 306 11 l 1,36,37
 288 -24 288 -24 275.5 -55 c 128,-1,38
 263 -86 263 -86 263 -111 c 0,39,40
 263 -137 263 -137 274.5 -154 c 128,-1,41
 286 -171 286 -171 309 -171 c 0,29,30
EndSplineSet
Validated: 5
EndChar

StartChar: uni0264
Encoding: 612 612 487
Width: 614
GlyphClass: 2
Flags: W
AnchorPoint: "Anchor-3" 307 -20 basechar 0
AnchorPoint: "Anchor-0" 307 519 basechar 0
LayerCount: 2
Fore
SplineSet
307 -12 m 0,0,1
 220 -12 220 -12 168.5 34.5 c 128,-1,2
 117 81 117 81 117 161 c 0,3,4
 117 217 117 217 153.5 270 c 128,-1,5
 190 323 190 323 249 372 c 1,6,7
 218 407 218 407 192 423.5 c 128,-1,8
 166 440 166 440 137 440 c 256,9,10
 108 440 108 440 88 426 c 1,11,-1
 61 487 l 1,12,13
 77 498 77 498 100.5 504 c 128,-1,14
 124 510 124 510 147 510 c 0,15,16
 189 510 189 510 227.5 487 c 128,-1,17
 266 464 266 464 307 421 c 1,18,19
 347 464 347 464 386.5 487 c 128,-1,20
 426 510 426 510 467 510 c 0,21,22
 491 510 491 510 514.5 504.5 c 128,-1,23
 538 499 538 499 553 487 c 1,24,-1
 526 426 l 1,25,26
 506 440 506 440 477 440 c 256,27,28
 448 440 448 440 422.5 423.5 c 128,-1,29
 397 407 397 407 366 372 c 1,30,31
 423 323 423 323 460.5 270 c 128,-1,32
 498 217 498 217 498 161 c 0,33,34
 498 81 498 81 446.5 34.5 c 128,-1,35
 395 -12 395 -12 307 -12 c 0,0,1
307 57 m 256,36,37
 358 57 358 57 387.5 87.5 c 128,-1,38
 417 118 417 118 417 163 c 256,39,40
 417 208 417 208 386 250 c 128,-1,41
 355 292 355 292 307 332 c 1,42,43
 259 292 259 292 228.5 250 c 128,-1,44
 198 208 198 208 198 163 c 256,45,46
 198 118 198 118 227 87.5 c 128,-1,47
 256 57 256 57 307 57 c 256,36,37
EndSplineSet
Validated: 1
EndChar

StartChar: uni0265
Encoding: 613 613 488
Width: 614
GlyphClass: 2
Flags: W
AnchorPoint: "Anchor-3" 361 -95 basechar 0
AnchorPoint: "Anchor-0" 298 519 basechar 0
LayerCount: 2
Fore
SplineSet
435 -210 m 1,0,-1
 435 -32 l 1,1,-1
 439 85 l 1,2,3
 399 44 399 44 354.5 16 c 128,-1,4
 310 -12 310 -12 251 -12 c 0,5,6
 163 -12 163 -12 121 39 c 128,-1,7
 79 90 79 90 79 188 c 2,8,-1
 79 498 l 1,9,-1
 163 498 l 1,10,-1
 163 200 l 2,11,12
 163 129 163 129 189.5 94.5 c 128,-1,13
 216 60 216 60 278 60 c 0,14,15
 322 60 322 60 357 82.5 c 128,-1,16
 392 105 392 105 435 151 c 1,17,-1
 435 498 l 1,18,-1
 519 498 l 1,19,-1
 519 -210 l 1,20,-1
 435 -210 l 1,0,-1
EndSplineSet
Validated: 1
EndChar

StartChar: uni0266
Encoding: 614 614 489
Width: 614
GlyphClass: 2
Flags: W
AnchorPoint: "Anchor-3" 324 -20 basechar 0
AnchorPoint: "Anchor-0" 278 754 basechar 0
LayerCount: 2
Fore
SplineSet
95 0 m 1,0,-1
 95 550 l 2,1,2
 95 606 95 606 115.5 649.5 c 128,-1,3
 136 693 136 693 176.5 717 c 128,-1,4
 217 741 217 741 280 741 c 0,5,6
 306 741 306 741 330.5 735.5 c 128,-1,7
 355 730 355 730 375 722 c 1,8,-1
 355 657 l 1,9,10
 339 665 339 665 321 669 c 128,-1,11
 303 673 303 673 288 673 c 0,12,13
 233 673 233 673 207.5 640.5 c 128,-1,14
 182 608 182 608 179 552 c 2,15,-1
 173 406 l 1,16,-1
 177 406 l 1,17,18
 215 447 215 447 260 475 c 128,-1,19
 305 503 305 503 364 503 c 0,20,21
 452 503 452 503 494 451 c 128,-1,22
 536 399 536 399 536 301 c 2,23,-1
 536 0 l 1,24,-1
 452 0 l 1,25,-1
 452 291 l 2,26,27
 452 362 452 362 425 395.5 c 128,-1,28
 398 429 398 429 337 429 c 0,29,30
 293 429 293 429 258 407 c 128,-1,31
 223 385 223 385 179 340 c 1,32,-1
 179 0 l 1,33,-1
 95 0 l 1,0,-1
EndSplineSet
Validated: 1
Substitution2: "'sups' Superscript lookup 23 subtable" uni0266.sups
EndChar

StartChar: uni0267
Encoding: 615 615 490
Width: 614
GlyphClass: 2
Flags: W
AnchorPoint: "Anchor-3" 370 -224 basechar 0
AnchorPoint: "Anchor-0" 278 754 basechar 0
LayerCount: 2
Fore
SplineSet
393 -187 m 0,0,1
 368 -187 368 -187 348 -182.5 c 128,-1,2
 328 -178 328 -178 313 -173 c 1,3,-1
 330 -109 l 1,4,5
 341 -113 341 -113 355 -116 c 128,-1,6
 369 -119 369 -119 384 -119 c 0,7,8
 425 -119 425 -119 438.5 -90.5 c 128,-1,9
 452 -62 452 -62 452 -14 c 2,10,-1
 452 291 l 2,11,12
 452 362 452 362 425 395.5 c 128,-1,13
 398 429 398 429 337 429 c 0,14,15
 293 429 293 429 258 407 c 128,-1,16
 223 385 223 385 179 340 c 1,17,-1
 179 0 l 1,18,-1
 95 0 l 1,19,-1
 95 550 l 2,20,21
 95 606 95 606 115.5 649.5 c 128,-1,22
 136 693 136 693 176.5 717 c 128,-1,23
 217 741 217 741 280 741 c 0,24,25
 306 741 306 741 330.5 735.5 c 128,-1,26
 355 730 355 730 375 722 c 1,27,-1
 355 657 l 1,28,29
 338 664 338 664 320.5 668.5 c 128,-1,30
 303 673 303 673 288 673 c 0,31,32
 233 673 233 673 207.5 640.5 c 128,-1,33
 182 608 182 608 179 552 c 2,34,-1
 173 406 l 1,35,-1
 177 406 l 1,36,37
 215 447 215 447 260 475 c 128,-1,38
 305 503 305 503 364 503 c 0,39,40
 452 503 452 503 494 451 c 128,-1,41
 536 399 536 399 536 301 c 2,42,-1
 536 -14 l 2,43,44
 536 -67 536 -67 522 -106 c 128,-1,45
 508 -145 508 -145 476.5 -166 c 128,-1,46
 445 -187 445 -187 393 -187 c 0,0,1
EndSplineSet
Validated: 1
EndChar

StartChar: uni026A
Encoding: 618 618 493
Width: 614
GlyphClass: 2
Flags: W
AnchorPoint: "Anchor-3" 307 -20 basechar 0
AnchorPoint: "Anchor-0" 307 519 basechar 0
LayerCount: 2
Fore
SplineSet
88 0 m 1,0,-1
 88 69 l 1,1,-1
 264 69 l 1,2,-1
 264 429 l 1,3,-1
 88 429 l 1,4,-1
 88 498 l 1,5,-1
 526 498 l 1,6,-1
 526 429 l 1,7,-1
 348 429 l 1,8,-1
 348 69 l 1,9,-1
 526 69 l 1,10,-1
 526 0 l 1,11,-1
 88 0 l 1,0,-1
EndSplineSet
Validated: 1
EndChar

StartChar: uni029E
Encoding: 670 670 495
Width: 614
GlyphClass: 2
Flags: W
AnchorPoint: "Anchor-3" 461 -224 basechar 0
AnchorPoint: "Anchor-0" 291 519 basechar 0
LayerCount: 2
Fore
SplineSet
422 -210 m 1,0,-1
 422 262 l 1,1,-1
 418 262 l 1,2,-1
 130 0 l 1,3,-1
 29 0 l 1,4,-1
 422 362 l 1,5,-1
 422 498 l 1,6,-1
 506 498 l 1,7,-1
 506 -210 l 1,8,-1
 422 -210 l 1,0,-1
270 178 m 1,9,-1
 55 498 l 1,10,-1
 142 498 l 1,11,-1
 319 232 l 1,12,-1
 270 178 l 1,9,-1
EndSplineSet
Validated: 5
EndChar

StartChar: uni026C
Encoding: 620 620 497
Width: 614
GlyphClass: 2
Flags: W
AnchorPoint: "Anchor-3" 394 -20 basechar 0
AnchorPoint: "Anchor-0" 292 754 basechar 0
LayerCount: 2
Fore
SplineSet
238 309 m 2,0,1
 152 309 152 309 115 340 c 128,-1,2
 78 371 78 371 78 418 c 0,3,4
 78 457 78 457 104 481.5 c 128,-1,5
 130 506 130 506 170 506 c 0,6,7
 207 506 207 506 230.5 491 c 128,-1,8
 254 476 254 476 266.5 453.5 c 128,-1,9
 279 431 279 431 284 408 c 128,-1,10
 289 385 289 385 289 369 c 1,11,-1
 253 381 l 1,12,13
 253 405 253 405 235 425.5 c 128,-1,14
 217 446 217 446 178 446 c 0,15,16
 165 446 165 446 155 437.5 c 128,-1,17
 145 429 145 429 145 414 c 0,18,19
 145 396 145 396 163.5 385.5 c 128,-1,20
 182 375 182 375 219 375 c 2,21,-1
 480 375 l 1,22,-1
 480 309 l 1,23,-1
 238 309 l 2,0,1
416 -12 m 0,24,25
 337 -12 337 -12 295 33.5 c 128,-1,26
 253 79 253 79 253 167 c 2,27,-1
 253 660 l 1,28,-1
 83 660 l 1,29,-1
 83 729 l 1,30,-1
 337 729 l 1,31,-1
 337 161 l 2,32,33
 337 107 337 107 363.5 82 c 128,-1,34
 390 57 390 57 434 57 c 0,35,36
 456 57 456 57 478.5 63 c 128,-1,37
 501 69 501 69 528 81 c 1,38,-1
 550 17 l 1,39,40
 516 5 516 5 486.5 -3.5 c 128,-1,41
 457 -12 457 -12 416 -12 c 0,24,25
EndSplineSet
Validated: 5
Substitution2: "'ss04' Style Set 4 lookup 31 subtable" uni026C.a
EndChar

StartChar: uni026D
Encoding: 621 621 498
Width: 614
GlyphClass: 2
Flags: W
AnchorPoint: "Anchor-3" 394 -224 basechar 0
AnchorPoint: "Anchor-0" 292 754 basechar 0
LayerCount: 2
Fore
SplineSet
416 -187 m 0,0,1
 337 -187 337 -187 295 -141.5 c 128,-1,2
 253 -96 253 -96 253 -8 c 2,3,-1
 253 660 l 1,4,-1
 76 660 l 1,5,-1
 76 729 l 1,6,-1
 337 729 l 1,7,-1
 337 -14 l 2,8,9
 337 -67 337 -67 363.5 -92 c 128,-1,10
 390 -117 390 -117 434 -117 c 0,11,12
 476 -117 476 -117 528 -94 c 1,13,-1
 550 -158 l 1,14,15
 517 -170 517 -170 487 -178.5 c 128,-1,16
 457 -187 457 -187 416 -187 c 0,0,1
EndSplineSet
Validated: 1
EndChar

StartChar: uni026E
Encoding: 622 622 499
Width: 614
GlyphClass: 2
Flags: W
AnchorPoint: "Anchor-3" 366 -224 basechar 0
AnchorPoint: "Anchor-0" 126 754 basechar 0
LayerCount: 2
Fore
SplineSet
81 0 m 1,0,-1
 81 729 l 1,1,-1
 165 729 l 1,2,-1
 165 0 l 1,3,-1
 81 0 l 1,0,-1
367 -222 m 0,4,5
 290 -222 290 -222 240.5 -197.5 c 128,-1,6
 191 -173 191 -173 159 -142 c 1,7,-1
 201 -89 l 1,8,9
 228 -114 228 -114 265.5 -133.5 c 128,-1,10
 303 -153 303 -153 359 -153 c 0,11,12
 398 -153 398 -153 429.5 -134 c 128,-1,13
 461 -115 461 -115 480 -80.5 c 128,-1,14
 499 -46 499 -46 499 0 c 0,15,16
 499 63 499 63 463 99 c 128,-1,17
 427 135 427 135 364 135 c 0,18,19
 338 135 338 135 323.5 131.5 c 128,-1,20
 309 128 309 128 292 120 c 1,21,-1
 257 165 l 1,22,-1
 457 429 l 1,23,-1
 161 429 l 1,24,-1
 161 498 l 1,25,-1
 562 498 l 1,26,-1
 562 453 l 1,27,-1
 347 169 l 1,28,-1
 335 190 l 1,29,30
 416 204 416 204 471.5 181.5 c 128,-1,31
 527 159 527 159 556 110.5 c 128,-1,32
 585 62 585 62 585 2 c 0,33,34
 585 -70 585 -70 554 -120 c 128,-1,35
 523 -170 523 -170 473 -196 c 128,-1,36
 423 -222 423 -222 367 -222 c 0,4,5
EndSplineSet
Validated: 37
EndChar

StartChar: uni029F
Encoding: 671 671 500
Width: 614
GlyphClass: 2
Flags: W
AnchorPoint: "Anchor-3" 351 -20 basechar 0
AnchorPoint: "Anchor-0" 196 519 basechar 0
LayerCount: 2
Fore
SplineSet
152 0 m 1,0,-1
 152 498 l 1,1,-1
 236 498 l 1,2,-1
 236 69 l 1,3,-1
 545 69 l 1,4,-1
 545 0 l 1,5,-1
 152 0 l 1,0,-1
EndSplineSet
Validated: 1
EndChar

StartChar: uni0270
Encoding: 624 624 502
Width: 614
GlyphClass: 2
Flags: W
AnchorPoint: "Anchor-3" 508 -231 basechar 0
AnchorPoint: "Anchor-0" 307 519 basechar 0
LayerCount: 2
Fore
SplineSet
475 -210 m 1,0,-1
 475 -34 l 1,1,-1
 481 69 l 1,2,-1
 477 69 l 1,3,4
 458 31 458 31 433 9.5 c 128,-1,5
 408 -12 408 -12 365 -12 c 0,6,7
 328 -12 328 -12 305 9.5 c 128,-1,8
 282 31 282 31 270 74 c 1,9,10
 248 34 248 34 222.5 11 c 128,-1,11
 197 -12 197 -12 154 -12 c 0,12,13
 102 -12 102 -12 72.5 27.5 c 128,-1,14
 43 67 43 67 43 141 c 2,15,-1
 43 498 l 1,16,-1
 127 498 l 1,17,-1
 127 147 l 2,18,19
 127 60 127 60 180 60 c 0,20,21
 207 60 207 60 224 79.5 c 128,-1,22
 241 99 241 99 260 137 c 1,23,-1
 260 498 l 1,24,-1
 338 498 l 1,25,-1
 338 147 l 2,26,27
 338 104 338 104 349.5 82 c 128,-1,28
 361 60 361 60 389 60 c 0,29,30
 416 60 416 60 434.5 79.5 c 128,-1,31
 453 99 453 99 471 137 c 1,32,-1
 471 498 l 1,33,-1
 555 498 l 1,34,-1
 555 -210 l 1,35,-1
 475 -210 l 1,0,-1
EndSplineSet
Validated: 1
EndChar

StartChar: uni0271
Encoding: 625 625 503
Width: 614
GlyphClass: 2
Flags: W
AnchorPoint: "Anchor-3" 311 -224 basechar 0
AnchorPoint: "Anchor-0" 311 519 basechar 0
LayerCount: 2
Fore
SplineSet
445 -187 m 0,0,1
 426 -187 426 -187 408 -183.5 c 128,-1,2
 390 -180 390 -180 378 -175 c 1,3,-1
 394 -111 l 1,4,5
 402 -114 402 -114 413.5 -116.5 c 128,-1,6
 425 -119 425 -119 436 -119 c 0,7,8
 469 -119 469 -119 478 -94.5 c 128,-1,9
 487 -70 487 -70 487 -29 c 2,10,-1
 487 350 l 2,11,12
 487 437 487 437 434 437 c 0,13,14
 408 437 408 437 391.5 418 c 128,-1,15
 375 399 375 399 354 360 c 1,16,-1
 354 0 l 1,17,-1
 276 0 l 1,18,-1
 276 350 l 2,19,20
 276 393 276 393 264.5 415 c 128,-1,21
 253 437 253 437 225 437 c 0,22,23
 199 437 199 437 180.5 418 c 128,-1,24
 162 399 162 399 143 360 c 1,25,-1
 143 0 l 1,26,-1
 59 0 l 1,27,-1
 59 498 l 1,28,-1
 127 498 l 1,29,-1
 134 432 l 1,30,-1
 136 432 l 1,31,32
 155 467 155 467 181 488.5 c 128,-1,33
 207 510 207 510 250 510 c 0,34,35
 287 510 287 510 310.5 488.5 c 128,-1,36
 334 467 334 467 344 424 c 1,37,38
 366 464 366 464 392 487 c 128,-1,39
 418 510 418 510 461 510 c 0,40,41
 513 510 513 510 542 470.5 c 128,-1,42
 571 431 571 431 571 356 c 2,43,-1
 571 -33 l 2,44,45
 571 -81 571 -81 558.5 -116 c 128,-1,46
 546 -151 546 -151 518 -169 c 128,-1,47
 490 -187 490 -187 445 -187 c 0,0,1
EndSplineSet
Validated: 1
EndChar

StartChar: uni0272
Encoding: 626 626 504
Width: 614
GlyphClass: 2
Flags: W
AnchorPoint: "Anchor-3" 178 -224 basechar 0
AnchorPoint: "Anchor-0" 335 519 basechar 0
LayerCount: 2
Fore
SplineSet
57 -187 m 0,0,1
 38 -187 38 -187 22 -183 c 128,-1,2
 6 -179 6 -179 -5 -174 c 1,3,-1
 11 -110 l 1,4,5
 19 -113 19 -113 28.5 -116 c 128,-1,6
 38 -119 38 -119 48 -119 c 0,7,8
 78 -119 78 -119 88.5 -95 c 128,-1,9
 99 -71 99 -71 99 -29 c 2,10,-1
 99 498 l 1,11,-1
 169 498 l 1,12,-1
 176 413 l 1,13,-1
 180 413 l 1,14,15
 220 455 220 455 263.5 482.5 c 128,-1,16
 307 510 307 510 365 510 c 0,17,18
 453 510 453 510 494.5 459 c 128,-1,19
 536 408 536 408 536 309 c 2,20,-1
 536 0 l 1,21,-1
 452 0 l 1,22,-1
 452 298 l 2,23,24
 452 371 452 371 425 404 c 128,-1,25
 398 437 398 437 340 437 c 0,26,27
 296 437 296 437 261.5 414.5 c 128,-1,28
 227 392 227 392 184 347 c 1,29,-1
 184 -29 l 2,30,31
 184 -79 184 -79 172 -114.5 c 128,-1,32
 160 -150 160 -150 132 -168.5 c 128,-1,33
 104 -187 104 -187 57 -187 c 0,0,1
EndSplineSet
Validated: 1
EndChar

StartChar: uni0273
Encoding: 627 627 505
Width: 614
GlyphClass: 2
Flags: W
AnchorPoint: "Anchor-3" 440 -224 basechar 0
AnchorPoint: "Anchor-0" 332 519 basechar 0
LayerCount: 2
Fore
SplineSet
573 -187 m 0,0,1
 527 -187 527 -187 499.5 -168.5 c 128,-1,2
 472 -150 472 -150 459.5 -114.5 c 128,-1,3
 447 -79 447 -79 447 -29 c 2,4,-1
 447 298 l 2,5,6
 447 371 447 371 420.5 404 c 128,-1,7
 394 437 394 437 335 437 c 0,8,9
 291 437 291 437 257 414.5 c 128,-1,10
 223 392 223 392 179 347 c 1,11,-1
 179 0 l 1,12,-1
 95 0 l 1,13,-1
 95 498 l 1,14,-1
 165 498 l 1,15,-1
 172 413 l 1,16,-1
 176 413 l 1,17,18
 215 455 215 455 259 482.5 c 128,-1,19
 303 510 303 510 359 510 c 0,20,21
 448 510 448 510 489.5 459 c 128,-1,22
 531 408 531 408 531 309 c 2,23,-1
 531 -29 l 2,24,25
 531 -71 531 -71 542 -95 c 128,-1,26
 553 -119 553 -119 583 -119 c 0,27,28
 593 -119 593 -119 602.5 -116 c 128,-1,29
 612 -113 612 -113 620 -110 c 1,30,-1
 636 -174 l 1,31,32
 626 -179 626 -179 609 -183 c 128,-1,33
 592 -187 592 -187 573 -187 c 0,0,1
EndSplineSet
Validated: 1
EndChar

StartChar: uni0274
Encoding: 628 628 506
Width: 614
GlyphClass: 2
Flags: W
AnchorPoint: "Anchor-3" 309 -20 basechar 0
AnchorPoint: "Anchor-0" 316 519 basechar 0
LayerCount: 2
Fore
SplineSet
98 0 m 1,0,-1
 98 498 l 1,1,-1
 179 498 l 1,2,-1
 372 216 l 2,3,4
 387 193 387 193 405.5 163 c 128,-1,5
 424 133 424 133 440 110 c 1,6,-1
 444 110 l 1,7,8
 441 158 441 158 438.5 204.5 c 128,-1,9
 436 251 436 251 436 291 c 2,10,-1
 436 498 l 1,11,-1
 516 498 l 1,12,-1
 516 0 l 1,13,-1
 435 0 l 1,14,-1
 243 282 l 2,15,16
 228 306 228 306 208.5 335.5 c 128,-1,17
 189 365 189 365 174 388 c 1,18,-1
 170 388 l 1,19,20
 173 340 173 340 175.5 293.5 c 128,-1,21
 178 247 178 247 178 207 c 2,22,-1
 178 0 l 1,23,-1
 98 0 l 1,0,-1
EndSplineSet
Validated: 1
EndChar

StartChar: uni0275
Encoding: 629 629 507
Width: 614
GlyphClass: 2
Flags: W
AnchorPoint: "Anchor-3" 307 -20 basechar 0
AnchorPoint: "Anchor-0" 307 519 basechar 0
LayerCount: 2
Fore
SplineSet
307 -12 m 0,0,1
 241 -12 241 -12 185 17 c 128,-1,2
 129 46 129 46 95 104.5 c 128,-1,3
 61 163 61 163 61 248 c 0,4,5
 61 335 61 335 95 393 c 128,-1,6
 129 451 129 451 185.5 480.5 c 128,-1,7
 242 510 242 510 308 510 c 0,8,9
 374 510 374 510 429.5 480.5 c 128,-1,10
 485 451 485 451 519 393 c 128,-1,11
 553 335 553 335 553 248 c 0,12,13
 553 163 553 163 519 104.5 c 128,-1,14
 485 46 485 46 429.5 17 c 128,-1,15
 374 -12 374 -12 307 -12 c 0,0,1
307 54 m 256,16,17
 356 54 356 54 393.5 77 c 128,-1,18
 431 100 431 100 452 143.5 c 128,-1,19
 473 187 473 187 473 248 c 0,20,21
 473 309 473 309 452 353 c 128,-1,22
 431 397 431 397 393.5 420.5 c 128,-1,23
 356 444 356 444 307 444 c 256,24,25
 258 444 258 444 220.5 420.5 c 128,-1,26
 183 397 183 397 162 353 c 128,-1,27
 141 309 141 309 141 248 c 0,28,29
 141 188 141 188 162 144 c 128,-1,30
 183 100 183 100 220.5 77 c 128,-1,31
 258 54 258 54 307 54 c 256,16,17
123 225 m 1,32,-1
 123 291 l 1,33,-1
 487 291 l 1,34,-1
 487 225 l 1,35,-1
 123 225 l 1,32,-1
EndSplineSet
Validated: 5
EndChar

StartChar: uni0276
Encoding: 630 630 508
Width: 614
GlyphClass: 2
Flags: W
AnchorPoint: "Anchor-3" 358 -20 basechar 0
AnchorPoint: "Anchor-0" 362 519 basechar 0
LayerCount: 2
Fore
SplineSet
244 -12 m 0,0,1
 187 -12 187 -12 139 17.5 c 128,-1,2
 91 47 91 47 62.5 105.5 c 128,-1,3
 34 164 34 164 34 249 c 0,4,5
 34 335 34 335 62.5 393 c 128,-1,6
 91 451 91 451 138.5 480.5 c 128,-1,7
 186 510 186 510 244 510 c 0,8,9
 269 510 269 510 291.5 508 c 128,-1,10
 314 506 314 506 344 498 c 1,11,-1
 591 498 l 1,12,-1
 591 428 l 1,13,-1
 396 428 l 1,14,-1
 396 291 l 1,15,-1
 553 291 l 1,16,-1
 553 225 l 1,17,-1
 396 225 l 1,18,-1
 396 70 l 1,19,-1
 601 70 l 1,20,-1
 601 0 l 1,21,-1
 344 0 l 1,22,23
 315 -7 315 -7 292 -9.5 c 128,-1,24
 269 -12 269 -12 244 -12 c 0,0,1
251 56 m 0,25,26
 266 56 266 56 284 60.5 c 128,-1,27
 302 65 302 65 318 69 c 1,28,-1
 318 428 l 1,29,30
 303 433 303 433 285 436.5 c 128,-1,31
 267 440 267 440 251 440 c 0,32,33
 197 440 197 440 159 393 c 128,-1,34
 121 346 121 346 121 249 c 0,35,36
 121 183 121 183 138.5 140 c 128,-1,37
 156 97 156 97 185.5 76.5 c 128,-1,38
 215 56 215 56 251 56 c 0,25,26
EndSplineSet
Validated: 1
EndChar

StartChar: uni0278
Encoding: 632 632 509
Width: 614
GlyphClass: 2
Flags: W
AnchorPoint: "Anchor-3" 307 -224 basechar 0
AnchorPoint: "Anchor-0" 307 754 basechar 0
LayerCount: 2
Fore
SplineSet
281 -9 m 1,0,1
 219 -9 219 -9 165 21 c 128,-1,2
 111 51 111 51 78 109 c 128,-1,3
 45 167 45 167 45 250 c 256,4,5
 45 333 45 333 78 390 c 128,-1,6
 111 447 111 447 164.5 477 c 128,-1,7
 218 507 218 507 281 507 c 1,8,-1
 278 440 l 1,9,10
 237 440 237 440 203.5 417 c 128,-1,11
 170 394 170 394 150.5 352 c 128,-1,12
 131 310 131 310 131 250 c 256,13,14
 131 190 131 190 150.5 146.5 c 128,-1,15
 170 103 170 103 203.5 80.5 c 128,-1,16
 237 58 237 58 278 57 c 1,17,-1
 281 -9 l 1,0,1
334 -9 m 1,18,-1
 337 57 l 1,19,20
 379 58 379 58 411.5 80.5 c 128,-1,21
 444 103 444 103 463.5 146 c 128,-1,22
 483 189 483 189 483 250 c 256,23,24
 483 310 483 310 463.5 352 c 128,-1,25
 444 394 444 394 411.5 417 c 128,-1,26
 379 440 379 440 337 440 c 1,27,-1
 334 507 l 1,28,29
 396 507 396 507 450 477 c 128,-1,30
 504 447 504 447 536.5 390 c 128,-1,31
 569 333 569 333 569 250 c 256,32,33
 569 167 569 167 536.5 109 c 128,-1,34
 504 51 504 51 450 21 c 128,-1,35
 396 -9 396 -9 334 -9 c 1,18,-1
266 -210 m 1,36,-1
 266 729 l 1,37,-1
 348 729 l 1,38,-1
 348 -210 l 1,39,-1
 266 -210 l 1,36,-1
EndSplineSet
Validated: 5
EndChar

StartChar: uni027A
Encoding: 634 634 511
Width: 614
GlyphClass: 2
Flags: W
AnchorPoint: "Anchor-3" 278 -20 basechar 0
AnchorPoint: "Anchor-0" 420 754 basechar 0
LayerCount: 2
Fore
SplineSet
163 -12 m 0,0,1
 135 -12 135 -12 111 -7.5 c 128,-1,2
 87 -3 87 -3 65 8 c 1,3,-1
 84 81 l 1,4,5
 111 72 111 72 129 67.5 c 128,-1,6
 147 63 147 63 176 63 c 0,7,8
 232 63 232 63 284.5 95.5 c 128,-1,9
 337 128 337 128 381 206 c 1,10,-1
 381 729 l 1,11,-1
 465 729 l 1,12,-1
 465 0 l 1,13,-1
 395 0 l 1,14,-1
 388 118 l 1,15,-1
 385 118 l 1,16,17
 346 58 346 58 289.5 23 c 128,-1,18
 233 -12 233 -12 163 -12 c 0,0,1
EndSplineSet
Validated: 1
EndChar

StartChar: uni027B
Encoding: 635 635 512
Width: 614
GlyphClass: 2
Flags: W
AnchorPoint: "Anchor-3" 311 -224 basechar 0
AnchorPoint: "Anchor-0" 334 519 basechar 0
LayerCount: 2
Fore
SplineSet
446 -187 m 0,0,1
 396 -187 396 -187 366 -167.5 c 128,-1,2
 336 -148 336 -148 322.5 -112.5 c 128,-1,3
 309 -77 309 -77 309 -26 c 2,4,-1
 309 94 l 1,5,-1
 306 94 l 1,6,7
 281 46 281 46 242.5 17 c 128,-1,8
 204 -12 204 -12 154 -12 c 0,9,10
 132 -12 132 -12 110 -7.5 c 128,-1,11
 88 -3 88 -3 65 8 c 1,12,-1
 84 81 l 1,13,14
 107 72 107 72 122.5 67.5 c 128,-1,15
 138 63 138 63 163 63 c 0,16,17
 189 63 189 63 214 75 c 128,-1,18
 239 87 239 87 261.5 113.5 c 128,-1,19
 284 140 284 140 302 185 c 1,20,-1
 302 498 l 1,21,-1
 386 498 l 1,22,-1
 386 -15 l 2,23,24
 386 -69 386 -69 401.5 -94 c 128,-1,25
 417 -119 417 -119 456 -119 c 0,26,27
 470 -119 470 -119 486 -114.5 c 128,-1,28
 502 -110 502 -110 514 -104 c 1,29,-1
 532 -168 l 1,30,31
 517 -175 517 -175 493.5 -181 c 128,-1,32
 470 -187 470 -187 446 -187 c 0,0,1
EndSplineSet
Validated: 1
EndChar

StartChar: uni027D
Encoding: 637 637 513
Width: 614
GlyphClass: 2
Flags: W
AnchorPoint: "Anchor-3" 336 -224 basechar 0
AnchorPoint: "Anchor-0" 365 519 basechar 0
LayerCount: 2
Fore
SplineSet
341 -187 m 0,0,1
 268 -187 268 -187 226.5 -161.5 c 128,-1,2
 185 -136 185 -136 167.5 -89.5 c 128,-1,3
 150 -43 150 -43 150 18 c 2,4,-1
 150 498 l 1,5,-1
 219 498 l 1,6,-1
 226 380 l 1,7,-1
 229 380 l 1,8,9
 268 440 268 440 325.5 475 c 128,-1,10
 383 510 383 510 452 510 c 0,11,12
 480 510 480 510 503.5 505.5 c 128,-1,13
 527 501 527 501 550 489 c 1,14,-1
 530 417 l 1,15,16
 504 426 504 426 486 430 c 128,-1,17
 468 434 468 434 438 434 c 0,18,19
 382 434 382 434 330.5 402 c 128,-1,20
 279 370 279 370 233 292 c 1,21,-1
 233 17 l 2,22,23
 233 -27 233 -27 244.5 -57.5 c 128,-1,24
 256 -88 256 -88 283.5 -103.5 c 128,-1,25
 311 -119 311 -119 359 -119 c 0,26,27
 395 -119 395 -119 423.5 -112.5 c 128,-1,28
 452 -106 452 -106 479 -96 c 1,29,-1
 497 -158 l 1,30,31
 463 -170 463 -170 426 -178.5 c 128,-1,32
 389 -187 389 -187 341 -187 c 0,0,1
EndSplineSet
Validated: 1
EndChar

StartChar: uni027E
Encoding: 638 638 514
Width: 614
GlyphClass: 2
Flags: W
AnchorPoint: "Anchor-3" 196 -20 basechar 0
AnchorPoint: "Anchor-0" 365 519 basechar 0
LayerCount: 2
Fore
SplineSet
150 0 m 1,0,-1
 150 255 l 2,1,2
 150 338 150 338 182 394.5 c 128,-1,3
 214 451 214 451 272.5 480.5 c 128,-1,4
 331 510 331 510 411 510 c 0,5,6
 452 510 452 510 487.5 505 c 128,-1,7
 523 500 523 500 550 489 c 1,8,-1
 530 417 l 1,9,10
 508 424 508 424 491 428 c 128,-1,11
 474 432 474 432 456.5 433.5 c 128,-1,12
 439 435 439 435 420 435 c 0,13,14
 371 435 371 435 328.5 414.5 c 128,-1,15
 286 394 286 394 259.5 350.5 c 128,-1,16
 233 307 233 307 233 238 c 2,17,-1
 233 0 l 1,18,-1
 150 0 l 1,0,-1
EndSplineSet
Validated: 1
EndChar

StartChar: uni0280
Encoding: 640 640 515
Width: 614
GlyphClass: 2
Flags: W
AnchorPoint: "Anchor-3" 324 -20 basechar 0
AnchorPoint: "Anchor-0" 324 519 basechar 0
LayerCount: 2
Fore
SplineSet
101 0 m 1,0,-1
 101 498 l 1,1,-1
 347 498 l 2,2,3
 401 498 401 498 443.5 484 c 128,-1,4
 486 470 486 470 511 438 c 128,-1,5
 536 406 536 406 536 350 c 0,6,7
 536 309 536 309 520.5 279.5 c 128,-1,8
 505 250 505 250 478.5 231 c 128,-1,9
 452 212 452 212 419 203.5 c 128,-1,10
 386 195 386 195 351 195 c 2,11,-1
 186 195 l 1,12,-1
 186 0 l 1,13,-1
 101 0 l 1,0,-1
186 260 m 1,14,-1
 333 260 l 2,15,16
 389 260 389 260 420.5 282 c 128,-1,17
 452 304 452 304 452 348 c 0,18,19
 452 393 452 393 420.5 411.5 c 128,-1,20
 389 430 389 430 333 430 c 2,21,-1
 186 430 l 1,22,-1
 186 260 l 1,14,-1
463 0 m 1,23,-1
 308 215 l 1,24,-1
 381 240 l 1,25,-1
 558 0 l 1,26,-1
 463 0 l 1,23,-1
EndSplineSet
Validated: 5
EndChar

StartChar: uni0282
Encoding: 642 642 517
Width: 614
GlyphClass: 2
Flags: W
AnchorPoint: "Anchor-3" 317 -224 basechar 0
AnchorPoint: "Anchor-0" 310 519 basechar 0
LayerCount: 2
Fore
SplineSet
202 -187 m 0,0,1
 134 -187 134 -187 103.5 -145 c 128,-1,2
 73 -103 73 -103 73 -22 c 2,3,-1
 73 66 l 1,4,-1
 148 57 l 1,5,-1
 148 -31 l 2,6,7
 148 -71 148 -71 161 -95.5 c 128,-1,8
 174 -120 174 -120 211 -120 c 0,9,10
 224 -120 224 -120 236.5 -117.5 c 128,-1,11
 249 -115 249 -115 258 -112 c 1,12,-1
 274 -174 l 1,13,14
 262 -179 262 -179 244 -183 c 128,-1,15
 226 -187 226 -187 202 -187 c 0,0,1
317 -12 m 0,16,17
 244 -12 244 -12 181 11.5 c 128,-1,18
 118 35 118 35 73 66 c 1,19,-1
 112 121 l 1,20,21
 155 90 155 90 207 71.5 c 128,-1,22
 259 53 259 53 328 53 c 0,23,24
 391 53 391 53 422.5 76.5 c 128,-1,25
 454 100 454 100 454 131 c 0,26,27
 454 145 454 145 448 157.5 c 128,-1,28
 442 170 442 170 426.5 181.5 c 128,-1,29
 411 193 411 193 380 203 c 128,-1,30
 349 213 349 213 298 223 c 0,31,32
 201 243 201 243 152 278 c 128,-1,33
 103 313 103 313 103 369 c 0,34,35
 103 429 103 429 155.5 469.5 c 128,-1,36
 208 510 208 510 310 510 c 0,37,38
 367 510 367 510 420.5 491 c 128,-1,39
 474 472 474 472 511 446 c 1,40,-1
 470 392 l 1,41,42
 436 417 436 417 393 430.5 c 128,-1,43
 350 444 350 444 303 444 c 0,44,45
 260 444 260 444 235 434.5 c 128,-1,46
 210 425 210 425 199 408.5 c 128,-1,47
 188 392 188 392 188 373 c 0,48,49
 188 341 188 341 222.5 323 c 128,-1,50
 257 305 257 305 333 290 c 0,51,52
 416 273 416 273 460.5 251 c 128,-1,53
 505 229 505 229 522 201.5 c 128,-1,54
 539 174 539 174 539 136 c 0,55,56
 539 95 539 95 513 62 c 128,-1,57
 487 29 487 29 438 8.5 c 128,-1,58
 389 -12 389 -12 317 -12 c 0,16,17
EndSplineSet
Validated: 5
EndChar

StartChar: uni0283
Encoding: 643 643 518
Width: 614
GlyphClass: 2
Flags: W
AnchorPoint: "Anchor-3" 262 -224 basechar 0
AnchorPoint: "Anchor-0" 371 754 basechar 0
LayerCount: 2
Fore
SplineSet
191 -222 m 0,0,1
 150 -222 150 -222 118.5 -213 c 128,-1,2
 87 -204 87 -204 57 -189 c 1,3,-1
 84 -127 l 1,4,5
 108 -137 108 -137 132 -145.5 c 128,-1,6
 156 -154 156 -154 181 -154 c 0,7,8
 216 -154 216 -154 234.5 -138.5 c 128,-1,9
 253 -123 253 -123 259.5 -95 c 128,-1,10
 266 -67 266 -67 266 -30 c 2,11,-1
 266 551 l 2,12,13
 266 611 266 611 283 654 c 128,-1,14
 300 697 300 697 337.5 720 c 128,-1,15
 375 743 375 743 436 743 c 0,16,17
 473 743 473 743 499.5 734.5 c 128,-1,18
 526 726 526 726 554 712 c 1,19,-1
 530 649 l 1,20,21
 507 660 507 660 488 667.5 c 128,-1,22
 469 675 469 675 445 675 c 0,23,24
 407 675 407 675 387 659.5 c 128,-1,25
 367 644 367 644 358.5 616.5 c 128,-1,26
 350 589 350 589 350 551 c 2,27,-1
 350 -31 l 2,28,29
 350 -90 350 -90 334.5 -133 c 128,-1,30
 319 -176 319 -176 284 -199 c 128,-1,31
 249 -222 249 -222 191 -222 c 0,0,1
EndSplineSet
Validated: 1
EndChar

StartChar: uni0284
Encoding: 644 644 519
Width: 614
GlyphClass: 2
Flags: W
AnchorPoint: "Anchor-3" 262 -224 basechar 0
AnchorPoint: "Anchor-0" 371 754 basechar 0
LayerCount: 2
Fore
SplineSet
86 227 m 1,0,-1
 86 287 l 1,1,-1
 268 293 l 1,2,-1
 528 293 l 1,3,-1
 528 227 l 1,4,-1
 86 227 l 1,0,-1
191 -222 m 0,5,6
 150 -222 150 -222 118.5 -213 c 128,-1,7
 87 -204 87 -204 57 -189 c 1,8,-1
 84 -127 l 1,9,10
 108 -137 108 -137 132 -145.5 c 128,-1,11
 156 -154 156 -154 181 -154 c 0,12,13
 216 -154 216 -154 234.5 -138.5 c 128,-1,14
 253 -123 253 -123 259.5 -95 c 128,-1,15
 266 -67 266 -67 266 -30 c 2,16,-1
 266 551 l 2,17,18
 266 611 266 611 283 654 c 128,-1,19
 300 697 300 697 337.5 720 c 128,-1,20
 375 743 375 743 436 743 c 0,21,22
 473 743 473 743 499.5 734.5 c 128,-1,23
 526 726 526 726 554 712 c 1,24,-1
 530 649 l 1,25,26
 507 660 507 660 488 667.5 c 128,-1,27
 469 675 469 675 445 675 c 0,28,29
 407 675 407 675 387 659.5 c 128,-1,30
 367 644 367 644 358.5 616.5 c 128,-1,31
 350 589 350 589 350 551 c 2,32,-1
 350 -31 l 2,33,34
 350 -90 350 -90 334.5 -133 c 128,-1,35
 319 -176 319 -176 284 -199 c 128,-1,36
 249 -222 249 -222 191 -222 c 0,5,6
EndSplineSet
Validated: 5
EndChar

StartChar: uni0288
Encoding: 648 648 521
Width: 614
GlyphClass: 2
Flags: W
AnchorPoint: "Anchor-3" 389 -224 basechar 0
AnchorPoint: "Anchor-0" 259 658 basechar 0
LayerCount: 2
Fore
SplineSet
402 -187 m 0,0,1
 330 -187 330 -187 288.5 -161.5 c 128,-1,2
 247 -136 247 -136 229 -89.5 c 128,-1,3
 211 -43 211 -43 211 18 c 2,4,-1
 211 429 l 1,5,-1
 71 429 l 1,6,-1
 71 493 l 1,7,-1
 214 498 l 1,8,-1
 225 657 l 1,9,-1
 295 657 l 1,10,-1
 295 498 l 1,11,-1
 540 498 l 1,12,-1
 540 429 l 1,13,-1
 295 429 l 1,14,-1
 295 17 l 2,15,16
 295 -27 295 -27 306 -57.5 c 128,-1,17
 317 -88 317 -88 345 -103.5 c 128,-1,18
 373 -119 373 -119 421 -119 c 0,19,20
 457 -119 457 -119 486 -112.5 c 128,-1,21
 515 -106 515 -106 541 -96 c 1,22,-1
 559 -158 l 1,23,24
 525 -170 525 -170 484 -178.5 c 128,-1,25
 443 -187 443 -187 402 -187 c 0,0,1
EndSplineSet
Validated: 1
EndChar

StartChar: uni0289
Encoding: 649 649 522
Width: 614
GlyphClass: 2
Flags: W
AnchorPoint: "Anchor-3" 307 -20 basechar 0
AnchorPoint: "Anchor-2" 454 0 basechar 0
AnchorPoint: "Anchor-0" 302 519 basechar 0
LayerCount: 2
Fore
SplineSet
252 -12 m 0,0,1
 174 -12 174 -12 137 37.5 c 128,-1,2
 100 87 100 87 100 182 c 2,3,-1
 100 498 l 1,4,-1
 184 498 l 1,5,-1
 184 193 l 2,6,7
 184 124 184 124 206.5 92.5 c 128,-1,8
 229 61 229 61 279 61 c 0,9,10
 318 61 318 61 347.5 81 c 128,-1,11
 377 101 377 101 412 145 c 1,12,-1
 412 498 l 1,13,-1
 496 498 l 1,14,-1
 496 0 l 1,15,-1
 426 0 l 1,16,-1
 420 78 l 1,17,-1
 418 78 l 1,18,19
 383 37 383 37 343 12.5 c 128,-1,20
 303 -12 303 -12 252 -12 c 0,0,1
2 260 m 1,21,-1
 2 319 l 1,22,-1
 100 326 l 1,23,-1
 600 326 l 1,24,-1
 600 260 l 1,25,-1
 2 260 l 1,21,-1
EndSplineSet
Validated: 5
EndChar

StartChar: uni028A
Encoding: 650 650 523
Width: 614
GlyphClass: 2
Flags: W
AnchorPoint: "Anchor-3" 307 -20 basechar 0
AnchorPoint: "Anchor-0" 307 519 basechar 0
LayerCount: 2
Fore
SplineSet
307 -12 m 0,0,1
 230 -12 230 -12 176 20 c 128,-1,2
 122 52 122 52 92.5 104.5 c 128,-1,3
 63 157 63 157 63 214 c 0,4,5
 63 265 63 265 78 305 c 128,-1,6
 93 345 93 345 115 375.5 c 128,-1,7
 137 406 137 406 160 427 c 1,8,-1
 160 429 l 1,9,-1
 51 429 l 1,10,-1
 51 498 l 1,11,-1
 251 498 l 1,12,-1
 251 443 l 1,13,14
 208 406 208 406 179 356 c 128,-1,15
 150 306 150 306 150 231 c 0,16,17
 150 185 150 185 167.5 145 c 128,-1,18
 185 105 185 105 220.5 81 c 128,-1,19
 256 57 256 57 307 57 c 0,20,21
 359 57 359 57 394 81 c 128,-1,22
 429 105 429 105 447 145 c 128,-1,23
 465 185 465 185 465 231 c 0,24,25
 465 306 465 306 436.5 356.5 c 128,-1,26
 408 407 408 407 364 443 c 1,27,-1
 364 498 l 1,28,-1
 563 498 l 1,29,-1
 563 429 l 1,30,-1
 455 429 l 1,31,-1
 455 427 l 1,32,33
 479 405 479 405 500 375 c 128,-1,34
 521 345 521 345 536 305 c 128,-1,35
 551 265 551 265 551 214 c 0,36,37
 551 157 551 157 522.5 104.5 c 128,-1,38
 494 52 494 52 439.5 20 c 128,-1,39
 385 -12 385 -12 307 -12 c 0,0,1
EndSplineSet
Validated: 1
EndChar

StartChar: uni028B
Encoding: 651 651 524
Width: 614
GlyphClass: 2
Flags: W
AnchorPoint: "Anchor-3" 310 -20 basechar 0
AnchorPoint: "Anchor-0" 310 519 basechar 0
LayerCount: 2
Fore
SplineSet
304 -12 m 0,0,1
 239 -12 239 -12 188.5 12 c 128,-1,2
 138 36 138 36 108.5 87 c 128,-1,3
 79 138 79 138 79 217 c 2,4,-1
 79 498 l 1,5,-1
 164 498 l 1,6,-1
 164 224 l 2,7,8
 164 165 164 165 183.5 128 c 128,-1,9
 203 91 203 91 235.5 74 c 128,-1,10
 268 57 268 57 307 57 c 0,11,12
 358 57 358 57 393.5 87.5 c 128,-1,13
 429 118 429 118 447.5 170 c 128,-1,14
 466 222 466 222 466 288 c 0,15,16
 466 364 466 364 444 403 c 128,-1,17
 422 442 422 442 376 442 c 0,18,19
 363 442 363 442 356.5 441 c 128,-1,20
 350 440 350 440 340 436 c 1,21,-1
 327 502 l 1,22,23
 341 506 341 506 355 508 c 128,-1,24
 369 510 369 510 393 510 c 0,25,26
 441 510 441 510 477 487.5 c 128,-1,27
 513 465 513 465 533 418.5 c 128,-1,28
 553 372 553 372 553 300 c 0,29,30
 553 210 553 210 525 139.5 c 128,-1,31
 497 69 497 69 441.5 28.5 c 128,-1,32
 386 -12 386 -12 304 -12 c 0,0,1
EndSplineSet
Validated: 1
EndChar

StartChar: uni028E
Encoding: 654 654 527
Width: 614
GlyphClass: 2
Flags: W
AnchorPoint: "Anchor-3" 313 -20 basechar 0
AnchorPoint: "Anchor-0" 407 754 basechar 0
LayerCount: 2
Fore
SplineSet
50 0 m 1,0,-1
 282 567 l 2,1,2
 301 616 301 616 327 655.5 c 128,-1,3
 353 695 353 695 392 718 c 128,-1,4
 431 741 431 741 484 741 c 0,5,6
 502 741 502 741 519.5 738.5 c 128,-1,7
 537 736 537 736 550 731 c 1,8,-1
 531 665 l 1,9,10
 522 668 522 668 511 670 c 128,-1,11
 500 672 500 672 488 672 c 0,12,13
 439 672 439 672 408.5 641 c 128,-1,14
 378 610 378 610 359 563 c 2,15,-1
 332 499 l 1,16,-1
 564 0 l 1,17,-1
 479 0 l 1,18,-1
 357 275 l 2,19,20
 343 308 343 308 327.5 346 c 128,-1,21
 312 384 312 384 296 420 c 1,22,-1
 292 420 l 1,23,24
 279 385 279 385 265 347 c 128,-1,25
 251 309 251 309 239 275 c 2,26,-1
 130 0 l 1,27,-1
 50 0 l 1,0,-1
EndSplineSet
Validated: 1
EndChar

StartChar: uni028F
Encoding: 655 655 528
Width: 614
GlyphClass: 2
Flags: W
AnchorPoint: "Anchor-3" 307 -20 basechar 0
AnchorPoint: "Anchor-0" 307 519 basechar 0
LayerCount: 2
Fore
SplineSet
266 0 m 1,0,-1
 266 168 l 1,1,-1
 58 498 l 1,2,-1
 150 498 l 1,3,-1
 237 356 l 2,4,5
 255 324 255 324 272.5 294.5 c 128,-1,6
 290 265 290 265 307 231 c 1,7,-1
 311 231 l 1,8,9
 327 265 327 265 344.5 294.5 c 128,-1,10
 362 324 362 324 382 356 c 2,11,-1
 468 498 l 1,12,-1
 558 498 l 1,13,-1
 350 168 l 1,14,-1
 350 0 l 1,15,-1
 266 0 l 1,0,-1
EndSplineSet
Validated: 1
EndChar

StartChar: uni0290
Encoding: 656 656 529
Width: 614
GlyphClass: 2
Flags: W
AnchorPoint: "Anchor-0" 328 519 basechar 0
LayerCount: 2
Fore
SplineSet
572 -187 m 0,0,1
 525 -187 525 -187 497.5 -168.5 c 128,-1,2
 470 -150 470 -150 457.5 -116 c 128,-1,3
 445 -82 445 -82 445 -37 c 2,4,-1
 445 0 l 1,5,-1
 73 0 l 1,6,-1
 73 45 l 1,7,-1
 407 429 l 1,8,-1
 111 429 l 1,9,-1
 111 498 l 1,10,-1
 527 498 l 1,11,-1
 527 453 l 1,12,-1
 193 69 l 1,13,-1
 529 69 l 1,14,-1
 529 -29 l 2,15,16
 529 -71 529 -71 540.5 -95 c 128,-1,17
 552 -119 552 -119 582 -119 c 0,18,19
 592 -119 592 -119 601.5 -116 c 128,-1,20
 611 -113 611 -113 618 -110 c 1,21,-1
 635 -174 l 1,22,23
 625 -179 625 -179 608 -183 c 128,-1,24
 591 -187 591 -187 572 -187 c 0,0,1
EndSplineSet
Validated: 1
EndChar

StartChar: uni0291
Encoding: 657 657 530
Width: 614
GlyphClass: 2
Flags: W
AnchorPoint: "Anchor-0" 318 519 basechar 0
LayerCount: 2
Fore
SplineSet
367 -119 m 1,0,-1
 303 -109 l 1,1,2
 321 1 321 1 350.5 74 c 128,-1,3
 380 147 380 147 418.5 184 c 128,-1,4
 457 221 457 221 504 221 c 0,5,6
 544 221 544 221 570 196 c 128,-1,7
 596 171 596 171 596 129 c 0,8,9
 596 92 596 92 578 63 c 128,-1,10
 560 34 560 34 524.5 17 c 128,-1,11
 489 0 489 0 436 0 c 2,12,-1
 73 0 l 1,13,-1
 73 45 l 1,14,-1
 404 429 l 1,15,-1
 111 429 l 1,16,-1
 111 498 l 1,17,-1
 515 498 l 1,18,-1
 515 453 l 1,19,-1
 184 69 l 1,20,21
 261 68 261 68 324 67 c 128,-1,22
 387 66 387 66 456 66 c 0,23,24
 494 66 494 66 513 84 c 128,-1,25
 532 102 532 102 532 125 c 0,26,27
 532 142 532 142 522.5 151 c 128,-1,28
 513 160 513 160 498 160 c 0,29,30
 474 160 474 160 449.5 132.5 c 128,-1,31
 425 105 425 105 403.5 44 c 128,-1,32
 382 -17 382 -17 367 -119 c 1,0,-1
EndSplineSet
Validated: 5
EndChar

StartChar: uni0292
Encoding: 658 658 531
Width: 614
GlyphClass: 2
Flags: W
AnchorPoint: "Anchor-3" 293 -231 basechar 0
AnchorPoint: "Anchor-0" 311 519 basechar 0
LayerCount: 2
Fore
SplineSet
295 -222 m 0,0,1
 237 -222 237 -222 194 -208.5 c 128,-1,2
 151 -195 151 -195 118.5 -172.5 c 128,-1,3
 86 -150 86 -150 60 -126 c 1,4,-1
 101 -72 l 1,5,6
 124 -92 124 -92 150 -110.5 c 128,-1,7
 176 -129 176 -129 210 -141 c 128,-1,8
 244 -153 244 -153 288 -153 c 0,9,10
 333 -153 333 -153 371 -133.5 c 128,-1,11
 409 -114 409 -114 432 -78.5 c 128,-1,12
 455 -43 455 -43 455 4 c 0,13,14
 455 70 455 70 411 107.5 c 128,-1,15
 367 145 367 145 284 145 c 0,16,17
 251 145 251 145 232.5 139 c 128,-1,18
 214 133 214 133 185 120 c 1,19,-1
 152 167 l 1,20,-1
 409 429 l 1,21,-1
 101 429 l 1,22,-1
 101 498 l 1,23,-1
 518 498 l 1,24,-1
 518 453 l 1,25,-1
 254 177 l 1,26,-1
 243 187 l 1,27,28
 266 197 266 197 284.5 201 c 128,-1,29
 303 205 303 205 318 205 c 0,30,31
 388 205 388 205 437 180 c 128,-1,32
 486 155 486 155 513 110.5 c 128,-1,33
 540 66 540 66 540 6 c 0,34,35
 540 -67 540 -67 505 -118 c 128,-1,36
 470 -169 470 -169 414 -195.5 c 128,-1,37
 358 -222 358 -222 295 -222 c 0,0,1
EndSplineSet
Validated: 5
EndChar

StartChar: uni02A4
Encoding: 676 676 532
Width: 614
GlyphClass: 2
Flags: W
AnchorPoint: "Anchor-3" 338 -224 basechar 0
AnchorPoint: "Anchor-0" 287 748 basechar 0
LayerCount: 2
Fore
SplineSet
159 -12 m 0,0,1
 113 -12 113 -12 77 18.5 c 128,-1,2
 41 49 41 49 20.5 107.5 c 128,-1,3
 0 166 0 166 0 248 c 0,4,5
 0 328 0 328 23.5 386.5 c 128,-1,6
 47 445 47 445 85.5 477.5 c 128,-1,7
 124 510 124 510 168 510 c 0,8,9
 199 510 199 510 222 494.5 c 128,-1,10
 245 479 245 479 260 453 c 1,11,-1
 262 453 l 1,12,-1
 258 548 l 1,13,-1
 258 729 l 1,14,-1
 336 729 l 1,15,-1
 336 0 l 1,16,-1
 275 0 l 1,17,-1
 268 59 l 1,18,-1
 265 59 l 1,19,20
 249 31 249 31 222 9.5 c 128,-1,21
 195 -12 195 -12 159 -12 c 0,0,1
176 58 m 0,22,23
 203 58 203 58 223 79.5 c 128,-1,24
 243 101 243 101 258 135 c 1,25,-1
 258 381 l 1,26,27
 242 409 242 409 224.5 424 c 128,-1,28
 207 439 207 439 182 439 c 0,29,30
 153 439 153 439 131 415 c 128,-1,31
 109 391 109 391 96.5 348 c 128,-1,32
 84 305 84 305 84 249 c 0,33,34
 84 161 84 161 107.5 109.5 c 128,-1,35
 131 58 131 58 176 58 c 0,22,23
461 -222 m 0,36,37
 411 -222 411 -222 376.5 -204.5 c 128,-1,38
 342 -187 342 -187 315 -162 c 1,39,-1
 355 -109 l 1,40,41
 375 -128 375 -128 398.5 -140.5 c 128,-1,42
 422 -153 422 -153 455 -153 c 0,43,44
 497 -153 497 -153 523 -115 c 128,-1,45
 549 -77 549 -77 549 0 c 0,46,47
 549 65 549 65 526 100 c 128,-1,48
 503 135 503 135 458 135 c 0,49,50
 442 135 442 135 431.5 131.5 c 128,-1,51
 421 128 421 128 407 120 c 1,52,-1
 373 173 l 1,53,-1
 522 429 l 1,54,-1
 312 429 l 1,55,-1
 312 498 l 1,56,-1
 611 498 l 1,57,-1
 611 453 l 1,58,-1
 446 164 l 1,59,-1
 429 193 l 1,60,61
 442 197 442 197 455 199 c 128,-1,62
 468 201 468 201 479 201 c 0,63,64
 528 201 528 201 562.5 173.5 c 128,-1,65
 597 146 597 146 615 100.5 c 128,-1,66
 633 55 633 55 633 0 c 0,67,68
 633 -71 633 -71 610 -120.5 c 128,-1,69
 587 -170 587 -170 548 -196 c 128,-1,70
 509 -222 509 -222 461 -222 c 0,36,37
EndSplineSet
Validated: 5
EndChar

StartChar: uni02A6
Encoding: 678 678 533
Width: 614
GlyphClass: 2
Flags: W
AnchorPoint: "Anchor-3" 342 -20 basechar 0
AnchorPoint: "Anchor-0" 338 658 basechar 0
LayerCount: 2
Fore
SplineSet
336 -12 m 0,0,1
 248 -12 248 -12 196 10 c 128,-1,2
 144 32 144 32 122 75 c 128,-1,3
 100 118 100 118 100 180 c 2,4,-1
 100 429 l 1,5,-1
 26 429 l 1,6,-1
 26 493 l 1,7,-1
 103 498 l 1,8,-1
 114 657 l 1,9,-1
 184 657 l 1,10,-1
 184 498 l 1,11,-1
 398 498 l 1,12,-1
 398 429 l 1,13,-1
 184 429 l 1,14,-1
 184 179 l 2,15,16
 184 135 184 135 199 107 c 128,-1,17
 214 79 214 79 248 66 c 128,-1,18
 282 53 282 53 340 53 c 0,19,20
 403 53 403 53 439 63.5 c 128,-1,21
 475 74 475 74 491 93 c 128,-1,22
 507 112 507 112 507 137 c 0,23,24
 507 169 507 169 492 190.5 c 128,-1,25
 477 212 477 212 454.5 228 c 128,-1,26
 432 244 432 244 406.5 258 c 128,-1,27
 381 272 381 272 358.5 289 c 128,-1,28
 336 306 336 306 321.5 330.5 c 128,-1,29
 307 355 307 355 307 390 c 0,30,31
 307 449 307 449 346 479.5 c 128,-1,32
 385 510 385 510 446 510 c 0,33,34
 484 510 484 510 517 497 c 128,-1,35
 550 484 550 484 578 461 c 1,36,-1
 545 412 l 1,37,38
 522 429 522 429 500.5 438 c 128,-1,39
 479 447 479 447 453 447 c 0,40,41
 423 447 423 447 405 432 c 128,-1,42
 387 417 387 417 387 388 c 0,43,44
 387 365 387 365 401.5 349 c 128,-1,45
 416 333 416 333 438.5 319.5 c 128,-1,46
 461 306 461 306 486 291 c 128,-1,47
 511 276 511 276 533 257 c 128,-1,48
 555 238 555 238 569.5 208.5 c 128,-1,49
 584 179 584 179 584 136 c 0,50,51
 584 90 584 90 560 57 c 128,-1,52
 536 24 536 24 481.5 6 c 128,-1,53
 427 -12 427 -12 336 -12 c 0,0,1
EndSplineSet
Validated: 5
EndChar

StartChar: uni02A7
Encoding: 679 679 534
Width: 614
GlyphClass: 2
Flags: W
AnchorPoint: "Anchor-3" 339 -224 basechar 0
AnchorPoint: "Anchor-0" 300 748 basechar 0
LayerCount: 2
Fore
SplineSet
263 -12 m 0,0,1
 184 -12 184 -12 153.5 34 c 128,-1,2
 123 80 123 80 123 154 c 2,3,-1
 123 429 l 1,4,-1
 49 429 l 1,5,-1
 49 493 l 1,6,-1
 126 498 l 1,7,-1
 137 657 l 1,8,-1
 208 657 l 1,9,-1
 208 498 l 1,10,-1
 438 498 l 1,11,-1
 438 429 l 1,12,-1
 208 429 l 1,13,-1
 208 153 l 2,14,15
 208 108 208 108 223.5 82 c 128,-1,16
 239 56 239 56 279 56 c 0,17,18
 293 56 293 56 309 60.5 c 128,-1,19
 325 65 325 65 338 70 c 1,20,-1
 353 6 l 1,21,22
 333 -1 333 -1 309.5 -6.5 c 128,-1,23
 286 -12 286 -12 263 -12 c 0,0,1
361 -222 m 0,24,25
 339 -222 339 -222 321 -218 c 128,-1,26
 303 -214 303 -214 290 -209 c 1,27,-1
 307 -145 l 1,28,29
 316 -148 316 -148 328.5 -151 c 128,-1,30
 341 -154 341 -154 354 -154 c 0,31,32
 389 -154 389 -154 400.5 -127 c 128,-1,33
 412 -100 412 -100 412 -56 c 2,34,-1
 412 580 l 2,35,36
 412 630 412 630 426.5 666 c 128,-1,37
 441 702 441 702 473 722.5 c 128,-1,38
 505 743 505 743 556 743 c 0,39,40
 575 743 575 743 590.5 739 c 128,-1,41
 606 735 606 735 617 730 c 1,42,-1
 601 666 l 1,43,44
 594 669 594 669 584 672 c 128,-1,45
 574 675 574 675 564 675 c 0,46,47
 523 675 523 675 509.5 649 c 128,-1,48
 496 623 496 623 496 577 c 2,49,-1
 496 -56 l 2,50,51
 496 -107 496 -107 482.5 -144 c 128,-1,52
 469 -181 469 -181 439 -201.5 c 128,-1,53
 409 -222 409 -222 361 -222 c 0,24,25
EndSplineSet
Validated: 5
EndChar

StartChar: uni0294
Encoding: 660 660 535
Width: 614
GlyphClass: 2
Flags: W
AnchorPoint: "Anchor-3" 286 -20 basechar 0
AnchorPoint: "Anchor-0" 307 754 basechar 0
LayerCount: 2
Fore
SplineSet
245 0 m 1,0,-1
 245 318 l 1,1,2
 313 357 313 357 354.5 389 c 128,-1,3
 396 421 396 421 416 455.5 c 128,-1,4
 436 490 436 490 436 536 c 0,5,6
 436 598 436 598 396 635 c 128,-1,7
 356 672 356 672 284 672 c 0,8,9
 226 672 226 672 185 647 c 128,-1,10
 144 622 144 622 118 589 c 1,11,-1
 73 643 l 1,12,13
 96 669 96 669 126.5 691.5 c 128,-1,14
 157 714 157 714 197.5 727.5 c 128,-1,15
 238 741 238 741 290 741 c 0,16,17
 355 741 355 741 407.5 718 c 128,-1,18
 460 695 460 695 491 649.5 c 128,-1,19
 522 604 522 604 522 537 c 0,20,21
 522 478 522 478 497 434 c 128,-1,22
 472 390 472 390 428.5 354 c 128,-1,23
 385 318 385 318 329 282 c 1,24,-1
 329 0 l 1,25,-1
 245 0 l 1,0,-1
EndSplineSet
Validated: 1
EndChar

StartChar: uni0295
Encoding: 661 661 536
Width: 614
GlyphClass: 2
Flags: W
AnchorPoint: "Anchor-3" 328 -20 basechar 0
AnchorPoint: "Anchor-0" 313 754 basechar 0
LayerCount: 2
Fore
SplineSet
285 0 m 1,0,-1
 285 282 l 1,1,2
 228 319 228 319 184 354.5 c 128,-1,3
 140 390 140 390 115.5 433.5 c 128,-1,4
 91 477 91 477 91 537 c 0,5,6
 91 605 91 605 122.5 650 c 128,-1,7
 154 695 154 695 206.5 718 c 128,-1,8
 259 741 259 741 323 741 c 0,9,10
 376 741 376 741 416.5 727.5 c 128,-1,11
 457 714 457 714 487.5 691.5 c 128,-1,12
 518 669 518 669 540 643 c 1,13,-1
 496 589 l 1,14,15
 469 622 469 622 428 647 c 128,-1,16
 387 672 387 672 329 672 c 0,17,18
 257 672 257 672 216.5 635 c 128,-1,19
 176 598 176 598 176 536 c 0,20,21
 176 491 176 491 196.5 456 c 128,-1,22
 217 421 217 421 259 389 c 128,-1,23
 301 357 301 357 369 318 c 1,24,-1
 369 0 l 1,25,-1
 285 0 l 1,0,-1
EndSplineSet
Validated: 1
EndChar

StartChar: uni02A1
Encoding: 673 673 537
Width: 614
GlyphClass: 2
Flags: W
AnchorPoint: "Anchor-3" 286 -20 basechar 0
AnchorPoint: "Anchor-0" 307 754 basechar 0
LayerCount: 2
Fore
SplineSet
245 0 m 1,0,-1
 245 257 l 1,1,-1
 76 257 l 1,2,-1
 76 316 l 1,3,-1
 154 322 l 1,4,-1
 258 322 l 1,5,6
 343 370 343 370 389.5 422 c 128,-1,7
 436 474 436 474 436 536 c 0,8,9
 436 598 436 598 397.5 635 c 128,-1,10
 359 672 359 672 288 672 c 0,11,12
 229 672 229 672 187.5 646.5 c 128,-1,13
 146 621 146 621 118 589 c 1,14,-1
 73 643 l 1,15,16
 96 668 96 668 127 690.5 c 128,-1,17
 158 713 158 713 199.5 727 c 128,-1,18
 241 741 241 741 294 741 c 0,19,20
 357 741 357 741 409 718 c 128,-1,21
 461 695 461 695 491.5 649.5 c 128,-1,22
 522 604 522 604 522 537 c 0,23,24
 522 489 522 489 501.5 450 c 128,-1,25
 481 411 481 411 447.5 379.5 c 128,-1,26
 414 348 414 348 375 322 c 1,27,-1
 530 322 l 1,28,-1
 530 257 l 1,29,-1
 329 257 l 1,30,-1
 329 0 l 1,31,-1
 245 0 l 1,0,-1
EndSplineSet
Validated: 1
EndChar

StartChar: uni02A2
Encoding: 674 674 538
Width: 614
GlyphClass: 2
Flags: W
AnchorPoint: "Anchor-3" 328 -20 basechar 0
AnchorPoint: "Anchor-0" 313 754 basechar 0
LayerCount: 2
Fore
SplineSet
286 0 m 1,0,-1
 286 257 l 1,1,-1
 84 257 l 1,2,-1
 84 316 l 1,3,-1
 162 322 l 1,4,-1
 240 322 l 1,5,6
 201 349 201 349 167 380 c 128,-1,7
 133 411 133 411 112.5 449.5 c 128,-1,8
 92 488 92 488 92 537 c 0,9,10
 92 605 92 605 122.5 650 c 128,-1,11
 153 695 153 695 204.5 718 c 128,-1,12
 256 741 256 741 321 741 c 0,13,14
 374 741 374 741 415.5 727 c 128,-1,15
 457 713 457 713 488 690.5 c 128,-1,16
 519 668 519 668 542 643 c 1,17,-1
 497 589 l 1,18,19
 468 621 468 621 427 646.5 c 128,-1,20
 386 672 386 672 327 672 c 0,21,22
 255 672 255 672 216 635 c 128,-1,23
 177 598 177 598 177 536 c 0,24,25
 177 475 177 475 224 422.5 c 128,-1,26
 271 370 271 370 355 322 c 1,27,-1
 539 322 l 1,28,-1
 539 257 l 1,29,-1
 370 257 l 1,30,-1
 370 0 l 1,31,-1
 286 0 l 1,0,-1
EndSplineSet
Validated: 1
EndChar

StartChar: uni01C2
Encoding: 450 450 539
Width: 614
GlyphClass: 1
Flags: W
LayerCount: 2
Fore
SplineSet
266 -210 m 1,0,-1
 266 729 l 1,1,-1
 348 729 l 1,2,-1
 348 -210 l 1,3,-1
 266 -210 l 1,0,-1
86 332 m 1,4,-1
 86 391 l 1,5,-1
 270 395 l 1,6,-1
 528 395 l 1,7,-1
 528 332 l 1,8,-1
 86 332 l 1,4,-1
86 158 m 1,9,-1
 86 217 l 1,10,-1
 270 221 l 1,11,-1
 528 221 l 1,12,-1
 528 158 l 1,13,-1
 86 158 l 1,9,-1
EndSplineSet
Validated: 5
EndChar

StartChar: uni0298
Encoding: 664 664 540
Width: 614
GlyphClass: 1
Flags: W
LayerCount: 2
Fore
SplineSet
307 -12 m 256,0,1
 232 -12 232 -12 177 28 c 128,-1,2
 122 68 122 68 91.5 152.5 c 128,-1,3
 61 237 61 237 61 368 c 0,4,5
 61 490 61 490 91.5 573 c 128,-1,6
 122 656 122 656 177 698.5 c 128,-1,7
 232 741 232 741 307 741 c 256,8,9
 382 741 382 741 437.5 698.5 c 128,-1,10
 493 656 493 656 523.5 572.5 c 128,-1,11
 554 489 554 489 554 368 c 0,12,13
 554 237 554 237 523.5 152.5 c 128,-1,14
 493 68 493 68 437.5 28 c 128,-1,15
 382 -12 382 -12 307 -12 c 256,0,1
307 57 m 256,16,17
 354 57 354 57 391.5 87.5 c 128,-1,18
 429 118 429 118 451 185.5 c 128,-1,19
 473 253 473 253 473 368 c 0,20,21
 473 472 473 472 451 539.5 c 128,-1,22
 429 607 429 607 391.5 639.5 c 128,-1,23
 354 672 354 672 307 672 c 256,24,25
 260 672 260 672 222.5 639.5 c 128,-1,26
 185 607 185 607 163 539.5 c 128,-1,27
 141 472 141 472 141 368 c 0,28,29
 141 253 141 253 163 185.5 c 128,-1,30
 185 118 185 118 222.5 87.5 c 128,-1,31
 260 57 260 57 307 57 c 256,16,17
307 303 m 256,32,33
 281 303 281 303 262.5 321.5 c 128,-1,34
 244 340 244 340 244 368 c 0,35,36
 244 398 244 398 263 415.5 c 128,-1,37
 282 433 282 433 307 433 c 256,38,39
 333 433 333 433 352 415 c 128,-1,40
 371 397 371 397 371 368 c 0,41,42
 371 340 371 340 352 321.5 c 128,-1,43
 333 303 333 303 307 303 c 256,32,33
EndSplineSet
Validated: 1
EndChar

StartChar: uni014A.a
Encoding: 1114119 -1 541
Width: 614
GlyphClass: 2
Flags: W
AnchorPoint: "Anchor-0" 317 692 basechar 0
LayerCount: 2
Fore
SplineSet
407 -169 m 0,0,1
 384 -169 384 -169 366 -165 c 128,-1,2
 348 -161 348 -161 336 -157 c 1,3,-1
 352 -89 l 1,4,5
 361 -92 361 -92 372.5 -95 c 128,-1,6
 384 -98 384 -98 395 -98 c 0,7,8
 428 -98 428 -98 438.5 -71 c 128,-1,9
 449 -44 449 -44 449 0 c 1,10,-1
 436 0 l 1,11,-1
 221 422 l 1,12,-1
 157 561 l 1,13,-1
 155 561 l 1,14,15
 157 510 157 510 161.5 456.5 c 128,-1,16
 166 403 166 403 166 351 c 2,17,-1
 166 0 l 1,18,-1
 84 0 l 1,19,-1
 84 672 l 1,20,-1
 178 672 l 1,21,-1
 393 250 l 1,22,-1
 458 111 l 1,23,-1
 460 111 l 1,24,25
 458 161 458 161 453.5 215.5 c 128,-1,26
 449 270 449 270 449 324 c 2,27,-1
 449 672 l 1,28,-1
 530 672 l 1,29,-1
 530 -3 l 2,30,31
 530 -54 530 -54 517.5 -91.5 c 128,-1,32
 505 -129 505 -129 478 -149 c 128,-1,33
 451 -169 451 -169 407 -169 c 0,0,1
EndSplineSet
Validated: 1
EndChar

StartChar: aringacute.a
Encoding: 1114129 -1 551
Width: 614
GlyphClass: 1
Flags: W
LayerCount: 2
Fore
SplineSet
278 744 m 1,0,-1
 239 759 l 1,1,-1
 382 863 l 1,2,-1
 419 812 l 1,3,-1
 278 744 l 1,0,-1
276 -12 m 0,4,5
 213 -12 213 -12 164.5 18 c 128,-1,6
 116 48 116 48 88.5 106.5 c 128,-1,7
 61 165 61 165 61 248 c 0,8,9
 61 329 61 329 93 387.5 c 128,-1,10
 125 446 125 446 177 478 c 128,-1,11
 229 510 229 510 289 510 c 0,12,13
 333 510 333 510 370 493 c 128,-1,14
 407 476 407 476 441 442 c 1,15,-1
 444 442 l 1,16,-1
 452 498 l 1,17,-1
 519 498 l 1,18,-1
 519 0 l 1,19,-1
 450 0 l 1,20,-1
 442 66 l 1,21,-1
 439 66 l 1,22,23
 409 34 409 34 366 11 c 128,-1,24
 323 -12 323 -12 276 -12 c 0,4,5
295 58 m 0,25,26
 332 58 332 58 366.5 77 c 128,-1,27
 401 96 401 96 435 133 c 1,28,-1
 435 381 l 1,29,30
 401 413 401 413 369 426 c 128,-1,31
 337 439 337 439 304 439 c 0,32,33
 261 439 261 439 225.5 415 c 128,-1,34
 190 391 190 391 169 348.5 c 128,-1,35
 148 306 148 306 148 249 c 0,36,37
 148 160 148 160 187 109 c 128,-1,38
 226 58 226 58 295 58 c 0,25,26
311 583 m 0,39,40
 259 583 259 583 229 611.5 c 128,-1,41
 199 640 199 640 199 681 c 0,42,43
 199 723 199 723 229 751 c 128,-1,44
 259 779 259 779 311 779 c 0,45,46
 364 779 364 779 393.5 751 c 128,-1,47
 423 723 423 723 423 681 c 0,48,49
 423 640 423 640 393.5 611.5 c 128,-1,50
 364 583 364 583 311 583 c 0,39,40
311 621 m 256,51,52
 336 621 336 621 353 638 c 128,-1,53
 370 655 370 655 370 681 c 0,54,55
 370 708 370 708 353 724.5 c 128,-1,56
 336 741 336 741 311 741 c 256,57,58
 286 741 286 741 269.5 724.5 c 128,-1,59
 253 708 253 708 253 681 c 0,60,61
 253 655 253 655 269.5 638 c 128,-1,62
 286 621 286 621 311 621 c 256,51,52
EndSplineSet
Validated: 5
EndChar

StartChar: aogonek.a
Encoding: 1114143 -1 565
Width: 614
GlyphClass: 2
Flags: W
AnchorPoint: "Anchor-0" 313 519 basechar 0
LayerCount: 2
Fore
SplineSet
462 -230 m 0,0,1
 419 -230 419 -230 389.5 -206.5 c 128,-1,2
 360 -183 360 -183 360 -135 c 0,3,4
 360 -105 360 -105 372.5 -80.5 c 128,-1,5
 385 -56 385 -56 405.5 -35.5 c 128,-1,6
 426 -15 426 -15 451 0 c 1,7,-1
 442 66 l 1,8,-1
 439 66 l 1,9,10
 409 34 409 34 366.5 11 c 128,-1,11
 324 -12 324 -12 276 -12 c 0,12,13
 213 -12 213 -12 164.5 18 c 128,-1,14
 116 48 116 48 88.5 106.5 c 128,-1,15
 61 165 61 165 61 248 c 0,16,17
 61 329 61 329 93 387.5 c 128,-1,18
 125 446 125 446 177 478 c 128,-1,19
 229 510 229 510 289 510 c 0,20,21
 333 510 333 510 370 493 c 128,-1,22
 407 476 407 476 441 442 c 1,23,-1
 444 442 l 1,24,-1
 452 498 l 1,25,-1
 519 498 l 1,26,-1
 519 -5 l 1,27,28
 466 -29 466 -29 444.5 -59 c 128,-1,29
 423 -89 423 -89 423 -119 c 0,30,31
 423 -148 423 -148 440 -161.5 c 128,-1,32
 457 -175 457 -175 479 -175 c 0,33,34
 495 -175 495 -175 507.5 -168.5 c 128,-1,35
 520 -162 520 -162 529 -154 c 1,36,-1
 554 -194 l 1,37,38
 537 -210 537 -210 514 -220 c 128,-1,39
 491 -230 491 -230 462 -230 c 0,0,1
295 58 m 0,40,41
 332 58 332 58 366.5 77 c 128,-1,42
 401 96 401 96 435 133 c 1,43,-1
 435 381 l 1,44,45
 401 413 401 413 369 426 c 128,-1,46
 337 439 337 439 304 439 c 0,47,48
 261 439 261 439 225.5 415 c 128,-1,49
 190 391 190 391 169 348.5 c 128,-1,50
 148 306 148 306 148 249 c 0,51,52
 148 160 148 160 187 109 c 128,-1,53
 226 58 226 58 295 58 c 0,40,41
EndSplineSet
Validated: 1
EndChar

StartChar: dotlessi.a
Encoding: 1114154 -1 576
Width: 614
GlyphClass: 2
Flags: W
AnchorPoint: "Anchor-6" 344 0 basechar 0
AnchorPoint: "Anchor-3" 336 -20 basechar 0
AnchorPoint: "Anchor-2" 342 0 basechar 0
AnchorPoint: "Anchor-0" 336 519 basechar 0
LayerCount: 2
Fore
SplineSet
303 0 m 1,0,-1
 303 429 l 1,1,-1
 126 429 l 1,2,-1
 126 498 l 1,3,-1
 387 498 l 1,4,-1
 387 0 l 1,5,-1
 303 0 l 1,0,-1
101 0 m 1,6,-1
 101 69 l 1,7,-1
 578 69 l 1,8,-1
 578 0 l 1,9,-1
 101 0 l 1,6,-1
EndSplineSet
Validated: 5
EndChar

StartChar: iogonek.d
Encoding: 1114167 -1 589
Width: 614
GlyphClass: 2
Flags: W
AnchorPoint: "Anchor-0" 356 519 basechar 0
LayerCount: 2
Fore
SplineSet
361 -230 m 0,0,1
 316 -230 316 -230 285.5 -206.5 c 128,-1,2
 255 -183 255 -183 255 -135 c 0,3,4
 255 -92 255 -92 280.5 -58.5 c 128,-1,5
 306 -25 306 -25 343 0 c 1,6,-1
 324 0 l 1,7,-1
 324 429 l 1,8,-1
 92 429 l 1,9,-1
 92 498 l 1,10,-1
 408 498 l 1,11,-1
 408 -5 l 1,12,13
 363 -27 363 -27 340 -57.5 c 128,-1,14
 317 -88 317 -88 317 -119 c 0,15,16
 317 -148 317 -148 335.5 -161.5 c 128,-1,17
 354 -175 354 -175 379 -175 c 0,18,19
 395 -175 395 -175 408.5 -168.5 c 128,-1,20
 422 -162 422 -162 432 -154 c 1,21,-1
 457 -194 l 1,22,23
 439 -210 439 -210 414.5 -220 c 128,-1,24
 390 -230 390 -230 361 -230 c 0,0,1
EndSplineSet
Validated: 1
Substitution2: "'ss04' Style Set 4 lookup 31 subtable" iogonek.da
Ligature2: "Ligature Substitution lookup 7 subtable" i uni0328
EndChar

StartChar: iogonek.da
Encoding: 1114168 -1 590
Width: 614
GlyphClass: 2
Flags: W
AnchorPoint: "Anchor-0" 336 532 basechar 0
LayerCount: 2
Fore
SplineSet
353 -230 m 0,0,1
 308 -230 308 -230 278 -206.5 c 128,-1,2
 248 -183 248 -183 248 -135 c 0,3,4
 248 -93 248 -93 271.5 -59.5 c 128,-1,5
 295 -26 295 -26 325 0 c 1,6,-1
 101 0 l 1,7,-1
 101 69 l 1,8,-1
 303 69 l 1,9,-1
 303 429 l 1,10,-1
 126 429 l 1,11,-1
 126 498 l 1,12,-1
 387 498 l 1,13,-1
 387 69 l 1,14,-1
 578 69 l 1,15,-1
 578 0 l 1,16,-1
 392 0 l 1,17,18
 350 -30 350 -30 330 -60.5 c 128,-1,19
 310 -91 310 -91 310 -119 c 0,20,21
 310 -148 310 -148 328.5 -161.5 c 128,-1,22
 347 -175 347 -175 371 -175 c 0,23,24
 388 -175 388 -175 401.5 -168.5 c 128,-1,25
 415 -162 415 -162 425 -154 c 1,26,-1
 450 -194 l 1,27,28
 432 -210 432 -210 407.5 -220 c 128,-1,29
 383 -230 383 -230 353 -230 c 0,0,1
EndSplineSet
Validated: 1
Ligature2: "Ligature Substitution lookup 8 subtable" i.a uni0328
EndChar

StartChar: uni0268.d
Encoding: 1114169 -1 591
Width: 614
GlyphClass: 2
Flags: W
AnchorPoint: "Anchor-3" 356 -20 basechar 0
AnchorPoint: "Anchor-0" 356 519 basechar 0
LayerCount: 2
Fore
SplineSet
135 215 m 1,0,-1
 135 272 l 1,1,-1
 326 279 l 1,2,-1
 578 279 l 1,3,-1
 578 215 l 1,4,-1
 135 215 l 1,0,-1
324 0 m 1,5,-1
 324 429 l 1,6,-1
 92 429 l 1,7,-1
 92 498 l 1,8,-1
 408 498 l 1,9,-1
 408 0 l 1,10,-1
 324 0 l 1,5,-1
EndSplineSet
Validated: 5
Substitution2: "'ss04' Style Set 4 lookup 31 subtable" uni0268.da
EndChar

StartChar: uni0268.da
Encoding: 1114170 -1 592
Width: 614
GlyphClass: 2
Flags: W
AnchorPoint: "Anchor-3" 336 -20 basechar 0
AnchorPoint: "Anchor-0" 336 519 basechar 0
LayerCount: 2
Fore
SplineSet
119 225 m 1,0,-1
 119 285 l 1,1,-1
 309 291 l 1,2,-1
 561 291 l 1,3,-1
 561 225 l 1,4,-1
 119 225 l 1,0,-1
303 0 m 1,5,-1
 303 429 l 1,6,-1
 126 429 l 1,7,-1
 126 498 l 1,8,-1
 387 498 l 1,9,-1
 387 0 l 1,10,-1
 303 0 l 1,5,-1
101 0 m 1,11,-1
 101 69 l 1,12,-1
 578 69 l 1,13,-1
 578 0 l 1,14,-1
 101 0 l 1,11,-1
EndSplineSet
Validated: 5
EndChar

StartChar: uni029D.d
Encoding: 1114171 -1 593
Width: 614
GlyphClass: 2
Flags: W
AnchorPoint: "Anchor-3" 228 -224 basechar 0
AnchorPoint: "Anchor-0" 356 519 basechar 0
LayerCount: 2
Fore
SplineSet
428 -256 m 1,0,1
 372 -151 372 -151 310.5 -109 c 128,-1,2
 249 -67 249 -67 188 -67 c 0,3,4
 155 -67 155 -67 140 -78.5 c 128,-1,5
 125 -90 125 -90 125 -108 c 0,6,7
 125 -127 125 -127 146 -141.5 c 128,-1,8
 167 -156 167 -156 205 -156 c 0,9,10
 252 -156 252 -156 277.5 -138 c 128,-1,11
 303 -120 303 -120 313.5 -93.5 c 128,-1,12
 324 -67 324 -67 324 -38 c 2,13,-1
 324 429 l 1,14,-1
 92 429 l 1,15,-1
 92 498 l 1,16,-1
 408 498 l 1,17,-1
 408 -20 l 2,18,19
 408 -77 408 -77 386.5 -123.5 c 128,-1,20
 365 -170 365 -170 319.5 -196 c 128,-1,21
 274 -222 274 -222 206 -222 c 0,22,23
 159 -222 159 -222 125 -206 c 128,-1,24
 91 -190 91 -190 74 -164.5 c 128,-1,25
 57 -139 57 -139 57 -109 c 0,26,27
 57 -63 57 -63 91.5 -34.5 c 128,-1,28
 126 -6 126 -6 189 -6 c 0,29,30
 240 -6 240 -6 294.5 -27 c 128,-1,31
 349 -48 349 -48 400.5 -95.5 c 128,-1,32
 452 -143 452 -143 494 -225 c 1,33,-1
 428 -256 l 1,0,1
EndSplineSet
Validated: 5
EndChar

StartChar: l.a
Encoding: 1114172 -1 594
Width: 614
GlyphClass: 2
Flags: W
AnchorPoint: "Anchor-4" 345 394 basechar 0
AnchorPoint: "Anchor-3" 336 -20 basechar 0
AnchorPoint: "Anchor-2" 342 0 basechar 0
AnchorPoint: "Anchor-0" 342 754 basechar 0
LayerCount: 2
Fore
SplineSet
303 0 m 1,0,-1
 303 660 l 1,1,-1
 126 660 l 1,2,-1
 126 729 l 1,3,-1
 387 729 l 1,4,-1
 387 0 l 1,5,-1
 303 0 l 1,0,-1
101 0 m 1,6,-1
 101 69 l 1,7,-1
 578 69 l 1,8,-1
 578 0 l 1,9,-1
 101 0 l 1,6,-1
EndSplineSet
Validated: 5
EndChar

StartChar: lslash.a
Encoding: 1114179 -1 601
Width: 614
GlyphClass: 2
Flags: W
AnchorPoint: "Anchor-3" 336 -20 basechar 0
AnchorPoint: "Anchor-2" 342 0 basechar 0
AnchorPoint: "Anchor-0" 342 754 basechar 0
LayerCount: 2
Fore
SplineSet
303 0 m 1,0,-1
 303 660 l 1,1,-1
 126 660 l 1,2,-1
 126 729 l 1,3,-1
 387 729 l 1,4,-1
 387 0 l 1,5,-1
 303 0 l 1,0,-1
101 0 m 1,6,-1
 101 69 l 1,7,-1
 578 69 l 1,8,-1
 578 0 l 1,9,-1
 101 0 l 1,6,-1
193 278 m 1,10,-1
 163 333 l 1,11,-1
 307 417 l 1,12,-1
 374 446 l 1,13,-1
 538 540 l 1,14,-1
 567 484 l 1,15,-1
 374 375 l 1,16,-1
 307 345 l 1,17,-1
 193 278 l 1,10,-1
EndSplineSet
Validated: 5
EndChar

StartChar: uni006C00B7006C.a
Encoding: 1114181 -1 603
Width: 614
GlyphClass: 1
Flags: W
LayerCount: 2
Fore
SplineSet
112 0 m 1,0,-1
 112 660 l 1,1,-1
 2 660 l 1,2,-1
 2 729 l 1,3,-1
 188 729 l 1,4,-1
 188 0 l 1,5,-1
 112 0 l 1,0,-1
-4 0 m 1,6,-1
 -4 69 l 1,7,-1
 293 69 l 1,8,-1
 293 0 l 1,9,-1
 -4 0 l 1,6,-1
430 0 m 1,10,-1
 430 660 l 1,11,-1
 319 660 l 1,12,-1
 319 729 l 1,13,-1
 507 729 l 1,14,-1
 507 0 l 1,15,-1
 430 0 l 1,10,-1
323 0 m 1,16,-1
 323 69 l 1,17,-1
 618 69 l 1,18,-1
 618 0 l 1,19,-1
 323 0 l 1,16,-1
311 299 m 0,20,21
 287 299 287 299 269.5 316.5 c 128,-1,22
 252 334 252 334 252 364 c 256,23,24
 252 394 252 394 270 410.5 c 128,-1,25
 288 427 288 427 311 427 c 0,26,27
 337 427 337 427 354.5 410 c 128,-1,28
 372 393 372 393 372 364 c 256,29,30
 372 334 372 334 354.5 316.5 c 128,-1,31
 337 299 337 299 311 299 c 0,20,21
EndSplineSet
Validated: 5
EndChar

StartChar: uni026C.a
Encoding: 1114183 -1 605
Width: 614
GlyphClass: 2
Flags: W
AnchorPoint: "Anchor-3" 336 -20 basechar 0
AnchorPoint: "Anchor-2" 342 0 basechar 0
AnchorPoint: "Anchor-0" 342 754 basechar 0
LayerCount: 2
Fore
SplineSet
280 318 m 2,0,1
 204 318 204 318 170.5 344.5 c 128,-1,2
 137 371 137 371 137 410 c 0,3,4
 137 444 137 444 162 466.5 c 128,-1,5
 187 489 187 489 227 489 c 0,6,7
 263 489 263 489 285 475 c 128,-1,8
 307 461 307 461 318.5 439.5 c 128,-1,9
 330 418 330 418 334 397 c 128,-1,10
 338 376 338 376 338 360 c 1,11,-1
 303 377 l 1,12,13
 303 400 303 400 285.5 421 c 128,-1,14
 268 442 268 442 232 442 c 0,15,16
 210 442 210 442 200 432 c 128,-1,17
 190 422 190 422 190 409 c 0,18,19
 190 392 190 392 207 379.5 c 128,-1,20
 224 367 224 367 269 367 c 2,21,-1
 530 367 l 1,22,-1
 530 318 l 1,23,-1
 280 318 l 2,0,1
303 0 m 1,24,-1
 303 660 l 1,25,-1
 126 660 l 1,26,-1
 126 729 l 1,27,-1
 387 729 l 1,28,-1
 387 0 l 1,29,-1
 303 0 l 1,24,-1
101 0 m 1,30,-1
 101 69 l 1,31,-1
 578 69 l 1,32,-1
 578 0 l 1,33,-1
 101 0 l 1,30,-1
EndSplineSet
Validated: 5
EndChar

StartChar: Gamma
Encoding: 915 915 608
Width: 614
GlyphClass: 1
Flags: W
LayerCount: 2
Fore
SplineSet
138 0 m 1,0,-1
 138 672 l 1,1,-1
 548 672 l 1,2,-1
 548 600 l 1,3,-1
 223 600 l 1,4,-1
 223 0 l 1,5,-1
 138 0 l 1,0,-1
EndSplineSet
Validated: 1
EndChar

StartChar: uni0394
Encoding: 916 916 609
Width: 614
GlyphClass: 1
Flags: W
LayerCount: 2
Fore
SplineSet
44 0 m 1,0,-1
 44 51 l 1,1,-1
 258 672 l 1,2,-1
 356 672 l 1,3,-1
 570 51 l 1,4,-1
 570 0 l 1,5,-1
 44 0 l 1,0,-1
137 73 m 1,6,-1
 476 73 l 1,7,-1
 377 373 l 2,8,9
 360 427 360 427 343 484.5 c 128,-1,10
 326 542 326 542 308 599 c 1,11,-1
 304 599 l 1,12,13
 287 542 287 542 270 484.5 c 128,-1,14
 253 427 253 427 236 373 c 2,15,-1
 137 73 l 1,6,-1
EndSplineSet
Validated: 1
EndChar

StartChar: Theta
Encoding: 920 920 613
Width: 614
GlyphClass: 1
Flags: W
LayerCount: 2
Fore
SplineSet
307 -12 m 256,0,1
 231 -12 231 -12 173 31 c 128,-1,2
 115 74 115 74 82 152 c 128,-1,3
 49 230 49 230 49 339 c 0,4,5
 49 447 49 447 82 524 c 128,-1,6
 115 601 115 601 173 642.5 c 128,-1,7
 231 684 231 684 307 684 c 256,8,9
 383 684 383 684 441.5 642.5 c 128,-1,10
 500 601 500 601 532.5 523.5 c 128,-1,11
 565 446 565 446 565 339 c 0,12,13
 565 230 565 230 532.5 152 c 128,-1,14
 500 74 500 74 441.5 31 c 128,-1,15
 383 -12 383 -12 307 -12 c 256,0,1
307 62 m 256,16,17
 358 62 358 62 396 96.5 c 128,-1,18
 434 131 434 131 455.5 193 c 128,-1,19
 477 255 477 255 477 339 c 0,20,21
 477 422 477 422 455.5 483 c 128,-1,22
 434 544 434 544 396 576.5 c 128,-1,23
 358 609 358 609 307 609 c 256,24,25
 256 609 256 609 218 576.5 c 128,-1,26
 180 544 180 544 158.5 483 c 128,-1,27
 137 422 137 422 137 339 c 0,28,29
 137 255 137 255 158.5 193 c 128,-1,30
 180 131 180 131 218 96.5 c 128,-1,31
 256 62 256 62 307 62 c 256,16,17
206 316 m 1,32,-1
 206 390 l 1,33,-1
 409 390 l 1,34,-1
 409 316 l 1,35,-1
 206 316 l 1,32,-1
EndSplineSet
Validated: 1
EndChar

StartChar: Lambda
Encoding: 923 923 616
Width: 614
GlyphClass: 1
Flags: W
LayerCount: 2
Fore
SplineSet
44 0 m 1,0,-1
 257 672 l 1,1,-1
 356 672 l 1,2,-1
 570 0 l 1,3,-1
 480 0 l 1,4,-1
 372 364 l 2,5,6
 355 423 355 423 340.5 474.5 c 128,-1,7
 326 526 326 526 307 586 c 1,8,-1
 303 586 l 1,9,10
 285 527 285 527 270.5 475 c 128,-1,11
 256 423 256 423 239 364 c 2,12,-1
 131 0 l 1,13,-1
 44 0 l 1,0,-1
EndSplineSet
Validated: 1
EndChar

StartChar: Xi
Encoding: 926 926 619
Width: 614
GlyphClass: 1
Flags: W
LayerCount: 2
Fore
SplineSet
72 0 m 1,0,-1
 72 73 l 1,1,-1
 543 73 l 1,2,-1
 543 0 l 1,3,-1
 72 0 l 1,0,-1
148 316 m 1,4,-1
 148 389 l 1,5,-1
 466 389 l 1,6,-1
 466 316 l 1,7,-1
 148 316 l 1,4,-1
82 600 m 1,8,-1
 82 672 l 1,9,-1
 532 672 l 1,10,-1
 532 600 l 1,11,-1
 82 600 l 1,8,-1
EndSplineSet
Validated: 1
EndChar

StartChar: Pi
Encoding: 928 928 621
Width: 614
GlyphClass: 1
Flags: W
LayerCount: 2
Fore
SplineSet
81 0 m 1,0,-1
 81 672 l 1,1,-1
 534 672 l 1,2,-1
 534 0 l 1,3,-1
 447 0 l 1,4,-1
 447 600 l 1,5,-1
 167 600 l 1,6,-1
 167 0 l 1,7,-1
 81 0 l 1,0,-1
EndSplineSet
Validated: 1
EndChar

StartChar: Sigma
Encoding: 931 931 623
Width: 614
GlyphClass: 1
Flags: W
LayerCount: 2
Fore
SplineSet
77 0 m 1,0,-1
 77 51 l 1,1,-1
 308 341 l 1,2,-1
 81 622 l 1,3,-1
 81 672 l 1,4,-1
 514 672 l 1,5,-1
 514 600 l 1,6,-1
 189 600 l 1,7,-1
 395 343 l 1,8,-1
 185 73 l 1,9,-1
 545 73 l 1,10,-1
 545 0 l 1,11,-1
 77 0 l 1,0,-1
EndSplineSet
Validated: 1
EndChar

StartChar: Phi
Encoding: 934 934 626
Width: 614
GlyphClass: 1
Flags: W
LayerCount: 2
Fore
SplineSet
291 67 m 2,0,1
 212 67 212 67 152 99.5 c 128,-1,2
 92 132 92 132 59.5 193 c 128,-1,3
 27 254 27 254 27 340 c 0,4,5
 27 424 27 424 59.5 483.5 c 128,-1,6
 92 543 92 543 152 574.5 c 128,-1,7
 212 606 212 606 291 606 c 2,8,-1
 324 606 l 2,9,10
 404 606 404 606 463 574.5 c 128,-1,11
 522 543 522 543 555 483.5 c 128,-1,12
 588 424 588 424 588 340 c 0,13,14
 588 254 588 254 555 193 c 128,-1,15
 522 132 522 132 462.5 99.5 c 128,-1,16
 403 67 403 67 324 67 c 2,17,-1
 291 67 l 2,0,1
287 133 m 2,18,-1
 328 133 l 2,19,20
 383 133 383 133 423 158.5 c 128,-1,21
 463 184 463 184 484.5 231 c 128,-1,22
 506 278 506 278 506 340 c 0,23,24
 506 401 506 401 484.5 445.5 c 128,-1,25
 463 490 463 490 423 515 c 128,-1,26
 383 540 383 540 328 540 c 2,27,-1
 287 540 l 2,28,29
 232 540 232 540 192 515 c 128,-1,30
 152 490 152 490 130.5 445.5 c 128,-1,31
 109 401 109 401 109 340 c 0,32,33
 109 278 109 278 130.5 231 c 128,-1,34
 152 184 152 184 192 158.5 c 128,-1,35
 232 133 232 133 287 133 c 2,18,-1
268 -23 m 1,36,-1
 268 694 l 1,37,-1
 346 694 l 1,38,-1
 346 -23 l 1,39,-1
 268 -23 l 1,36,-1
EndSplineSet
Validated: 5
EndChar

StartChar: Psi
Encoding: 936 936 628
Width: 614
GlyphClass: 1
Flags: W
LayerCount: 2
Fore
SplineSet
288 248 m 2,0,1
 175 248 175 248 110 307.5 c 128,-1,2
 45 367 45 367 45 492 c 2,3,-1
 45 672 l 1,4,-1
 127 672 l 1,5,-1
 127 496 l 2,6,7
 127 406 127 406 166.5 361 c 128,-1,8
 206 316 206 316 285 316 c 2,9,-1
 330 316 l 2,10,11
 409 316 409 316 448 361 c 128,-1,12
 487 406 487 406 487 496 c 2,13,-1
 487 672 l 1,14,-1
 569 672 l 1,15,-1
 569 492 l 2,16,17
 569 367 569 367 504 307.5 c 128,-1,18
 439 248 439 248 327 248 c 2,19,-1
 288 248 l 2,0,1
264 0 m 1,20,-1
 264 672 l 1,21,-1
 350 672 l 1,22,-1
 350 0 l 1,23,-1
 264 0 l 1,20,-1
EndSplineSet
Validated: 5
EndChar

StartChar: uni03A9
Encoding: 937 937 629
Width: 614
GlyphClass: 2
Flags: W
AnchorPoint: "Anchor-3" 307 -20 basechar 0
AnchorPoint: "Anchor-0" 307 692 basechar 0
LayerCount: 2
Fore
SplineSet
39 0 m 1,0,-1
 39 70 l 1,1,-1
 163 70 l 1,2,-1
 163 74 l 1,3,4
 135 102 135 102 109 143 c 128,-1,5
 83 184 83 184 66 238 c 128,-1,6
 49 292 49 292 49 359 c 0,7,8
 49 453 49 453 80.5 526.5 c 128,-1,9
 112 600 112 600 170 642 c 128,-1,10
 228 684 228 684 307 684 c 0,11,12
 387 684 387 684 445 642 c 128,-1,13
 503 600 503 600 534 527 c 128,-1,14
 565 454 565 454 565 359 c 0,15,16
 565 291 565 291 548 237.5 c 128,-1,17
 531 184 531 184 505.5 142.5 c 128,-1,18
 480 101 480 101 452 74 c 1,19,-1
 452 70 l 1,20,-1
 575 70 l 1,21,-1
 575 0 l 1,22,-1
 360 0 l 1,23,-1
 360 62 l 1,24,25
 394 95 394 95 420 135.5 c 128,-1,26
 446 176 446 176 461.5 230 c 128,-1,27
 477 284 477 284 477 354 c 0,28,29
 477 427 477 427 457.5 485 c 128,-1,30
 438 543 438 543 400 576 c 128,-1,31
 362 609 362 609 307 609 c 256,32,33
 252 609 252 609 214 576 c 128,-1,34
 176 543 176 543 156.5 485 c 128,-1,35
 137 427 137 427 137 354 c 0,36,37
 137 283 137 283 152.5 229.5 c 128,-1,38
 168 176 168 176 194.5 135.5 c 128,-1,39
 221 95 221 95 254 62 c 1,40,-1
 254 0 l 1,41,-1
 39 0 l 1,0,-1
EndSplineSet
Validated: 1
EndChar

StartChar: Alphatonos
Encoding: 902 902 630
Width: 614
GlyphClass: 1
Flags: W
LayerCount: 2
Fore
SplineSet
55 0 m 1,0,-1
 270 672 l 1,1,-1
 367 672 l 1,2,-1
 582 0 l 1,3,-1
 492 0 l 1,4,-1
 381 376 l 2,5,6
 365 432 365 432 350 483.5 c 128,-1,7
 335 535 335 535 319 594 c 1,8,-1
 315 594 l 1,9,10
 300 535 300 535 285 483.5 c 128,-1,11
 270 432 270 432 254 376 c 2,12,-1
 142 0 l 1,13,-1
 55 0 l 1,0,-1
174 205 m 1,14,-1
 174 273 l 1,15,-1
 460 273 l 1,16,-1
 460 205 l 1,17,-1
 174 205 l 1,14,-1
95 398 m 1,18,-1
 38 409 l 1,19,-1
 74 707 l 1,20,-1
 156 696 l 1,21,-1
 95 398 l 1,18,-1
EndSplineSet
Validated: 5
EndChar

StartChar: Epsilontonos
Encoding: 904 904 631
Width: 614
GlyphClass: 1
Flags: W
LayerCount: 2
Fore
SplineSet
205 0 m 1,0,-1
 205 672 l 1,1,-1
 532 672 l 1,2,-1
 532 600 l 1,3,-1
 283 600 l 1,4,-1
 283 389 l 1,5,-1
 481 389 l 1,6,-1
 481 316 l 1,7,-1
 283 316 l 1,8,-1
 283 73 l 1,9,-1
 543 73 l 1,10,-1
 543 0 l 1,11,-1
 205 0 l 1,0,-1
82 398 m 1,12,-1
 25 409 l 1,13,-1
 60 707 l 1,14,-1
 142 696 l 1,15,-1
 82 398 l 1,12,-1
EndSplineSet
Validated: 1
EndChar

StartChar: Etatonos
Encoding: 905 905 632
Width: 614
GlyphClass: 1
Flags: W
LayerCount: 2
Fore
SplineSet
199 0 m 1,0,-1
 199 672 l 1,1,-1
 276 672 l 1,2,-1
 276 390 l 1,3,-1
 463 390 l 1,4,-1
 463 672 l 1,5,-1
 541 672 l 1,6,-1
 541 0 l 1,7,-1
 463 0 l 1,8,-1
 463 316 l 1,9,-1
 276 316 l 1,10,-1
 276 0 l 1,11,-1
 199 0 l 1,0,-1
82 398 m 1,12,-1
 25 409 l 1,13,-1
 60 707 l 1,14,-1
 142 696 l 1,15,-1
 82 398 l 1,12,-1
EndSplineSet
Validated: 1
EndChar

StartChar: Iotatonos
Encoding: 906 906 633
Width: 614
GlyphClass: 1
Flags: W
LayerCount: 2
Fore
SplineSet
189 0 m 1,0,-1
 189 73 l 1,1,-1
 310 73 l 1,2,-1
 310 600 l 1,3,-1
 189 600 l 1,4,-1
 189 672 l 1,5,-1
 517 672 l 1,6,-1
 517 600 l 1,7,-1
 395 600 l 1,8,-1
 395 73 l 1,9,-1
 517 73 l 1,10,-1
 517 0 l 1,11,-1
 189 0 l 1,0,-1
82 398 m 1,12,-1
 25 409 l 1,13,-1
 60 707 l 1,14,-1
 142 696 l 1,15,-1
 82 398 l 1,12,-1
EndSplineSet
Validated: 1
EndChar

StartChar: Omicrontonos
Encoding: 908 908 635
Width: 614
GlyphClass: 1
Flags: W
LayerCount: 2
Fore
SplineSet
356 -12 m 0,0,1
 296 -12 296 -12 248.5 29.5 c 128,-1,2
 201 71 201 71 174.5 149 c 128,-1,3
 148 227 148 227 148 339 c 0,4,5
 148 452 148 452 174.5 528.5 c 128,-1,6
 201 605 201 605 248.5 644.5 c 128,-1,7
 296 684 296 684 356 684 c 0,8,9
 417 684 417 684 464.5 644.5 c 128,-1,10
 512 605 512 605 538.5 528.5 c 128,-1,11
 565 452 565 452 565 339 c 0,12,13
 565 225 565 225 538.5 147.5 c 128,-1,14
 512 70 512 70 464.5 29 c 128,-1,15
 417 -12 417 -12 356 -12 c 0,0,1
356 62 m 0,16,17
 394 62 394 62 422.5 93 c 128,-1,18
 451 124 451 124 466.5 185 c 128,-1,19
 482 246 482 246 482 339 c 0,20,21
 482 431 482 431 466.5 491 c 128,-1,22
 451 551 451 551 422.5 580 c 128,-1,23
 394 609 394 609 356 609 c 0,24,25
 319 609 319 609 291 580 c 128,-1,26
 263 551 263 551 247 491 c 128,-1,27
 231 431 231 431 231 339 c 0,28,29
 231 246 231 246 247 185 c 128,-1,30
 263 124 263 124 291 93 c 128,-1,31
 319 62 319 62 356 62 c 0,16,17
82 398 m 1,32,-1
 25 409 l 1,33,-1
 60 707 l 1,34,-1
 142 696 l 1,35,-1
 82 398 l 1,32,-1
EndSplineSet
Validated: 1
EndChar

StartChar: Upsilontonos
Encoding: 910 910 636
Width: 614
GlyphClass: 1
Flags: W
LayerCount: 2
Fore
SplineSet
366 0 m 1,0,-1
 366 240 l 1,1,-1
 193 672 l 1,2,-1
 271 672 l 1,3,-1
 346 472 l 2,4,5
 361 430 361 430 375 392.5 c 128,-1,6
 389 355 389 355 403 315 c 1,7,-1
 408 315 l 1,8,9
 422 355 422 355 436 393.5 c 128,-1,10
 450 432 450 432 464 472 c 2,11,-1
 541 672 l 1,12,-1
 616 672 l 1,13,-1
 443 240 l 1,14,-1
 443 0 l 1,15,-1
 366 0 l 1,0,-1
99 398 m 1,16,-1
 41 409 l 1,17,-1
 78 707 l 1,18,-1
 159 696 l 1,19,-1
 99 398 l 1,16,-1
EndSplineSet
Validated: 1
EndChar

